<?xml version="1.0" encoding="utf-8"?>
<!-- Generator: Adobe Illustrator 15.1.0, SVG Export Plug-In . SVG Version: 6.00 Build 0)  -->
<!DOCTYPE svg PUBLIC "-//W3C//DTD SVG 1.1//EN" "http://www.w3.org/Graphics/SVG/1.1/DTD/svg11.dtd">
<svg version="1.1" id="Layer_1" xmlns="http://www.w3.org/2000/svg" xmlns:xlink="http://www.w3.org/1999/xlink" x="0px" y="0px"
	 width="158px" height="235px" viewBox="0 0 158 235" style="enable-background:new 0 0 158 235;" xml:space="preserve">
<style type="text/css">
<![CDATA[
	.st0{opacity:0.6;fill:#FFA3A3;}
	.st1{opacity:0.5;fill:#B69B8A;}
	.st2{fill:#153F4C;}
	.st3{fill:#F2CFB8;}
	.st4{opacity:0.4;fill:#B69B8A;}
	.st5{fill:#FFFFFF;}
	.st6{fill:none;stroke:#0A1D25;stroke-linecap:round;stroke-miterlimit:10;}
]]>
</style>
<g>
	<path class="st3" d="M156.1,96.5c-0.6-4.1-1.7-8.2-3.4-12.2l-0.2,0.1c-1.6-3.8-5.4-6.6-9.8-6.9c-6.2-0.3-11.5,4.5-11.8,10.7
		c-0.1,1.8,0.2,3.4,0.9,5l-0.2,0.1c2.1,5,2.6,10.4,1.3,15.7c-3.3,13.5-16.9,21.7-30.3,18.5L97,149.9c25.8,6.3,51.9-9.6,58.1-35.4
		C156.6,108.5,156.9,102.5,156.1,96.5z"/>
	<g>
		<path class="st2" d="M116.8,235.7c0-4.7-0.6-8.8-1.6-13.1L102.8,119H15.2L2.8,222.5c-1,4.4-1.6,8.7-1.6,13.4"/>
		<rect x="53" y="144" class="st5" width="43" height="53"/>
		<g>
			<path d="M72.8,162.9c0,10.5-7.8,9.6-7.8,19.1v0.6h8v5H59.7v-5.1c0-12.6,7.8-11.4,7.8-19.6v-4.1c0-0.8-0.4-1.4-1.4-1.4
				s-1.4,0.6-1.4,1.4v4.1h-5.2v-4.1c0-3.6,1.4-6.2,6.6-6.2s6.7,2.6,6.7,6.2V162.9z"/>
			<path d="M84.3,158.9c0-0.8-0.4-1.4-1.4-1.4c-0.9,0-1.4,0.6-1.4,1.4v4.1h-5.2v-4.1c0-3.6,1.4-6.2,6.6-6.2c5.2,0,6.6,2.6,6.6,6.2
				v7.3c0,1.9-0.7,3.1-2.3,3.9c1.5,0.7,2.4,2.1,2.4,3.9v7.9c0,3.6-1.5,6.2-6.7,6.2c-5.2,0-6.6-2.6-6.6-6.2v-4.6h5.2v4.5
				c0,1,0.4,1.5,1.4,1.5c0.9,0,1.4-0.4,1.4-1.5v-8.1c0-0.7-0.4-1.1-1.1-1.1h-2.1v-4.9h2.1c0.8,0,1.1-0.4,1.1-1.1V158.9z"/>
		</g>
	</g>
	<g>
		<path class="st3" d="M97.1,54.4c0-21.9-17.8-39.8-39.7-39.8s-39.7,18-39.7,39.9L15,119h87.6L97.1,54.4z"/>
	</g>
	<g>
		<defs>
			<path id="SVGID_1_" d="M97.1,54.4c0-21.9-17.8-39.8-39.7-39.8s-39.7,18-39.7,39.9L15,119h87.6L97.1,54.4z"/>
		</defs>
		<clipPath id="SVGID_2_">
			<use xlink:href="#SVGID_1_"  style="overflow:visible;"/>
		</clipPath>
	</g>
	<path class="st0" d="M54.3,72c0,4.5-3.7,8.2-8.2,8.2c-4.5,0-8.2-3.7-8.2-8.2c0-4.5,3.7-8.2,8.2-8.2C50.6,63.8,54.3,67.5,54.3,72z"
		/>
	<path class="st1" d="M81.2,56.3l10.4,3.5C91.6,59.8,85.7,64.4,81.2,56.3z"/>
	<path class="st1" d="M54.9,59.7l10.5-3.1C65.4,56.5,63.2,63.6,54.9,59.7z"/>
	<circle cx="62.4" cy="55.2" r="3.5"/>
	<path class="st5" d="M63.8,54.6c0,0.8-0.6,1.4-1.4,1.4c-0.8,0-1.4-0.6-1.4-1.4c0-0.8,0.6-1.4,1.4-1.4
		C63.1,53.2,63.8,53.8,63.8,54.6z"/>
	<circle cx="84.1" cy="55.2" r="3.5"/>
	<circle cx="73.2" cy="69.4" r="0.5"/>
	<circle cx="77.9" cy="69.4" r="0.5"/>
	<path class="st4" d="M36.1,37.4c0,0-28.4,78.4,64.6,58.6l1.9,23H15l3.3-76.4l2.3-11.3L36.1,37.4z"/>
	<path d="M118.3,12.6C108.2,20,95.4,22,92.7,22.3C90.8,10.7,80.8,1.9,68.6,1.9c-0.3,0-0.6,0-0.9,0C51.6,1.2,32.7,7.1,32.7,7.1
		c-8.7,3-13.5-4.8-13.5-4.8c0,5,1.7,9.2,1.7,9.2c-7.6-4-14.4,1.3-14.4,1.3c0.1,0,0.2,0.1,0.4,0.1c0.3,0,0.6,0,0.9,0
		c4.6,0,8.3,3.7,8.3,8.3c0,4.6-3.7,8.3-8.3,8.3c-0.6,0-1.1-0.1-1.7-0.2c2.3,3.6,5.1,5.5,5.1,5.5c-1.1,20,7.6,27.8,7.6,27.8
		C18.7,47,27,37.5,27,37.5C132.9,70.6,118.3,12.6,118.3,12.6z"/>
	<path class="st3" d="M80.4,195.1c-1.7-0.3-3.5-0.2-5,0.2l-0.1-0.2c-5.2,1.4-10.7,1.1-15.8-0.9c-12.9-5.1-19.2-19.7-14.1-32.6
		l-21.4-8.5c-9.8,24.7,2.3,52.7,27,62.5c5.7,2.3,11.7,3.4,17.7,3.4c4.2,0,8.4-0.6,12.5-1.7l-0.1-0.2c4-1.1,7.3-4.4,8.1-8.8
		C90.6,202.2,86.6,196.3,80.4,195.1z"/>
	<path class="st5" d="M85.8,54.6c0,0.8-0.6,1.4-1.4,1.4c-0.8,0-1.4-0.6-1.4-1.4c0-0.8,0.6-1.4,1.4-1.4
		C85.1,53.2,85.8,53.8,85.8,54.6z"/>
	<path class="st6" d="M83,71.4c0,4.2-3.4,7.5-7.5,7.5s-7.5-3.4-7.5-7.5"/>
</g>
</svg>
