<?xml version="1.0" encoding="utf-8"?>
<!-- Generator: Adobe Illustrator 15.1.0, SVG Export Plug-In . SVG Version: 6.00 Build 0)  -->
<!DOCTYPE svg PUBLIC "-//W3C//DTD SVG 1.1//EN" "http://www.w3.org/Graphics/SVG/1.1/DTD/svg11.dtd">
<svg version="1.1" id="Layer_1" xmlns="http://www.w3.org/2000/svg" xmlns:xlink="http://www.w3.org/1999/xlink" x="0px" y="0px"
	 width="28px" height="38px" viewBox="0 0 28 38" style="enable-background:new 0 0 28 38;" xml:space="preserve">
<style type="text/css">
<![CDATA[
	.st0{fill:#FF573B;}
]]>
</style>
<g>
	<path class="st0" d="M14,35c-0.6,0-1-0.4-1-1V2c0-0.6,0.4-1,1-1c0.6,0,1,0.4,1,1v32C15,34.6,14.6,35,14,35z"/>
	<path class="st0" d="M14,37.4L1.3,24.6c-0.4-0.4-0.4-1,0-1.4s1-0.4,1.4,0L14,34.5l11.3-11.3c0.4-0.4,1-0.4,1.4,0s0.4,1,0,1.4
		L14,37.4z"/>
</g>
</svg>
