<svg xmlns="http://www.w3.org/2000/svg" xmlns:xlink="http://www.w3.org/1999/xlink" version="1.1" class="dog__svg" x="0" y="0" width="404" height="552" viewBox="0 0 404 552" xml:space="preserve" enable-background="new 0 0 404 552">
  <style type="text/css">

	.dog__svg .st0{opacity:0.5;fill:#B69B8A;}
	.dog__svg .st1{fill:#EBAE56;}
	.dog__svg .st2{fill:#1D5970;}
	.dog__svg .st3{fill:none;stroke:#000000;stroke-linecap:round;stroke-miterlimit:10;}
	.dog__svg .st4{fill:#F29025;}
	.dog__svg .st5{fill:#F2CFB8;}
	.dog__svg .st6{opacity:0.4;fill:#B69B8A;}
	.dog__svg .st7{opacity:0.2;fill:#FFA3A3;}
	.dog__svg .st8{fill:#FA5637;}
	.dog__svg .st9{fill:#FF573B;}
	.dog__svg .st10{fill:#FFFFFF;}
	.dog__svg .st11{fill:none;}
	.dog__svg .st12{fill:#0A1D25;}

  </style>
  <g id="dog">
    <rect x="154.1" y="491" transform="matrix(-1 4.373926e-03 -4.373926e-03 -1 331.6073 1026.9692)" class="st5" width="21.2" height="45.7"/>
    <path class="st9" d="M154.4 529.8v-0.2l21-0.1 0 18.6 -21.3 0.1 -15.8 0.1C138.4 538.9 144.4 531.2 154.4 529.8z"/>
    <circle class="st12" cx="164.8" cy="429.9" r="18.5"/>
    <path class="st1" d="M97.8 465.8c-15.3 0-30.6-5.9-42.3-17.6 -23.2-23.4-23.1-61.1 0.2-84.3 30.8-30.6 83-105.3 86.7-261.3 0.8-32.4 27.3-58.2 59.6-58.2 0.5 0 1 0 1.4 0 32.9 0.8 59 28.1 58.2 61 -1.4 59.9-9.3 115.9-23.5 166.3 -20.4 72.6-53.5 132.1-98.3 176.7C128.2 460 113 465.8 97.8 465.8z"/>
    <path class="st8" d="M307.3 81.6c-2.5-21.4-17.1-38.4-36-45.3l10.2-8c4.5-1.5 7.8-5.7 7.8-10.7 0-6.2-5-11.3-11.3-11.3 -5.3 0-9.8 3.7-11 8.7l-0.6-0.1c0.2-0.8 0.3-1.7 0.3-2.6 0-6.2-5-11.3-11.3-11.3s-11.3 5-11.3 11.3c0 0.7 0.1 1.3 0.2 2l-0.2 0 -0.4 0.2c-1.3-4.7-5.7-8.2-10.8-8.2 -6.2 0-11.3 5-11.3 11.3 0 2.6 0.9 4.9 2.3 6.8 1.2 1.6 2.8 2.8 4.6 3.6l9.2 7.1c-25.7 7.2-43 32.2-39.7 59.5 0.1 0.6 6.6 57.1-3.1 125.6 -5.5 39-15.1 73.4-28.6 102.4 -15.6 33.5-36.4 59.6-61.9 77.6C83.5 415 76 441.7 84.6 464.5l-16.2-5c-3.8-2.9-9.1-3.1-13.2-0.3 -5.1 3.6-6.4 10.6-2.8 15.7 3 4.4 8.6 5.9 13.4 4l0.2 0.6c-0.8 0.3-1.6 0.7-2.3 1.2 -5.1 3.6-6.4 10.6-2.8 15.7 3.6 5.1 10.6 6.4 15.7 2.8 0.5-0.4 1-0.8 1.5-1.3l0.1 0.1 0.4 0.2c-3.1 3.8-3.5 9.3-0.5 13.6 3.6 5.1 10.6 6.4 15.7 2.8 3.9-2.7 5.5-7.3 4.6-11.6l0.9-17.1c10.3 9.3 23.6 14.3 37 14.3 10.9 0 22-3.3 31.6-10 41.5-29.2 74.6-70 98.4-121.2 18-38.8 30.8-83.7 37.8-133.4C315.6 153.2 307.7 84.5 307.3 81.6z"/>
    <path class="st1" d="M180 527.9c-18.8 0-37.3-8.9-48.9-25.5 -18.9-27-12.3-64.2 14.7-83.1 44.9-31.4 76.9-83.2 95.3-154.1 16.2-62.4 18-124.6 16.7-165.7 -1.1-32.9 24.8-60.5 57.7-61.5 32.9-1 60.5 24.8 61.5 57.7 1.6 49-0.7 123.3-20.4 199.5 -25.7 99.1-73.6 173.8-142.4 221.9C203.7 524.4 191.8 527.9 180 527.9z"/>
    <rect x="233.6" y="493.6" transform="matrix(-1 4.327673e-03 -4.327673e-03 -1 490.6343 1031.9335)" class="st5" width="21.2" height="45.7"/>
    <path class="st9" d="M233.4 532.5v-0.2l21.3-0.1 0.1 18.6 -21.2 0.1 -16 0.1C217.7 541.5 224.4 533.8 233.4 532.5z"/>
    <path class="st12" d="M262.8 432.6c0-10.2-8.3-18.5-18.5-18.5 -10.2 0-18.5 8.3-18.5 18.5 0 0.7 0.1 1.5 0.1 2.2l-0.1 63.5 36.8 0.1L262.8 432.6 262.8 432.6C262.8 432.6 262.8 432.6 262.8 432.6z"/>
    <path class="st4" d="M168.8 408.5c-32.4 0-71.1-13.5-81.7-45.7 -1-3.1 0.7-6.5 3.8-7.6 3.1-1 6.5 0.7 7.6 3.8 10.5 32 58.3 41.6 87.4 35.9 4.1-0.8 6.9-2.6 8.5-5.4 1.9-3.4 1.8-8.2-0.1-13.3 -3.1-8.2-15.4-17.5-27.2-26.4 -17-12.8-34.6-26.1-36.8-43 -1-7.9 1.4-15.7 7.3-23.2 15.9-20.3 51.8-10.2 71.1-4.7 1 0.3 2 0.6 3 0.8 2.8 0.8 5.6 1.7 8.3 2.5 9.7 3.1 19.7 6.2 28.8 4.6 3.7-0.7 6.3-2.2 7.9-4.7 1.8-2.8 2.1-6.7 1-11 -2.8-11.2-13.6-18.9-22.1-23.3 -7.6-4-16.2-7-24.6-10 -22.5-8-45.7-16.3-56.1-43.4 -2.6-6.9-2.7-13.1 0-18.4 4.2-8.4 13.8-12.1 20.7-14.1 13.1-3.9 28.6-5.4 41.4-4.1 31.1 3.2 51.9 0.7 61.8-7.4 3.6-3 5.6-6.7 6.1-11.4 1.7-16.9-27.4-30.5-41.4-37.1l-1.5-0.7c-22.2-10.5-45.1-17.8-68-21.7 -3.3-0.6-5.5-3.7-4.9-6.9s3.7-5.4 6.9-4.9c23.9 4.2 47.8 11.8 71 22.7l1.5 0.7c17.8 8.3 50.8 23.8 48.3 49.2 -0.8 7.9-4.3 14.4-10.5 19.5 -18.8 15.3-57.8 11.3-70.6 10 -11.1-1.1-25.2 0.3-36.7 3.7 -7.3 2.2-11.8 4.8-13.3 8 -1.1 2.2-0.9 5.1 0.5 8.8 8.4 21.9 28.1 29 48.9 36.4 8.7 3.1 17.7 6.3 26.1 10.7 15.3 8 25.1 18.7 28.2 31 1.9 7.6 1 14.8-2.6 20.4 -3.4 5.3-8.8 8.7-15.8 10 -12 2.2-24-1.6-34.6-4.9 -2.8-0.9-5.4-1.7-7.9-2.4 -1-0.3-2-0.6-3-0.9 -16.6-4.7-47.5-13.4-58.4 0.6 -3.9 5-5.5 9.6-4.8 14.2 1.6 11.9 17.1 23.7 32.1 35 13.8 10.4 26.8 20.2 31.2 31.7 3.3 8.5 3 16.8-0.6 23.4 -2.3 4.1-7.1 9.5-16.7 11.4C182.2 407.9 175.7 408.5 168.8 408.5z"/>
    <path class="st11" d="M246 195.6c9.4-12.3 15.4-30.9 15.4-51.7 0-18.4-4.7-35-12.3-47.1 -4.4-1.8-9.1-2.7-14.1-2.7 -21.3 0-38.5 17.4-38.5 38.7l-5.3 62.8H246z"/>
    <path class="st5" d="M257.4 115.5l-1.7 0.6 -41.3-16c-10.8 6.9-17.9 19-17.9 32.7l-5.3 62.8H246c9.4-12.3 15.4-30.9 15.4-51.7C261.4 133.7 260 124.1 257.4 115.5z"/>
    <circle class="st7" cx="246.1" cy="149.7" r="8"/>
    <path class="st0" d="M212 134.5l-10.1 3.4C202 137.9 207.6 142.3 212 134.5z"/>
    <path class="st0" d="M237.5 137.7l-10.2-3C227.3 134.7 229.4 141.6 237.5 137.7z"/>
    <circle cx="230.3" cy="133.3" r="3.4"/>
    <circle class="st10" cx="228.9" cy="133.8" r="1.3"/>
    <circle cx="209.2" cy="133.3" r="3.4"/>
    <circle class="st10" cx="207.8" cy="133.8" r="1.3"/>
    <circle cx="219.8" cy="147.2" r="0.4"/>
    <circle cx="215.2" cy="147.2" r="0.4"/>
    <path class="st6" d="M261.4 143.9c0-10.2-1.4-19.8-4-28.4l-1.7 0.6c0 0 27.5 76.2-62.7 56.9l-1.9 22.5H246C255.5 183.2 261.4 164.7 261.4 143.9z"/>
    <path class="st3" d="M224.2 153c0 4-3.3 7.3-7.3 7.3 -4 0-7.3-3.3-7.3-7.3"/>
    <path class="st2" d="M191.2 195.2v0.5c7.4 9.6 16.9 15.4 27.3 15.4 10.6 0 20.3-6 27.7-16H191.2z"/>
    <path d="M258.2 118.1c-4.3-16.2-12.5-29.2-22.7-36.1 -3.5-0.3-7-0.5-10.4-0.3 -0.3 0-0.6 0-0.8 0 -11.8 0-21.5 8.6-23.3 19.8 -2.6-0.3-15-2.2-24.8-9.4C176 92.1 162.5 146 258.2 118.1z"/>
    <path class="st7" d="M194.4 157.6c0.2 0 0.5 0 0.7 0 4.4 0 8-3.6 8-8 0-4.2-3.2-7.6-7.3-7.9L194.4 157.6z"/>
  </g>
  <g class="mustard">
    <path class="drop drop-1 st4" d="M388.9 265.4c-0.8 1.6-1 3.4-0.6 5.2 1 4.1 5.1 6.5 9.2 5.5 4.1-1 6.5-5.2 5.5-9.2 -0.5-2-1.8-3.7-3.4-4.7l-7.5-7.6L388.9 265.4z"/>
    <path class="drop drop-2 st4" d="M347.9 429.4c-0.8 1.6-1 3.4-0.6 5.2 1 4.1 5.1 6.5 9.2 5.5 4.1-1 6.5-5.2 5.5-9.2 -0.5-2-1.8-3.7-3.4-4.7l-7.5-7.6L347.9 429.4z"/>
    <path class="drop drop-3 st4" d="M5.4 462.6c-1.6 0.7-3 1.9-3.8 3.6 -1.9 3.8-0.3 8.3 3.4 10.2 3.8 1.9 8.3 0.3 10.2-3.4 0.9-1.9 1-3.9 0.4-5.8l-0.7-10.6L5.4 462.6z"/>
  </g>
</svg>