<svg xmlns="http://www.w3.org/2000/svg" xmlns:xlink="http://www.w3.org/1999/xlink" version="1.1" class="dog__svg" x="0" y="0" width="342" height="552" viewBox="0 0 342 552" xml:space="preserve" enable-background="new 0 0 342 552">
  <style type="text/css">

	.dog__svg .st0{clip-path:url(#SVGID_6_);fill:#FFA3A3;}
	.dog__svg .st1{opacity:0.2;clip-path:url(#SVGID_4_);}
	.dog__svg .st2{opacity:0.2;clip-path:url(#SVGID_8_);}
	.dog__svg .st3{fill:none;stroke:#FF573B;stroke-width:110;stroke-linecap:round;stroke-miterlimit:10;}
	.dog__svg .st4{clip-path:url(#SVGID_8_);fill:#FFFFFF;}
	.dog__svg .st5{opacity:0.4;clip-path:url(#SVGID_8_);}
	.dog__svg .st6{fill:#EBAE56;}
	.dog__svg .st7{clip-path:url(#SVGID_12_);fill:#B69B8A;}
	.dog__svg .st8{opacity:0.5;clip-path:url(#SVGID_8_);}
	.dog__svg .st9{fill:#F29025;}
	.dog__svg .st10{fill:#F2CFB8;}
	.dog__svg .st11{clip-path:url(#SVGID_14_);fill:#B69B8A;}
	.dog__svg .st12{clip-path:url(#SVGID_8_);}
	.dog__svg .st13{clip-path:url(#SVGID_10_);fill:#FFA3A3;}
	.dog__svg .st14{clip-path:url(#SVGID_8_);fill:#0A1D25;}
	.dog__svg .st15{fill:#FA5637;}
	.dog__svg .st16{clip-path:url(#SVGID_2_);fill:#F2CFB8;}
	.dog__svg .st17{fill:#FF573B;}
	.dog__svg .st18{clip-path:url(#SVGID_16_);fill:#B69B8A;}
	.dog__svg .st19{clip-path:url(#SVGID_8_);fill:none;stroke:#000000;stroke-linecap:round;stroke-miterlimit:10;}
	.dog__svg .st20{fill:#0A1D25;}

  </style>
  <rect x="117.3" y="491" transform="matrix(-1 4.373926e-03 -4.373926e-03 -1 258.0881 1027.1299)" class="st10" width="21.2" height="45.7"/>
  <path class="st17" d="M117.7 529.8v-0.2l21-0.1 0 18.6 -21.2 0.1 -15.8 0.1C101.7 538.9 107.7 531.2 117.7 529.8"/>
  <rect x="109.6" y="430" transform="matrix(-1 -2.307802e-03 2.307802e-03 -1 254.9432 925.9573)" class="st20" width="36.8" height="65.7"/>
  <path class="st20" d="M146.5 429.9c0 10.2-8.3 18.5-18.5 18.5 -10.2 0-18.5-8.3-18.5-18.5 0-10.2 8.3-18.5 18.5-18.5C138.2 411.4 146.5 419.7 146.5 429.9"/>
  <path class="st6" d="M61 465.8c-15.3 0-30.6-5.9-42.3-17.6 -23.2-23.4-23.1-61.1 0.2-84.3 30.8-30.6 83-105.3 86.7-261.3 0.8-32.4 27.3-58.2 59.6-58.2 0.5 0 1 0 1.4 0 32.9 0.8 59 28.1 58.2 61 -1.4 59.9-9.3 115.9-23.5 166.3 -20.4 72.6-53.5 132.1-98.3 176.7C91.4 460 76.2 465.8 61 465.8"/>
  <path class="st3" d="M215.9 88.2c0 0 30.2 253.8-116.6 357.1"/>
  <path class="st15" d="M252.5 17.7c0-6.2-5-11.3-11.3-11.3 -5.3 0-9.8 3.7-11 8.7l-0.6-0.1c0.2-0.8 0.3-1.7 0.3-2.6 0-6.2-5-11.3-11.3-11.3s-11.3 5-11.3 11.3c0 0.7 0.1 1.3 0.2 2l-0.2 0 -0.4 0.2c-1.3-4.7-5.7-8.2-10.8-8.2 -6.2 0-11.3 5-11.3 11.3 0 4.7 2.9 8.7 6.9 10.4l26.8 20.7 26-20.4C249.2 26.9 252.5 22.7 252.5 17.7z"/>
  <path class="st15" d="M61.3 503.1l1.8-33.9 -31.6-9.7c-3.8-2.9-9.1-3.1-13.2-0.3 -5.1 3.6-6.4 10.6-2.8 15.7 3 4.4 8.6 5.9 13.4 4l0.2 0.6c-0.8 0.3-1.6 0.7-2.3 1.2 -5.1 3.6-6.4 10.6-2.8 15.7 3.6 5.1 10.6 6.4 15.7 2.8 0.5-0.4 1-0.8 1.5-1.3l0.1 0.1 0.4 0.2c-3.1 3.8-3.5 9.3-0.5 13.6 3.6 5.1 10.6 6.2 15.7 2.6 2.1-1.5 3.3-3 4-6h-0.2v0.4C61.8 507.1 61.7 505.1 61.3 503.1z"/>
  <path class="st6" d="M143.2 527.9c-18.8 0-37.3-8.9-48.9-25.5 -18.9-27-12.3-64.2 14.7-83.1 44.9-31.4 76.9-83.2 95.3-154.1 16.2-62.4 18-124.6 16.7-165.7 -1.1-32.9 24.8-60.5 57.7-61.5 32.9-1 60.5 24.8 61.5 57.7 1.6 49-0.7 123.3-20.4 199.5 -25.7 99.1-73.6 173.8-142.4 221.9C167 524.4 155 527.9 143.2 527.9"/>
  <path class="st9" d="M132.1 408.5c-32.4 0-71.1-13.5-81.7-45.7 -1-3.1 0.7-6.5 3.8-7.6 3.1-1 6.5 0.7 7.6 3.8 10.5 32 58.3 41.6 87.4 35.9 4.1-0.8 6.9-2.6 8.5-5.4 1.9-3.4 1.8-8.2-0.1-13.3 -3.1-8.2-15.4-17.5-27.2-26.4 -17-12.8-34.6-26.1-36.8-43 -1-7.9 1.4-15.7 7.3-23.2 15.9-20.4 51.8-10.2 71.1-4.7 1 0.3 2 0.6 3 0.8 2.8 0.8 5.6 1.7 8.3 2.5 9.7 3.1 19.7 6.2 28.8 4.6 3.7-0.7 6.3-2.2 7.9-4.7 1.8-2.8 2.1-6.7 1-11 -2.8-11.2-13.6-18.9-22.1-23.3 -7.6-4-16.2-7-24.6-10 -22.5-8-45.7-16.3-56.1-43.4 -2.6-6.9-2.7-13.1 0-18.4 4.2-8.4 13.8-12.1 20.7-14.1 13.1-3.9 28.6-5.4 41.4-4.1 31.1 3.2 51.9 0.7 61.8-7.4 3.6-3 5.6-6.7 6.1-11.4 1.7-16.9-27.4-30.5-41.4-37.1l-1.5-0.7c-22.2-10.5-45.1-17.8-68-21.7 -3.3-0.6-5.5-3.7-4.9-6.9 0.6-3.3 3.7-5.4 6.9-4.9 23.9 4.2 47.8 11.8 71 22.7l1.5 0.7c17.8 8.3 50.8 23.8 48.3 49.2 -0.8 7.9-4.3 14.4-10.5 19.5 -18.8 15.3-57.8 11.3-70.6 10 -11.1-1.1-25.2 0.3-36.7 3.7 -7.3 2.2-11.8 4.8-13.3 8 -1.1 2.2-0.9 5.1 0.5 8.8 8.4 21.9 28.1 29 48.9 36.4 8.7 3.1 17.7 6.3 26.1 10.7 15.3 8 25.1 18.7 28.2 31 1.9 7.6 1 14.8-2.6 20.4 -3.4 5.3-8.8 8.7-15.8 10 -12 2.2-24-1.6-34.6-4.9 -2.8-0.9-5.4-1.7-7.9-2.4 -1-0.3-2-0.6-3-0.9 -16.6-4.7-47.5-13.4-58.4 0.6 -3.9 5-5.5 9.6-4.8 14.2 1.6 11.9 17.1 23.7 32.1 35 13.8 10.4 26.8 20.2 31.2 31.7 3.3 8.5 3 16.8-0.6 23.4 -2.3 4.1-7.1 9.5-16.7 11.4C145.5 407.9 138.9 408.5 132.1 408.5z"/>
  <defs>
    <path id="SVGID_1_" d="M144.4 95.9c-0.6 1-3.2-2.3-5.9-5.5 -2.7-3.3-5.3-6.6-5.8-5.5 -11.5 24.7 4.5 30.3 3.4 33.7 -2.8 9-3.2 14.7-3.2 25.4 0 37.1 19.2 67.3 42.9 67.3 23.7 0 42.9-30.1 42.9-67.3 0-37.1-19.2-67.3-42.9-67.3C163.4 76.6 152.3 82.7 144.4 95.9"/>
  </defs>
  <clipPath id="SVGID_2_">
    <use xlink:href="#SVGID_1_" overflow="visible"/>
  </clipPath>
  <path class="st16" d="M153.8 132.8c0-21.3 17.2-38.7 38.5-38.7 21.3 0 38.5 17.5 38.5 38.8l2.7 62.7h-84.9L153.8 132.8z"/>
  <defs>
    <path id="SVGID_3_" d="M153.8 132.8l-5.3 62.8h54.8c9.4-12.3 15.4-30.9 15.4-51.7 0-18.4-4.7-35-12.3-47.1 -4.4-1.8-9.1-2.7-14.1-2.7C171 94.1 153.8 111.5 153.8 132.8"/>
  </defs>
  <clipPath id="SVGID_4_">
    <use xlink:href="#SVGID_3_" overflow="visible"/>
  </clipPath>
  <g class="st1">
    <defs>
      <rect id="SVGID_5_" x="144.4" y="141.7" width="15.9" height="15.9"/>
    </defs>
    <clipPath id="SVGID_6_">
      <use xlink:href="#SVGID_5_" overflow="visible"/>
    </clipPath>
    <path class="st0" d="M144.4 149.7c0 4.4 3.6 8 8 8 4.4 0 8-3.6 8-8s-3.6-8-8-8C148 141.7 144.4 145.3 144.4 149.7"/>
  </g>
  <defs>
    <path id="SVGID_7_" d="M144.4 95.9c-0.6 1-3.2-2.3-5.9-5.5 -2.7-3.3-5.3-6.6-5.8-5.5 -11.5 24.7 4.5 30.3 3.4 33.7 -2.8 9-3.2 14.7-3.2 25.4 0 37.1 19.2 67.3 42.9 67.3 23.7 0 42.9-30.1 42.9-67.3 0-37.1-19.2-67.3-42.9-67.3C163.4 76.6 152.3 82.7 144.4 95.9"/>
  </defs>
  <clipPath id="SVGID_8_">
    <use xlink:href="#SVGID_7_" overflow="visible"/>
  </clipPath>
  <g class="st2">
    <defs>
      <rect id="SVGID_9_" x="195.3" y="141.7" width="15.9" height="15.9"/>
    </defs>
    <clipPath id="SVGID_10_">
      <use xlink:href="#SVGID_9_" overflow="visible"/>
    </clipPath>
    <path class="st13" d="M195.3 149.7c0 4.4 3.6 8 8 8 4.4 0 8-3.6 8-8s-3.6-8-8-8C198.9 141.7 195.3 145.3 195.3 149.7"/>
  </g>
  <g class="st8">
    <defs>
      <rect id="SVGID_11_" x="159.2" y="134.5" width="10.1" height="4.6"/>
    </defs>
    <clipPath id="SVGID_12_">
      <use xlink:href="#SVGID_11_" overflow="visible"/>
    </clipPath>
    <path class="st7" d="M169.3 134.5l-10.1 3.4C159.2 137.9 164.9 142.3 169.3 134.5"/>
  </g>
  <g class="st8">
    <defs>
      <rect id="SVGID_13_" x="184.6" y="134.7" width="10.2" height="4.2"/>
    </defs>
    <clipPath id="SVGID_14_">
      <use xlink:href="#SVGID_13_" overflow="visible"/>
    </clipPath>
    <path class="st11" d="M194.8 137.7l-10.2-3C184.6 134.7 186.7 141.6 194.8 137.7"/>
  </g>
  <path class="st12" d="M184.1 133.3c0 1.9 1.5 3.4 3.4 3.4s3.4-1.5 3.4-3.4c0-1.9-1.5-3.4-3.4-3.4S184.1 131.5 184.1 133.3"/>
  <path class="st4" d="M184.8 133.8c0 0.7 0.6 1.3 1.3 1.3 0.7 0 1.3-0.6 1.3-1.3s-0.6-1.3-1.3-1.3C185.4 132.4 184.8 133 184.8 133.8"/>
  <path class="st12" d="M163 133.3c0 1.9 1.5 3.4 3.4 3.4s3.4-1.5 3.4-3.4c0-1.9-1.5-3.4-3.4-3.4S163 131.5 163 133.3"/>
  <path class="st4" d="M163.7 133.8c0 0.7 0.6 1.3 1.3 1.3 0.7 0 1.3-0.6 1.3-1.3s-0.6-1.3-1.3-1.3C164.3 132.4 163.7 133 163.7 133.8"/>
  <path class="st12" d="M176.6 147.2c0 0.2 0.2 0.4 0.4 0.4s0.4-0.2 0.4-0.4c0-0.2-0.2-0.4-0.4-0.4S176.6 146.9 176.6 147.2"/>
  <path class="st12" d="M172 147.2c0 0.2 0.2 0.4 0.4 0.4 0.2 0 0.4-0.2 0.4-0.4 0-0.2-0.2-0.4-0.4-0.4C172.2 146.7 172 146.9 172 147.2"/>
  <g class="st5">
    <defs>
      <rect id="SVGID_15_" x="148.5" y="110.4" width="84.9" height="85.2"/>
    </defs>
    <clipPath id="SVGID_16_">
      <use xlink:href="#SVGID_15_" overflow="visible"/>
    </clipPath>
    <path class="st18" d="M213 116.1c0 0 27.5 76.2-62.7 56.9l-1.9 22.5h84.9l-3.2-74.2 -2.2-11L213 116.1z"/>
  </g>
  <path class="st12" d="M133.3 92.1c9.8 7.2 22.2 9.1 24.8 9.4 1.8-11.2 11.6-19.8 23.3-19.8 0.3 0 0.6 0 0.8 0 15.7-0.7 34 5 34 5 8.4 2.9 13.1-4.7 13.1-4.7 0 4.9-1.7 8.9-1.7 8.9 7.4-3.9 14 1.3 14 1.3 -0.1 0-0.2 0.1-0.3 0.1 -0.3 0-0.6 0-0.9 0 -4.5 0-8.1 3.6-8.1 8.1s3.6 8.1 8.1 8.1c0.6 0 1.1-0.1 1.6-0.2 -2.2 3.4-5 5.4-5 5.4 1 19.4-7.3 26.9-7.3 26.9 0-15.2-8-24.4-8-24.4C119.1 148.4 133.3 92.1 133.3 92.1"/>
  <path class="st19" d="M181.4 153c0 4-3.3 7.3-7.3 7.3 -4 0-7.3-3.3-7.3-7.3"/>
  <rect x="148.5" y="195.2" class="st14" width="60.1" height="36.4"/>
  <rect x="196.8" y="493.6" transform="matrix(-1 4.327673e-03 -4.327673e-03 -1 417.1151 1032.0925)" class="st10" width="21.2" height="45.7"/>
  <path class="st17" d="M196.7 532.5v-0.2l21.3-0.1 0.1 18.6 -21.2 0.1 -16 0.1C180.9 541.5 187.7 533.8 196.7 532.5"/>
  <rect x="189.1" y="432.6" transform="matrix(-1 -2.281338e-03 2.281338e-03 -1 413.9903 931.4371)" class="st20" width="36.8" height="65.7"/>
  <path class="st20" d="M226 432.6c0 10.2-8.3 18.5-18.5 18.5 -10.2 0-18.5-8.3-18.5-18.5 0-10.2 8.3-18.5 18.5-18.5C217.7 414.1 226 422.4 226 432.6"/>
</svg>