<svg xmlns="http://www.w3.org/2000/svg" xmlns:xlink="http://www.w3.org/1999/xlink" version="1.1" class="dome__svg" x="0" y="0" width="704" height="704" viewBox="0 0 704 704" xml:space="preserve" enable-background="new 0 0 704 704">
  <style type="text/css">

	.dome__svg .st0{fill:#F2F2F2;}
	.dome__svg .st1{fill:url(#SVGID_1_);}
	.dome__svg .st2{fill:#FF573B;}
	.dome__svg .st3{fill:#FFFFFF;}
	.dome__svg .st4{fill:none;}
	.dome__svg .st5{fill:#0F2D38;}

  </style>
  <circle class="st5" cx="352.5" cy="352" r="252"/>
  <path class="st3" d="M391.3 619.6c12-19.9 30.2-36.2 53.3-45.8 22.9-9.5 47.2-10.9 69.6-5.6 -2.6-14.6 1.8-30.2 13.1-41.4 11.4-11.4 27.2-15.7 41.9-13 -5.6-22.5-4.3-47 5.3-70.1 9.5-22.9 25.6-41.1 45.3-53.1 -12.1-8.5-20.1-22.6-20.1-38.5 0-16.1 8.1-30.3 20.4-38.8 -19.9-12-36.2-30.2-45.8-53.3 -9.5-22.9-10.9-47.2-5.6-69.6 -14.6 2.6-30.2-1.8-41.4-13.1 -11.4-11.4-15.7-27.2-13-41.9 -22.5 5.6-47 4.3-70.1-5.3 -22.9-9.5-41.1-25.6-53.1-45.3 -1.5 2.2-3.3 4.3-5.3 6.3 -18.4 18.4-48.2 18.4-66.6 0 -2.1-2.1-3.9-4.3-5.5-6.7 -12 19.9-30.2 36.2-53.3 45.8 -22.9 9.5-47.2 10.9-69.6 5.6 2.6 14.6-1.8 30.2-13.1 41.4 -11.4 11.4-27.2 15.7-41.9 13 5.6 22.6 4.3 47-5.3 70.1 -9.5 22.9-25.6 41.1-45.3 53.1 12.1 8.5 20.1 22.6 20.1 38.5 0 16.1-8.1 30.3-20.4 38.8 19.9 12 36.2 30.2 45.8 53.3 9.5 22.9 10.9 47.2 5.6 69.6 14.6-2.6 30.2 1.8 41.4 13.1 11.4 11.4 15.7 27.2 13 41.9 22.5-5.6 47-4.3 70.1 5.3 22.9 9.5 41.1 25.6 53.1 45.3 8.5-12.1 22.6-20.1 38.5-20.1C368.6 599.2 382.8 607.3 391.3 619.6z"/>
  <path class="st3" d="M314 619.2c-12.1-19.6-30.2-35.8-53.1-45.3 -23.1-9.5-47.6-10.9-70.1-5.3 2.7-14.7-1.6-30.5-13-41.9 -11.3-11.3-26.8-15.6-41.4-13.1 5.4-22.4 4-46.7-5.6-69.6 -9.6-23.1-26-41.3-45.8-53.3 12.3-8.5 20.4-22.7 20.4-38.8 0-15.9-7.9-30-20.1-38.5 19.6-12.1 35.8-30.2 45.3-53.1 9.5-23.1 10.9-47.6 5.3-70.1 14.7 2.7 30.5-1.6 41.9-13 11.3-11.3 15.6-26.8 13.1-41.4 22.4 5.4 46.7 4 69.6-5.6 23.1-9.6 41.3-26 53.3-45.8 1.6 2.3 3.4 4.6 5.5 6.7 18.4 18.4 48.2 18.4 66.6 0 2-2 3.7-4.1 5.3-6.3 12.1 19.6 30.2 35.8 53.1 45.3 23.1 9.5 47.6 10.9 70.1 5.3 -2.7 14.7 1.6 30.5 13 41.9 11.3 11.3 26.8 15.6 41.4 13.1 -5.4 22.4-4 46.7 5.6 69.6 9.6 23.1 26 41.3 45.8 53.3 -12.3 8.5-20.4 22.7-20.4 38.8 0 15.9 7.9 30 20.1 38.5 -19.6 12.1-35.8 30.2-45.3 53.1 -9.5 23.1-10.9 47.6-5.3 70.1 -14.7-2.7-30.5 1.6-41.9 13 -11.3 11.3-15.6 26.8-13.1 41.4 -22.4-5.4-46.7-4-69.6 5.6 -23.1 9.6-41.3 26-53.3 45.8 -8.5-12.3-22.7-20.4-38.8-20.4C336.6 599.2 322.5 607.1 314 619.2z"/>
  <path class="st0" d="M135.8 190.2c5.6 22.6 4.3 47-5.3 70.1 -9.5 22.9-25.6 41.1-45.3 53.1 12.1 8.5 20.1 22.6 20.1 38.5 0 16.1-8.1 30.3-20.4 38.8 19.9 12 36.2 30.2 45.8 53.3 9.5 22.9 10.9 47.2 5.6 69.6 14.6-2.6 30.2 1.8 41.4 13.1 11.4 11.4 15.7 27.2 13 41.9 22.5-5.6 47-4.3 70.1 5.3 22.9 9.5 41.1 25.6 53.1 45.3 8.5-12.1 22.6-20.1 38.5-20.1 16.1 0 30.3 8.1 38.8 20.4 12-19.9 30.2-36.2 53.3-45.8 22.9-9.5 47.2-10.9 69.6-5.6 -2.6-14.6 1.8-30.2 13.1-41.4 10.5-10.5 24.7-15 38.4-13.5C565.7 513.3 150.5 192.9 135.8 190.2z"/>
  <rect x="322" y="40.4" transform="matrix(0.8993 0.4374 -0.4374 0.8993 80.2488 -130.0532)" class="st5" width="1" height="137.5"/>
  <rect x="313.8" y="108.7" transform="matrix(0.4368 0.8996 -0.8996 0.4368 313.6655 -282.6192)" class="st5" width="137.5" height="1"/>
  <polygon class="st2" points="348.7 208 348.7 101.2 351.8 46 353.2 46 356.3 101.2 356.3 208 "/>
  <rect x="502.5" y="90.3" transform="matrix(0.3279 0.9447 -0.9447 0.3279 488.3016 -368.2358)" class="st5" width="1" height="137.5"/>
  <rect x="544.9" y="132.8" transform="matrix(0.9447 0.3279 -0.3279 0.9447 96.249 -167.7114)" class="st5" width="1" height="137.5"/>
  <polygon class="st2" points="451.7 247.5 527.2 172 568.4 135.1 569.4 136.1 532.5 177.3 457 252.8 "/>
  <rect x="526.5" y="321.5" transform="matrix(0.8996 0.4368 -0.4368 0.8996 200.4374 -227.6995)" class="st5" width="137.5" height="1"/>
  <rect x="594.8" y="313.3" transform="matrix(0.437 0.8994 -0.8994 0.437 678.7563 -320.3729)" class="st5" width="1" height="137.5"/>
  <polygon class="st2" points="496.5 348.2 603.3 348.2 658.5 351.3 658.5 352.7 603.3 355.8 496.5 355.8 "/>
  <rect x="476.7" y="502" transform="matrix(0.3272 0.945 -0.945 0.3272 841.761 -177.3555)" class="st5" width="137.5" height="1"/>
  <rect x="434.2" y="544.4" transform="matrix(0.945 0.3272 -0.3272 0.945 205.9916 -134.5718)" class="st5" width="137.5" height="1"/>
  <polygon class="st2" points="457 451.2 532.5 526.7 569.4 567.9 568.4 568.9 527.2 532 451.7 456.5 "/>
  <rect x="382" y="526" transform="matrix(0.8994 0.437 -0.437 0.8994 298.4212 -107.37)" class="st5" width="1" height="137.5"/>
  <rect x="253.7" y="594.3" transform="matrix(0.4368 0.8996 -0.8996 0.4368 716.6661 44.9185)" class="st5" width="137.5" height="1"/>
  <polygon class="st2" points="356.3 496 356.3 602.8 353.2 658 351.8 658 348.7 602.8 348.7 496 "/>
  <rect x="201.5" y="476.2" transform="matrix(0.327 0.945 -0.945 0.327 650.9308 175.7781)" class="st5" width="1" height="137.5"/>
  <rect x="159.1" y="433.7" transform="matrix(0.9447 0.3279 -0.3279 0.9447 173.5836 -24.5425)" class="st5" width="1" height="137.5"/>
  <polygon class="st2" points="253.3 456.5 177.8 532 136.6 568.9 135.6 567.9 172.5 526.7 248 451.1 "/>
  <rect x="40.9" y="381.5" transform="matrix(0.8995 0.4368 -0.4368 0.8995 177.899 -9.5395)" class="st5" width="137.5" height="1"/>
  <rect x="109.2" y="253.2" transform="matrix(0.4362 0.8998 -0.8998 0.4362 351.5463 82.8021)" class="st5" width="1" height="137.5"/>
  <polygon class="st2" points="208.5 355.8 101.7 355.8 46.5 352.7 46.5 351.3 101.7 348.2 208.5 348.2 "/>
  <rect x="90.8" y="201" transform="matrix(0.3272 0.945 -0.945 0.3272 297.8101 -15.1868)" class="st5" width="137.5" height="1"/>
  <rect x="133.3" y="158.6" transform="matrix(0.945 0.3272 -0.3272 0.945 63.1694 -57.3551)" class="st5" width="137.5" height="1"/>
  <polygon class="st2" points="248 252.8 172.5 177.3 135.6 136.1 136.6 135.1 177.8 172 253.3 247.5 "/>
  <g class="dome__run">
    <circle class="st4" cx="696.7" cy="390.8" r="4.5"/>
    <linearGradient id="SVGID_1_" gradientUnits="userSpaceOnUse" x1="9.64" y1="388.47" x2="7.64" y2="315.14" gradientTransform="matrix(0.9863 0.165 -0.165 0.9863 58.603 2.3296)">
      <stop offset="0" style="stop-color:#FFFFFF;stop-opacity:0"/>
      <stop offset="0.96" stop-color="#FFFFFF"/>
    </linearGradient>
    <path class="st1" d="M3.1 396.4c-1.8-24.3-0.9-49 2.5-73.3 0.4-3 0.9-6 1.4-9l6.9 1.2c-0.5 2.9-0.9 5.9-1.4 8.8 -2.5 18-3.6 36.2-3.3 54.3 0.1 5.9 0.4 11.7 0.8 17.5l-2.6-8.7L3.1 396.4z"/>
    <circle cx="10.5" cy="313.1" r="4.5"/>
  </g>
</svg>