<svg xmlns="http://www.w3.org/2000/svg" xmlns:xlink="http://www.w3.org/1999/xlink" version="1.1" class="dome__svg" x="0" y="0" viewBox="0 0 672 220" xml:space="preserve" enable-background="new 0 0 672 220">
  <style type="text/css">

    .dome__svg .st0{fill:#BF412C;}
    .dome__svg .st1{fill:#FF573B;}
    .dome__svg .st2{fill:#FFFFFF;}
    .dome__svg .st3{fill:#0F2D38;}

  </style>
  <rect x="75" y="34" transform="matrix(0.9394 0.3428 -0.3428 0.9394 44.51 -18.8071)" class="st3" width="1" height="165.1"/>
  <rect x="206.2" y="11.5" transform="matrix(0.9828 0.1846 -0.1846 0.9828 17.3294 -36.8785)" class="st3" width="1" height="126.2"/>
  <rect x="187.1" y="6.3" transform="matrix(0.9138 0.4061 -0.4061 0.9138 48.4697 -69.3373)" class="st3" width="1" height="146.5"/>
  <rect x="396.4" y="72.7" transform="matrix(0.1846 0.9828 -0.9828 0.1846 446.6051 -391.9051)" class="st3" width="126.2" height="1"/>
  <rect x="405.3" y="77.6" transform="matrix(0.4066 0.9136 -0.9136 0.4066 355.3604 -390.8644)" class="st3" width="146.5" height="1"/>
  <rect x="508.1" y="114.6" transform="matrix(0.3428 0.9394 -0.9394 0.3428 496.304 -479.2545)" class="st3" width="165.1" height="1"/>
  <rect x="482.8" y="103.1" transform="matrix(0.2811 0.9597 -0.9597 0.2811 501.2174 -461.9074)" class="st3" width="152.3" height="1"/>
  <polygon class="st1" points="430.9 127.7 438.1 64.1 447.4 9.6 448.9 9.8 445.6 65 438.4 128.5 "/>
  <polygon class="st1" points="506.1 143.2 521.2 81.1 537.2 28.2 538.6 28.5 528.6 82.9 513.4 145 "/>
  <polygon class="st1" points="527.3 148.9 544.8 87.3 562.7 35.1 564.1 35.5 552 89.4 534.6 151 "/>
  <rect x="106.7" y="28.8" transform="matrix(0.9597 0.2812 -0.2812 0.9597 33.8487 -25.9186)" class="st3" width="1" height="152.3"/>
  <polygon class="st1" points="235.3 129.1 228 65.5 218.7 11.1 217.3 11.2 220.5 66.4 227.8 130 "/>
  <polygon class="st1" points="160.1 144.7 144.9 82.5 128.9 29.6 127.5 29.9 137.6 84.3 152.7 146.5 "/>
  <polygon class="st0" points="185.3 181.7 172.1 119.1 157.8 65.7 156.4 66 164.7 120.6 177.9 183.3 "/>
  <polygon class="st0" points="290.2 170.4 285.6 106.6 278.6 51.8 277.1 51.9 278 107.1 282.6 170.9 "/>
  <polygon class="st0" points="376.1 170.4 380.7 106.6 387.7 51.8 389.2 51.9 388.3 107.1 383.7 170.9 "/>
  <polygon class="st0" points="477.3 176.8 490.4 114.1 504.7 60.8 506.2 61 497.8 115.7 484.7 178.3 "/>
  <polygon class="st1" points="138.8 150.3 121.4 88.8 103.4 36.5 102 36.9 114.1 90.8 131.6 152.4 "/>
  <rect x="305.5" y="-4.3" transform="matrix(0.8996 0.4366 -0.4366 0.8996 58.8435 -127.1262)" class="st3" width="1" height="137.5"/>
  <rect x="297.3" y="63.9" transform="matrix(0.4368 0.8996 -0.8996 0.4368 264.1171 -292.9774)" class="st3" width="137.5" height="1"/>
  <polygon class="st1" points="332.2 120.4 332.2 56.4 335.3 1.2 336.7 1.2 339.8 56.4 339.8 120.4 "/>
  <path class="st2" d="M1 217.6c84.6-59.9 203.1-97.2 334.4-97.2 131.9 0 250.9 37.6 335.5 98"/>
  <path class="st3" d="M173.6 218.8c-12.3-11.1-28.7-17.9-46.6-17.9s-34.2 6.8-46.6 17.9H173.6z"/>
  <path class="st3" d="M312.9 218.8c-12.3-11.1-28.7-17.9-46.6-17.9s-34.2 6.8-46.6 17.9H312.9z"/>
  <path class="st3" d="M452.2 218.8c-12.3-11.1-28.7-17.9-46.6-17.9s-34.2 6.8-46.6 17.9H452.2z"/>
  <path class="st3" d="M591.6 218.8c-12.3-11.1-28.7-17.9-46.6-17.9s-34.2 6.8-46.6 17.9H591.6z"/>
  <path class="st3" d="M182.2 218.2c0-7.5 6-13.5 13.5-13.5s13.5 6 13.5 13.5H182.2z"/>
  <path class="st3" d="M322.5 218.2c0-7.5 6-13.5 13.5-13.5 7.5 0 13.5 6 13.5 13.5H322.5z"/>
  <path class="st3" d="M461.2 218.2c0-7.5 6-13.5 13.5-13.5s13.5 6 13.5 13.5H461.2z"/>
</svg>