<svg xmlns="http://www.w3.org/2000/svg" xmlns:xlink="http://www.w3.org/1999/xlink" version="1.1" class="heels" x="0" y="0" width="299" height="604" viewBox="0 0 299 604" xml:space="preserve">
  <path style="fill:#F2CFB8;" d="M265.9 267.3c7.1 7.2 18.7 7.4 26 0.3s7.4-18.7 0.2-26c-7.1-7.2-18.7-7.4-26-0.3C258.9 248.4 258.8 260.1 265.9 267.3"/>
  <path style="fill:#F2CFB8;" d="M287.3 279c-5.6 8-12.6 15-21 20.5 -36 23.9-84.7 14.1-108.7-21.8l31.2-20.8c12.5 18.8 37.9 23.9 56.7 11.4 7.4-4.9 12.9-11.9 15.8-20.2l35.3 12.6C294.3 267.3 291.2 273.4 287.3 279"/>
  <defs>
    <path id="SVGID_1_" d="M93.6 192L73.4 360.9c-1.7 7.1-2.6 14.3-2.6 21.9 0 52 42.1 94 94.1 94 52 0 94.1-42 94.1-94 0-7.6-0.9-14.8-2.6-21.9L236.3 192H93.6z"/>
  </defs>
  <clipPath id="SVGID_2_">
    <use xlink:href="#SVGID_1_"/>
  </clipPath>
  <path style="clip-path:url(#SVGID_2_);fill:#1D5970;" d="M259.1 382.5c0-7.6-0.9-14.6-2.6-21.7L236.3 192H93.6L73.4 360.9c-1.7 7.1-2.6 14.3-2.6 21.9"/>
  <rect x="177.9" y="233" style="clip-path:url(#SVGID_2_);fill:#FFFFFF;" width="71" height="85"/>
  <path style="clip-path:url(#SVGID_2_);" d="M214.2 261.7c0 17.1-12.7 15.6-12.7 31.2v1h13v8.2h-21.6v-8.3c0-20.5 12.7-18.5 12.7-31.9v-6.6c0-1.4-0.7-2.3-2.2-2.3 -1.5 0-2.2 1-2.2 2.3v6.7h-8.5v-6.7c0-5.9 2.2-10.1 10.7-10.1 8.5 0 10.9 4.2 10.9 10.1V261.7z"/>
  <path style="clip-path:url(#SVGID_2_);" d="M231.3 255.2c0-1.4-0.7-2.3-2.2-2.3s-2.2 1-2.2 2.3v6.7h-8.5v-6.7c0-5.8 2.2-10.1 10.7-10.1 8.5 0 10.7 4.2 10.7 10.1v11.9c0 3.1-1.1 5.1-3.8 6.4 2.4 1.2 3.9 3.4 3.9 6.4v12.8c0 5.8-2.4 10.1-10.9 10.1 -8.5 0-10.7-4.2-10.7-10.1v-7.5h8.5v7.4c0 1.7 0.7 2.5 2.2 2.5s2.2-0.7 2.2-2.4v-13.1c0-1.1-0.6-1.8-1.8-1.8h-3.4v-8h3.4c1.3 0 1.8-0.6 1.8-1.8V255.2z"/>
  <path style="fill:#F2CFB8;" d="M227.1 87.1c0-35.7-28.9-64.7-64.6-64.7 -35.7 0-64.6 29-64.6 64.7L93.4 192H236L227.1 87.1z"/>
  <defs>
    <path id="SVGID_3_" d="M97.8 87.1L93.4 192H236l-8.9-104.9c0-35.7-28.9-64.7-64.6-64.7C126.8 22.4 97.8 51.4 97.8 87.1"/>
  </defs>
  <clipPath id="SVGID_4_">
    <use xlink:href="#SVGID_3_"/>
  </clipPath>
  <g style="opacity:0.2;clip-path:url(#SVGID_4_);">
    <defs>
      <rect id="SVGID_5_" x="216.1" y="102.7" width="26.7" height="26.7"/>
    </defs>
    <clipPath id="SVGID_6_">
      <use xlink:href="#SVGID_5_"/>
    </clipPath>
    <path style="clip-path:url(#SVGID_6_);fill:#FFA3A3;" d="M242.8 116c0 7.4-6 13.4-13.4 13.4 -7.4 0-13.4-6-13.4-13.4 0-7.4 6-13.4 13.4-13.4C236.9 102.7 242.8 108.7 242.8 116"/>
  </g>
  <g style="opacity:0.2;">
    <defs>
      <rect id="SVGID_7_" x="130.6" y="102.7" width="26.7" height="26.7"/>
    </defs>
    <clipPath id="SVGID_8_">
      <use xlink:href="#SVGID_7_"/>
    </clipPath>
    <path style="clip-path:url(#SVGID_8_);fill:#FFA3A3;" d="M157.3 116c0 7.4-6 13.4-13.4 13.4 -7.4 0-13.4-6-13.4-13.4 0-7.4 6-13.4 13.4-13.4C151.4 102.7 157.3 108.7 157.3 116"/>
  </g>
  <g style="opacity:0.5;">
    <defs>
      <rect id="SVGID_9_" x="201.1" y="90.5" width="16.9" height="7.8"/>
    </defs>
    <clipPath id="SVGID_10_">
      <use xlink:href="#SVGID_9_"/>
    </clipPath>
    <path style="clip-path:url(#SVGID_10_);fill:#B69B8A;" d="M201.1 90.5l16.9 5.7C218 96.2 208.5 103.6 201.1 90.5"/>
  </g>
  <g style="opacity:0.5;">
    <defs>
      <rect id="SVGID_11_" x="158.3" y="90.8" width="17.1" height="7.1"/>
    </defs>
    <clipPath id="SVGID_12_">
      <use xlink:href="#SVGID_11_"/>
    </clipPath>
    <path style="clip-path:url(#SVGID_12_);fill:#B69B8A;" d="M158.3 95.9l17.1-5.1C175.4 90.8 171.9 102.4 158.3 95.9"/>
  </g>
  <path d="M181.4 118c-0.6 0-1.2 0.2-1.8 0.3 -6.5 0.9-11.6 6.6-11.6 13.3 0 7.4 6 13.4 13.4 13.4h13.4l6.3-27H181.4z"/>
  <g id="tounge">
    <path style="fill:#FF6666;" d="M172.9 143l-10.9 5.3c-9.6 3.9-6.9-5-6.9-5 4.5-8.3 13.7-6.6 13.7-6.6s8 0.3 12.2 6.3H172.9z"/>
    <defs>
      <path id="SVGID_13_" d="M172.9 143l-10.9 5.3c-9.6 3.9-6.9-5-6.9-5 4.5-8.3 13.7-6.6 13.7-6.6s8 0.3 12.2 6.3H172.9z"/>
    </defs>
    <clipPath id="SVGID_14_">
      <use xlink:href="#SVGID_13_"/>
    </clipPath>
    <path style="opacity:0.5;clip-path:url(#SVGID_14_);fill:#BF4D4D;" d="M158.7 144.1c0-1.7 10.7-9.5 16.3-6.5C175 137.5 158.7 141.2 158.7 144.1"/>
  </g>
  <defs>
    <path id="SVGID_15_" d="M181.4 118c-0.6 0-1.2 0.2-1.8 0.3 -6.5 0.9-11.6 6.6-11.6 13.3 0 7.4 6 13.4 13.4 13.4h13.4l6.3-27H181.4z"/>
  </defs>
  <clipPath id="SVGID_16_">
    <use xlink:href="#SVGID_15_"/>
  </clipPath>
  <rect x="163.9" y="118" class="st19" style="clip-path:url(#SVGID_16_);fill:#FFFFFF;" width="44" height="3"/>
  <rect x="166.9" y="143" class="st19" style="clip-path:url(#SVGID_16_);fill:#FFFFFF;" width="30" height="11"/>
  <path d="M176.3 88.6c0 3.2-2.6 5.8-5.8 5.8 -3.2 0-5.8-2.6-5.8-5.8 0-3.2 2.6-5.8 5.8-5.8C173.7 82.8 176.3 85.4 176.3 88.6"/>
  <path d="M211.7 88.6c0 3.2-2.6 5.8-5.8 5.8 -3.2 0-5.8-2.6-5.8-5.8 0-3.2 2.6-5.8 5.8-5.8C209.1 82.8 211.7 85.4 211.7 88.6"/>
  <path d="M188.9 111.8c0 0.4-0.3 0.7-0.7 0.7 -0.4 0-0.7-0.3-0.7-0.7 0-0.4 0.3-0.7 0.7-0.7C188.5 111 188.9 111.4 188.9 111.8"/>
  <path d="M196.5 111.8c0 0.4-0.3 0.7-0.7 0.7 -0.4 0-0.7-0.3-0.7-0.7 0-0.4 0.3-0.7 0.7-0.7C196.1 111 196.5 111.4 196.5 111.8"/>
  <g style="opacity:0.4;">
    <defs>
      <rect id="SVGID_17_" x="93.4" y="49.7" width="142.6" height="142.3"/>
    </defs>
    <clipPath id="SVGID_18_">
      <use xlink:href="#SVGID_17_"/>
    </clipPath>
    <path style="clip-path:url(#SVGID_18_);fill:#B69B8A;" d="M127.7 59.7c0 0-46.3 127.4 105.2 95.1L236 192H93.4l5.3-124.1 3.7-18.2L127.7 59.7z"/>
  </g>
  <path style="fill:#0A1D25;" d="M258.2 382c0 49-41.8 93.3-93.3 93.3 -51.5 0-93.3-44.3-93.3-93.3H258.2z"/>
  <path d="M261.6 19.3c-16.5 12.1-37.3 15.3-41.7 15.9 -3.1-18.9-19.4-33.3-39.2-33.3 -0.5 0-0.9 0.1-1.4 0.1 -26.3-1.2-57.1 8.4-57.1 8.4 -14.2 4.8-22-7.8-22-7.8 0 8.2 2.8 15 2.8 15 -12.4-6.6-23.5 2.1-23.5 2.1 0.2 0.1 0.4 0.1 0.6 0.2 0.5-0.1 1-0.1 1.5-0.1 7.5 0 13.5 6.1 13.5 13.5 0 7.5-6.1 13.5-13.5 13.5 -0.9 0-1.8-0.1-2.7-0.3 3.7 5.8 8.4 9 8.4 9 -1.7 32.5 12.3 45.2 12.3 45.2 0-25.6 13.4-41 13.4-41C285.3 113.8 261.6 19.3 261.6 19.3"/>
  <path style="fill:#F2CFB8;" d="M100.2 578.7c2.5 9.6-16.5 1.4-19.1-20.3 -1.2-9.9-15.4-12.3-13-21.9 2.5-9.6 37.1 0.1 34.7 9.7C98.8 562 97.3 567.8 100.2 578.7"/>
  <rect x="75.8" y="470.6" transform="matrix(0.9688 0.2479 -0.2479 0.9688 129.1387 -7.3539)" style="fill:#F2CFB8;" width="36" height="77"/>
  <rect x="76.9" y="410.2" transform="matrix(0.9688 0.2479 -0.2479 0.9688 114.0925 -13.825)" style="fill:#0A1D25;" width="70" height="72"/>
  <path style="fill:#FF573B;" d="M86.3 601.3c-5.1-1.3-5.5-3.9-6.7-9.6 -1.3-6.6-5.3-30.8-12.9-29.8 -2.1 0.3-2.4 2.8-3 5.3 -1.1 4.3-6.4 26.1-6.7 26.3 0 0-2.9-0.5-3-0.9 3.3-16.6 5.1-26.8 3.6-44.3 0.4-6.4 6.3-10.8 11-14.1 1.3-1 2.5 1.6 3.5 3.4 3.7 6.3 11.5 20 14 25.9 2.2 5.2 4.9 15.1 10.2 16.5 5.7 1.5 6.2 1.1 8.6 2.3 3 1.6 8.8 4.5 11.2 6.4 5 4.1 1.2 8.8-0.8 11.6C112.4 604.7 90.5 602.3 86.3 601.3"/>
  <path style="fill:#F2CFB8;" d="M260.4 571.4c6.3 7.7-14.5 8.1-25.7-10.6 -5.1-8.5-19.1-4.8-20.9-14.6 -1.7-9.8 33.9-15.2 35.6-5.5C252.3 556.8 253.3 562.7 260.4 571.4"/>
  <rect x="207.8" y="472.2" transform="matrix(0.9846 -0.1747 0.1747 0.9846 -85.7625 47.3136)" style="fill:#F2CFB8;" width="36" height="77"/>
  <path style="fill:#FF573B;" d="M257.1 597.7c-5.1 0.9-6.6-1.2-10-6 -4-5.5-17.5-25.8-24.1-21.8 -1.8 1.1-1 3.5-0.5 6.1 0.8 4.4 5 26.4 4.8 26.8 0 0-2.9 0.7-3.1 0.4 -3.8-16.5-6.5-26.5-15.1-41.8 -2.3-6 1.3-12.4 4.2-17.4 0.8-1.4 2.9 0.4 4.6 1.6 6 4.2 18.7 13.5 23.5 17.8 4.2 3.8 10.7 11.8 16.1 10.9 5.8-1 6.1-1.6 8.8-1.4 3.4 0.2 9.9 0.4 12.9 1.2 6.3 1.6 4.7 7.5 4 10.9C282.3 590 261.4 596.9 257.1 597.7"/>
  <rect x="178.3" y="410" transform="matrix(0.9846 -0.1748 0.1748 0.9846 -74.6266 44.4929)" style="fill:#0A1D25;" width="74" height="72"/>
  <path style="fill:#F2CFB8;" d="M178.4 331.1c-1.9 10 4.6 19.6 14.6 21.5 10 1.9 19.6-4.6 21.5-14.6s-4.6-19.6-14.6-21.5C189.9 314.6 180.3 321.2 178.4 331.1"/>
  <path style="fill:#F2CFB8;" d="M180.9 355.4c-9.8 0-19.5-1.9-28.8-5.6 -40.2-15.9-59.9-61.6-44-101.7l34.8 13.8c-8.3 21 2 44.8 22.9 53.1 8.3 3.3 17.1 3.8 25.7 1.5l9.7 36.2C194.6 354.5 187.8 355.4 180.9 355.4"/>
  <g class="heels__eyes">
    <path style="fill:#FFFFFF;" d="M210.5 89.3c0 1.2-1 2.3-2.3 2.3 -1.3 0-2.3-1-2.3-2.3 0-1.3 1-2.3 2.3-2.3C209.4 87 210.5 88.1 210.5 89.3"/>
    <path style="fill:#FFFFFF;" d="M175 89.3c0 1.2-1 2.3-2.3 2.3 -1.2 0-2.3-1-2.3-2.3 0-1.3 1-2.3 2.3-2.3C174 87 175 88.1 175 89.3"/>
  </g>
  <g class="heels__tears">
    <path style="fill:#7DADBF;" d="M46.9 62.1c-1.3-1.2-3-1.9-4.9-1.9 -4.2-0.1-7.7 3.2-7.8 7.4 -0.1 4.2 3.2 7.7 7.4 7.8 2.1 0 4-0.8 5.4-2.1l9.3-5.2L46.9 62.1z"/>
    <path style="fill:#7DADBF;" d="M9.5 101.5c-1.7-0.2-3.6 0.2-5.1 1.3 -3.5 2.4-4.4 7.1-2 10.6 2.4 3.5 7.1 4.4 10.6 2 1.7-1.2 2.8-2.9 3.2-4.8l4.6-9.6L9.5 101.5z"/>
  </g>
</svg>