<svg xmlns="http://www.w3.org/2000/svg" xmlns:xlink="http://www.w3.org/1999/xlink" version="1.1" class="kong__svg" x="0" y="0" viewBox="0 0 464 940" xml:space="preserve" enable-background="new 0 0 464 940">
  <style type="text/css">

	.st0{fill:#1D5970;}
	.st1{fill:none;stroke:#277695;stroke-width:6;stroke-miterlimit:10;}
	.st2{fill:none;stroke:#BF412C;stroke-miterlimit:10;}
	.st3{fill:#277695;}
	.st4{fill:#FF573B;}
	.st5{fill:#FFFFFF;}
	.st6{fill:none;stroke:#FF573B;stroke-width:43;stroke-miterlimit:10;}

  </style>
  <g class="Building">
    <path class="st3" d="M189.8 310.4h-80.1V174.9c0-22.1 18-40.1 40.1-40.1 22.1 0 40.1 18 40.1 40.1V310.4zM115.7 304.4h68.1V174.9c0-18.8-15.3-34.1-34.1-34.1 -18.8 0-34.1 15.3-34.1 34.1V304.4z"/>
    <path class="st0" d="M149.8 137.9c-20.5 0-37.1 16.6-37.1 37.1v132.5h74.1V174.9C186.8 154.5 170.2 137.9 149.8 137.9"/>
    <path class="st0" d="M149.8 212.5c-45.9 0-83.1 37.2-83.1 83.1v296.9h166.1V295.6C232.8 249.7 195.6 212.5 149.8 212.5"/>
    <path class="st3" d="M235.8 595.5H63.7V295.6c0-47.5 38.6-86.1 86.1-86.1 47.5 0 86.1 38.6 86.1 86.1V595.5zM69.7 589.5h160.1V295.6c0-44.1-35.9-80.1-80.1-80.1 -44.1 0-80.1 35.9-80.1 80.1V589.5z"/>
    <path class="st0" d="M149.8 212.5c-45.9 0-83.1 37.2-83.1 83.1v296.9h166.1V295.6C232.8 249.7 195.6 212.5 149.8 212.5"/>
    <path class="st1" d="M149.8 212.5c-45.9 0-83.1 37.2-83.1 83.1v296.9h166.1V295.6C232.8 249.7 195.6 212.5 149.8 212.5z"/>
    <polygon class="st0" points="33.8 488.9 3.6 519.1 3.6 935.4 37 935.4 "/>
    <polygon class="st1" points="33.8 488.9 3.6 519.1 3.6 935.4 37 935.4 "/>
    <polygon class="st0" points="263 488.9 293.2 519.1 293.2 935.4 259.8 935.4 "/>
    <polygon class="st1" points="263 488.9 293.2 519.1 293.2 935.4 259.8 935.4 "/>
    <path class="st0" d="M149.8 282.6c-59.1 0-107.1 47.9-107.1 107.1v382.7h214.1V389.7C256.8 330.6 208.9 282.6 149.8 282.6"/>
    <path class="st1" d="M149.8 282.6c-59.1 0-107.1 47.9-107.1 107.1v382.7h214.1V389.7C256.8 330.6 208.9 282.6 149.8 282.6z"/>
    <path class="st0" d="M149.8 381.5c-66.9 0-121.1 54.2-121.1 121.1v432.8h242.1V502.6C270.8 435.7 216.6 381.5 149.8 381.5"/>
    <path class="st1" d="M149.8 381.5c-66.9 0-121.1 54.2-121.1 121.1v432.8h242.1V502.6C270.8 435.7 216.6 381.5 149.8 381.5z"/>
    <polyline class="st3" points="92.8 495 51.5 466 71.6 531.7 95.3 492.5 "/>
    <polyline class="st3" points="202.3 495 243.7 466 223.5 531.7 199.8 492.5 "/>
    <path class="st0" d="M149.8 470.4c-43.2 0-78.2 35-78.2 78.2v386.8h156.3V548.5C227.9 505.4 192.9 470.4 149.8 470.4"/>
    <path class="st1" d="M149.8 470.4c-43.2 0-78.2 35-78.2 78.2v386.8h156.3V548.5C227.9 505.4 192.9 470.4 149.8 470.4z"/>
    <path class="st0" d="M149.8 488.9c-34.2 0-61.9 27.7-61.9 61.9v384.6h123.7V550.8C211.6 516.6 183.9 488.9 149.8 488.9"/>
    <path class="st1" d="M149.8 488.9c-34.2 0-61.9 27.7-61.9 61.9v384.6h123.7V550.8C211.6 516.6 183.9 488.9 149.8 488.9z"/>
    <rect x="113.9" y="516.2" class="st3" width="22.6" height="22.6"/>
    <rect x="161.2" y="516.2" class="st3" width="22.6" height="22.6"/>
    <rect x="113.9" y="556.2" class="st3" width="22.6" height="22.6"/>
    <rect x="44.6" y="556.2" class="st3" width="10.8" height="36.3"/>
    <rect x="44.6" y="618.1" class="st3" width="10.8" height="36.3"/>
    <rect x="44.6" y="679.9" class="st3" width="10.8" height="36.3"/>
    <rect x="44.6" y="741.8" class="st3" width="10.8" height="36.3"/>
    <rect x="44.6" y="803.6" class="st3" width="10.8" height="36.3"/>
    <rect x="44.6" y="865.5" class="st3" width="10.8" height="36.3"/>
    <rect x="243.7" y="556.2" class="st3" width="10.8" height="36.3"/>
    <rect x="243.7" y="618.1" class="st3" width="10.8" height="36.3"/>
    <rect x="243.7" y="679.9" class="st3" width="10.8" height="36.3"/>
    <rect x="243.7" y="741.8" class="st3" width="10.8" height="36.3"/>
    <rect x="243.7" y="803.6" class="st3" width="10.8" height="36.3"/>
    <rect x="243.7" y="865.5" class="st3" width="10.8" height="36.3"/>
    <rect x="161.2" y="556.2" class="st3" width="22.6" height="22.6"/>
    <rect x="113.9" y="596.2" class="st3" width="22.6" height="22.6"/>
    <rect x="161.2" y="596.2" class="st3" width="22.6" height="22.6"/>
    <rect x="113.9" y="636.2" class="st3" width="22.6" height="22.6"/>
    <rect x="161.2" y="636.2" class="st3" width="22.6" height="22.6"/>
    <rect x="113.9" y="676.2" class="st3" width="22.6" height="22.6"/>
    <rect x="161.2" y="676.2" class="st3" width="22.6" height="22.6"/>
    <rect x="113.9" y="716.2" class="st3" width="22.6" height="22.6"/>
    <rect x="161.2" y="716.2" class="st3" width="22.6" height="22.6"/>
    <rect x="113.9" y="756.2" class="st3" width="22.6" height="22.6"/>
    <rect x="161.2" y="756.2" class="st3" width="22.6" height="22.6"/>
    <rect x="113.9" y="796.2" class="st3" width="22.6" height="22.6"/>
    <rect x="161.2" y="796.2" class="st3" width="22.6" height="22.6"/>
    <rect x="113.9" y="836.2" class="st3" width="22.6" height="22.6"/>
    <rect x="161.2" y="836.2" class="st3" width="22.6" height="22.6"/>
    <rect x="113.9" y="876.2" class="st3" width="22.6" height="22.6"/>
    <rect x="161.2" y="876.2" class="st3" width="22.6" height="22.6"/>
    <rect x="113.9" y="916.2" class="st3" width="22.6" height="22.6"/>
    <rect x="161.2" y="916.2" class="st3" width="22.6" height="22.6"/>
    <polygon class="st3" points="149.8 307.4 174.3 385.7 125.2 385.7 "/>
    <polyline class="st3" points="136.5 470.4 107.3 409.2 99.7 484.4 "/>
    <polyline class="st3" points="163 470.4 192.2 409.2 199.8 484.4 "/>
    <polyline class="st3" points="108.1 392.5 78.9 331.4 71.4 406.6 "/>
    <polyline class="st3" points="191.4 392.5 220.6 331.4 228.2 406.6 "/>
    <polygon class="st3" points="149.8 237.6 163.2 280.5 136.3 280.5 "/>
    <polyline class="st3" points="127 284.2 111 250.7 106.8 291.9 "/>
    <polyline class="st3" points="99.8 293.7 83.8 271.3 79.7 312.4 "/>
    <polyline class="st3" points="172.5 284.2 188.5 250.7 192.7 291.9 "/>
    <polyline class="st3" points="199.7 295 215.7 271.3 219.8 312.4 "/>
    <polygon class="st3" points="149.8 181.8 159.4 212.4 140.1 212.4 "/>
    <polyline class="st3" points="133.5 215.1 122 191.1 119.1 220.6 "/>
    <polyline class="st3" points="166 215.1 177.5 191.1 180.4 220.6 "/>
    <path class="st0" d="M149.8 155c-1.7 0-3-1.3-3-3V4.2c0-1.7 1.3-3 3-3s3 1.3 3 3V152C152.8 153.7 151.4 155 149.8 155z"/>
  </g>
  <g class="chimp">
    <g class="chimp__body">
      <path class="st5" d="M220.4 371.2c2.2 11.4-5.3 22.5-16.8 24.7 -11.4 2.2-22.5-5.3-24.7-16.8 -2.2-11.4 5.3-22.5 16.7-24.7C207.2 352.2 218.2 359.7 220.4 371.2"/>
      <path class="st4" d="M438.9 440c0 33.4-27.1 60.5-60.5 60.5 -33.4 0-60.5-27.1-60.5-60.5 0-33.4 27.1-60.5 60.5-60.5C411.8 379.5 438.9 406.6 438.9 440"/>
      <path class="st6" d="M281.1 283.8c13.9 35.1-3.3 74.9-38.4 88.9 -14.2 5.6-29.2 6.2-43 2.5"/>
      <path class="st5" d="M254.2 467.5c-8.2-8.6-21.8-8.8-30.4-0.6 -8.6 8.2-8.8 21.8-0.6 30.4 8.2 8.6 21.8 8.8 30.4 0.6C262.2 489.7 262.4 476 254.2 467.5"/>
      <path class="st4" d="M259.5 488.4l-40.3-14.9c6.7-18.3 18.9-33.6 35.3-44.2 41.6-27.1 97.4-15.3 124.5 26.3l-36 23.5c-14.1-21.7-43.3-27.8-65-13.7C269.3 470.9 263 478.9 259.5 488.4"/>
      <path class="st4" d="M463.4 322.4c0 60.7-49.2 109.9-109.9 109.9 -60.7 0-109.9-49.2-109.9-109.9 0-60.7 49.2-109.9 109.9-109.9C414.2 212.5 463.4 261.7 463.4 322.4"/>
    </g>
    <g class="chimp__head">
      <path class="st5" d="M222.9 229.9c0 8.1-6.6 14.7-14.7 14.7s-14.7-6.6-14.7-14.7c0-8.1 6.6-14.7 14.7-14.7S222.9 221.8 222.9 229.9"/>
      <path class="st5" d="M359.5 229.9c0 8.1-6.6 14.7-14.7 14.7 -8.1 0-14.7-6.6-14.7-14.7 0-8.1 6.6-14.7 14.7-14.7C352.9 215.2 359.5 221.8 359.5 229.9"/>
      <path class="st4" d="M345.1 229.9c0 37.8-30.6 68.4-68.4 68.4s-68.4-30.6-68.4-68.4c0-37.8 30.6-68.4 68.4-68.4S345.1 192.1 345.1 229.9"/>
      <path class="st2" d="M342.3 250.5c-11 36.2-49.3 56.5-85.5 45.5"/>
      <path class="st5" d="M314.7 201.4c0 8.1-6.6 14.7-14.7 14.7 -8.1 0-14.7-6.6-14.7-14.7 0-8.1 6.6-14.7 14.7-14.7C308.1 186.7 314.7 193.3 314.7 201.4"/>
      <path class="st5" d="M266.2 201.4c0 8.1-6.6 14.7-14.7 14.7 -8.1 0-14.7-6.6-14.7-14.7 0-8.1 6.6-14.7 14.7-14.7C259.6 186.7 266.2 193.3 266.2 201.4"/>
      <path class="st5" d="M321.6 238.8c0 24.8-20.1 45-45 45 -24.8 0-45-20.1-45-45 0-24.8 20.1-45 45-45C301.5 193.9 321.6 214 321.6 238.8"/>
      <path d="M245.3 224c-2.1 4.5-3.3 9.5-3.3 14.8 0 19.2 15.5 34.7 34.7 34.7s34.7-15.5 34.7-34.7c0-5.3-1.2-10.3-3.3-14.8H245.3z"/>
      <rect x="251.5" y="186.7" class="st5" width="48.5" height="18.3"/>
      <path d="M259.4 205.3c0-1.9 1.5-3.4 3.4-3.4 1.9 0 3.4 1.5 3.4 3.4H259.4z"/>
      <path d="M285.3 205.3c0-1.9 1.5-3.4 3.4-3.4s3.4 1.5 3.4 3.4H285.3z"/>
    </g>
  </g>
</svg>