<svg xmlns="http://www.w3.org/2000/svg" version="1.1" class="mountain__svg" x="0" y="0" width="674.6" height="743" viewBox="0 0 674.6 743" xml:space="preserve">
  <style type="text/css">

	.st0{fill:#7DADBF;}
	.st1{fill:#143B4B;}
	.st2{fill:#1D5970;}
	.st3{fill:#5291AA;}
	.st4{fill:#277695;}
	.st5{fill:#FF573B;}
	.st6{fill:#FFFFFF;}
	.st7{fill:#D4E4EA;}
	.st8{fill:#0B222A;}
	.st9{fill:#A9C8D5;}
	.st10{fill:#0F2D38;}

  </style>
  <path class="st10" d="M146.9 301.9l21.4-68 32.1-46.8 16.4-41 12.4-16.2 11.8-29 27.3-31.2 34.9-28.4 -11.1 119.9c-93.5 302.5-43.4 268.5-62.9 354.6C221.1 551.4 209 683 209 683l-5.7 60.7H0l26.5-35.7 8.1-35.3 10.1-25 8.1-75.9 21.1-53.9 0.9-45.2 14.7-42.9 27.6-63 3.2-38.1L146.9 301.9z"/>
  <polygon class="st2" points="673.1 701.1 631.9 591.6 593.8 547.2 587.2 527.2 585.1 487.6 567.3 456.9 570.3 427.6 558.9 408.4 560.6 389.2 554.4 385 541.3 358.7 531.4 341.7 523.7 320 518.5 308.9 514.9 307.2 510.5 300 488.6 277.7 479.5 262.6 477.7 254.5 476.5 248.1 472.5 248.1 470.3 242 466.2 233.6 466.8 214.9 461.7 208.8 460.3 205.4 458.1 203.5 456.5 200.4 458.9 192.7 455.8 191.3 455.8 183.8 453.7 183.8 452.8 180.4 452 176 447.6 173.2 441.9 174.8 441.9 169.2 437.5 169.2 433.1 153.6 421.2 150 413.6 142.2 408.4 117.4 396.5 96.2 383.9 77.2 375.7 86.1 368.3 85.3 362 76.4 356.9 76.4 351.9 76.4 345 65.2 302.1 40.7 297.1 55.2 297.1 78.6 282.6 109.8 264.4 127.7 251.1 210.2 256.4 270.4 233.9 292.4 216.1 316.1 216.1 383 208.6 429.9 215.5 456.6 193.3 543.6 177.1 629.5 166.4 726.5 163.9 743.7 662.1 743.7 "/>
  <polygon class="st3" points="256.4 270.4 357 235.2 348.1 168.3 302.1 40.7 296.2 54.5 285 78.6 282.6 109.8 264.4 127.7 251.1 210.2 "/>
  <polygon class="st4" points="357 235.2 331.5 303.8 344.2 355.7 268.9 469.4 253.6 543 240.8 410.9 271.5 307.2 256.4 270.4 "/>
  <polygon class="st9" points="216.1 316.1 146.9 301.9 120.1 328.8 116.9 366.9 "/>
  <polygon class="st4" points="264.4 127.7 348.1 168.3 251.1 210.2 240.8 180 "/>
  <polygon class="st1" points="344.2 355.7 432.6 651.8 268.9 469.4 "/>
  <polygon class="st10" points="253.6 543 262.3 743.7 450.5 743.7 432.6 651.8 268.9 469.4 "/>
  <polygon class="st1" points="253.6 543 215.5 456.6 162.6 571.5 177.1 629.5 "/>
  <polygon class="st9" points="200.4 187.1 256.4 270.4 281.1 197.2 264.4 127.7 "/>
  <polygon class="st9" points="410.6 127.7 348.1 168.3 368.3 85.3 375.7 86.1 383.9 77.2 395 93.9 408.4 117.4 "/>
  <polygon class="st7" points="348.1 168.3 368.3 85.3 362 76.4 351.9 76.4 345 65.2 302.1 40.7 302.1 77.2 "/>
  <polygon class="st8" points="73.8 517.9 162.6 571.5 52.7 571.8 "/>
  <polygon class="st1" points="177.1 629.5 262.3 743.7 163.9 743.7 "/>
  <polygon class="st4" points="432.6 651.8 631.9 591.6 605.5 651.8 "/>
  <polygon class="st1" points="558.9 408.4 490.8 460 567.3 456.9 570.3 427.6 "/>
  <polygon class="st0" points="285 78.6 241 100.9 268.2 69.7 302.1 40.7 "/>
  <polygon class="st6" points="302.1 77.2 345 65.2 302.1 40.7 "/>
  <polygon class="st4" points="357 235.2 419.3 235.2 425.5 185.7 437.5 169.2 433.1 153.6 421.2 150 413.6 142.2 410.6 127.7 348.1 168.3 "/>
  <polygon class="st0" points="419.3 235.2 466.2 233.6 472.5 248.1 476.5 248.1 479.5 262.6 488.6 277.7 402.3 312 393 262.6 "/>
  <polygon class="st1" points="393 262.6 344.2 355.7 402.3 312 "/>
  <polygon class="st4" points="402.3 312 344.2 355.7 488.6 366.9 488.6 277.7 "/>
  <polygon class="st1" points="488.6 366.9 434.3 469.4 432.6 651.8 490.8 460 "/>
  <polygon class="st4" points="490.8 460 587.2 527.2 593.8 547.2 631.9 591.6 505.9 567 "/>
  <polygon class="st4" points="605.5 651.8 534 743.7 662.1 743.7 673.1 701.1 "/>
  <polygon class="st8" points="253.6 543 338.9 640.6 357 743.7 262.3 743.7 "/>
  <g class="flag">
    <path class="st10" d="M311.3 60.5c-0.8 0-1.5-0.7-1.5-1.5V2.8c0-0.8 0.7-1.5 1.5-1.5s1.5 0.7 1.5 1.5V59C312.8 59.8 312.1 60.5 311.3 60.5z"/>
    <polygon class="st5" points="343.6 13.2 313 23.6 313 2.8 "/>
  </g>
</svg>