<svg xmlns="http://www.w3.org/2000/svg" xmlns:xlink="http://www.w3.org/1999/xlink" version="1.1" x="0" y="0" width="464" height="816" viewBox="0 0 464 816" xml:space="preserve" enable-background="new 0 0 464 816">
  <path class="snowflake snowflake-1" d="M421.8 37.9l-1.5 2v0l2.4-0.3v1.1l-2.4-0.3v0l1.5 1.9 -1 0.6 -1-2.2h0l-1 2.3 -0.9-0.6 1.5-2v0l-2.4 0.3v-1.1l2.4 0.3v0l-1.5-2 1-0.6 1 2.2h0l1-2.2L421.8 37.9z" fill="#D4E4EA"/>
  <path class="snowflake snowflake-2" d="M462.3 110.5l-1.5 2v0l2.4-0.3v1.1l-2.4-0.3v0l1.5 1.9 -1 0.6 -1-2.2h0l-1 2.3 -0.9-0.6 1.5-2v0l-2.4 0.3v-1.1l2.4 0.3v0l-1.5-2 1-0.6 1 2.2h0l1-2.2L462.3 110.5z" fill="#D4E4EA"/>
  <path class="snowflake snowflake-3" d="M290.5 1L289 3v0l2.4-0.3v1.1L289 3.5v0l1.5 1.9 -1 0.6 -1-2.2h0l-1 2.3 -0.9-0.6 1.5-2v0l-2.4 0.3V2.7l2.4 0.3v0l-1.5-2 1-0.6 1 2.2h0l1-2.2L290.5 1z" fill="#D4E4EA"/>
  <path class="snowflake snowflake-4" d="M12.5 4.9l-1.5 2v0l2.4-0.3v1.1L11 7.4v0l1.5 1.9 -1 0.6 -1-2.2h0l-1 2.3L8.6 9.4l1.5-2v0L7.7 7.7V6.6l2.4 0.3v0L8.6 5l1-0.6 1 2.2h0l1-2.2L12.5 4.9z" fill="#D4E4EA"/>
  <path class="snowflake snowflake-5" d="M46.6 35.3l-1.5 2v0l2.4-0.3v1.1l-2.4-0.3v0l1.5 1.9 -1 0.6 -1-2.2h0l-1 2.3 -0.9-0.6 1.5-2v0l-2.4 0.3V37l2.4 0.3v0l-1.5-2 1-0.6 1 2.2h0l1-2.2L46.6 35.3z" fill="#D4E4EA"/>
  <path class="snowflake snowflake-6" d="M70.3 98.3l-1.5 2v0l2.4-0.3v1.1l-2.4-0.3v0l1.5 1.9 -1 0.6 -1-2.2h0l-1 2.3 -0.9-0.6 1.5-2v0l-2.4 0.3V100l2.4 0.3v0l-1.5-2 1-0.6 1 2.2h0l1-2.2L70.3 98.3z" fill="#D4E4EA"/>
  <path class="snowflake snowflake-7" d="M5.6 103.9l-1.5 2v0l2.4-0.3v1.1L4 106.4v0l1.5 1.9 -1 0.6 -1-2.2h0l-1 2.3 -0.9-0.6 1.5-2v0l-2.4 0.3v-1.1l2.4 0.3v0l-1.5-2 1-0.6 1 2.2h0l1-2.2L5.6 103.9z" fill="#D4E4EA"/>
</svg>