<svg xmlns="http://www.w3.org/2000/svg" xmlns:xlink="http://www.w3.org/1999/xlink" version="1.1" class="space__svg" x="0" y="0" width="549.2" height="651.2" viewBox="0 0 549.2 651.2" xml:space="preserve" enable-background="new 0 0 549.2 651.2">
  <style type="text/css">

    .space__svg .st0{opacity:0.5;fill:#B69B8A;}
    .space__svg .st1{opacity:0.3;fill:#CCCCCC;}
    .space__svg .st2{fill:#1D5970;}
    .space__svg .st3{fill:#BF412C;}
    .space__svg .st4{fill:#F2CFB8;}
    .space__svg .st5{opacity:0.4;fill:#B69B8A;}
    .space__svg .st6{fill:#277695;}
    .space__svg .st7{opacity:0.2;fill:#FFA3A3;}
    .space__svg .st8{fill:none;stroke:#1D5970;stroke-width:3;stroke-miterlimit:10;}
    .space__svg .st9{opacity:0.2;}
    .space__svg .st10{fill:#FF573B;}
    .space__svg .st11{fill:#FFFFFF;}
    .space__svg .st12{fill:none;}
    .space__svg .st13{fill:#333333;}
    .space__svg .st14{fill:#FF573B;stroke:#1D5970;stroke-width:3;stroke-miterlimit:10;}
    .space__svg .st15{fill:#FFFFFF;stroke:#1D5970;stroke-width:3;stroke-miterlimit:10;}
    .space__svg .st16{fill:#0F2D38;}
    .space__svg .st17{opacity:0.2;clip-path:url(#SVGID_2_);fill:#FFA3A3;}

  </style>
  <g class="stars">
    <circle class="star star1 st10" cx="545.2" cy="324.8" r="4"/>
    <circle class="star star2 st10" cx="364.7" cy="75.6" r="2.2"/>
    <circle class="star star3 st10" cx="2.2" cy="502.1" r="2.2"/>
    <circle class="star star4 st10" cx="497.6" cy="515.4" r="2.2"/>
    <circle class="star star5 st10" cx="540.8" cy="60.4" r="2.2"/>
    <circle class="star star6 st10" cx="2.2" cy="141.4" r="2.2"/>
    <circle class="star star7 st10" cx="543" cy="394.7" r="2.2"/>
    <circle class="star star8 st10" cx="417.8" cy="439.3" r="2.2"/>
    <circle class="star star9 st10" cx="371.5" cy="594.6" r="2.2"/>
    <circle class="star star10 st10" cx="59.5" cy="343.8" r="2.2"/>
    <circle class="star star11 st10" cx="370.1" cy="61.8" r="1.4"/>
    <circle class="star star12 st10" cx="478.8" cy="30.3" r="1.4"/>
    <circle class="star star13 st10" cx="406.7" cy="523.9" r="1.4"/>
    <circle class="star star14 st10" cx="203.3" cy="1.4" r="1.4"/>
    <circle class="st10" cx="512.7" cy="181.4" r="2.2"/>
    <circle class="star star9 st10" cx="61.4" cy="474.4" r="2.2"/>
    <circle class="star star8 st10" cx="221.2" cy="152.8" r="2.2"/>
    <circle class="star star7 st10" cx="263.5" cy="58.3" r="2.2"/>
    <circle class="star star6 st10" cx="125" cy="116.1" r="2.2"/>
    <circle class="star star5 st10" cx="136.4" cy="647.2" r="4"/>
    <circle class="star star4 st10" cx="24.5" cy="382" r="4"/>
    <circle class="star star3 st10" cx="450" cy="345.9" r="2.2"/>
    <circle class="star star2 st10" cx="437.5" cy="98.7" r="4"/>
    <circle class="star star1 st10" cx="79" cy="204" r="4"/>
  </g>
  <g class="spaceman">
    <path class="st11" d="M249 195c-0.2 0-0.4 0-0.6-0.1 -0.8-0.3-1.1-1.2-0.8-1.9l20.2-50.9c0.3-0.8 1.2-1.1 1.9-0.8 0.8 0.3 1.1 1.2 0.8 1.9l-20.2 50.9C250.1 194.7 249.6 195 249 195z"/>
    <path class="st11" d="M251.2 201.7c-2.5 6.3-2.9 12-9.2 9.5 -6.3-2.5-2.6-7-0.1-13.3 2.5-6.3 2.9-12 9.2-9.5C257.3 190.9 253.7 195.4 251.2 201.7z"/>
    <path class="st16" d="M141.9 335.2c7.7 4.3 17.4 1.5 21.6-6.2 1.2-2.2 1.8-4.5 2-6.9l0.3 0c0.4-7.7 3.2-14.8 8.2-20.7 12.5-15 34.9-17.1 49.9-4.6l20.8-25c-28.8-24-71.7-20-95.7 8.8 -5.6 6.7-9.7 14.2-12.4 22.3 -1.8 5.6-2.9 11.5-3.3 17.5l0.3 0C133.4 326.3 136.4 332.2 141.9 335.2z"/>
    <path class="st6" d="M233.5 264.3c-0.6-0.3-1.2-0.6-1.8-0.9l-16 28.3c0.6 0.3 1.2 0.6 1.8 0.9L233.5 264.3z"/>
    <path class="st6" d="M219.1 258.6c-0.6-0.2-1.3-0.3-1.9-0.5l-10.5 31c0.7 0.1 1.3 0.2 2 0.4L219.1 258.6z"/>
    <path class="st6" d="M133.9 314.9c-0.1 0.7-0.2 1.4-0.2 2.1l29.6 12.5c0.1-0.2 0.2-0.3 0.3-0.5 0.2-0.4 0.4-0.9 0.6-1.3L133.9 314.9z"/>
    <path class="st6" d="M165.3 323.7c0.1-0.5 0.1-1.1 0.2-1.6l0.3 0c0-0.2 0-0.3 0-0.5l-29-19.3c-0.1 0.2-0.1 0.4-0.2 0.5 -0.2 0.5-0.3 1-0.4 1.4L165.3 323.7z"/>
    <path class="st6" d="M167.1 314.4l-24.7-24.2c-0.3 0.6-0.7 1.2-1 1.8l25.2 24.7C166.7 315.8 166.9 315.1 167.1 314.4z"/>
    <path class="st6" d="M170.2 307l-19.6-28.1c-0.5 0.5-0.9 1-1.4 1.5l19.9 28.6C169.5 308.3 169.8 307.6 170.2 307z"/>
    <path class="st6" d="M173.7 301.8c0.1-0.1 0.2-0.3 0.3-0.4 0.4-0.4 0.8-0.9 1.1-1.3l-13.9-30.9c-0.6 0.4-1.1 0.8-1.6 1.2L173.7 301.8z"/>
    <path class="st6" d="M181.9 294.4l-7.8-32.6c-0.6 0.3-1.2 0.5-1.9 0.8l7.9 33C180.7 295.2 181.3 294.8 181.9 294.4z"/>
    <path class="st6" d="M197.2 288.9c0.7-0.1 1.4-0.1 2-0.2l4.6-32.5c-0.7 0-1.3-0.1-2-0.1L197.2 288.9z"/>
    <path class="st6" d="M188.5 257.4c-0.7 0.1-1.3 0.3-2 0.4l1.6 33.4c0.6-0.3 1.3-0.5 2-0.7L188.5 257.4z"/>
    <path class="st6" d="M135 327.6c0.3 0.8 0.7 1.6 1.2 2.3l22 4.8c0.7-0.5 1.4-1 2.1-1.6L135 327.6z"/>
    <path class="st16" d="M444.1 278.6c-8-3.7-17.4-0.2-21.1 7.8 -1 2.3-1.5 4.6-1.4 7l-0.3 0c0.1 7.7-2.1 15-6.6 21.3 -11.4 15.9-33.6 19.6-49.5 8.2l-18.9 26.4c30.5 21.8 73 14.8 94.8-15.7 5.1-7.1 8.7-14.9 10.7-23.1 1.4-5.7 2.1-11.7 2-17.7l-0.3 0C453.2 286.8 449.8 281.2 444.1 278.6z"/>
    <path class="st6" d="M357.8 356c0.6 0.3 1.2 0.5 1.8 0.8l13.9-29.4c-0.6-0.2-1.2-0.5-1.9-0.7L357.8 356z"/>
    <path class="st6" d="M372.7 360.6c0.7 0.1 1.3 0.3 2 0.4l8.3-31.7c-0.7-0.1-1.3-0.1-2-0.2L372.7 360.6z"/>
    <path class="st6" d="M453.5 298.2c0-0.7 0.1-1.4 0.1-2.1l-30.4-10.3c-0.1 0.2-0.2 0.3-0.3 0.5 -0.2 0.4-0.4 0.9-0.5 1.3L453.5 298.2z"/>
    <path class="st6" d="M421.5 291.7c0 0.5-0.1 1.1-0.1 1.6l-0.3 0c0 0.2 0 0.3 0 0.5l30.3 17.2c0-0.2 0.1-0.4 0.2-0.6 0.1-0.5 0.2-1 0.3-1.5L421.5 291.7z"/>
    <path class="st6" d="M420.4 301.2l26.4 22.3c0.3-0.6 0.6-1.2 0.9-1.9L420.8 299C420.7 299.7 420.6 300.5 420.4 301.2z"/>
    <path class="st6" d="M417.9 308.8l21.6 26.6c0.4-0.5 0.8-1.1 1.2-1.6l-22-27.1C418.5 307.4 418.2 308.1 417.9 308.8z"/>
    <path class="st6" d="M414.8 314.2c-0.1 0.1-0.2 0.3-0.3 0.4 -0.3 0.5-0.7 0.9-1 1.4l16.1 29.9c0.5-0.4 1-0.9 1.5-1.4L414.8 314.2z"/>
    <path class="st6" d="M407.2 322.2l10.1 31.9c0.6-0.3 1.2-0.6 1.8-1l-10.2-32.3C408.3 321.3 407.8 321.8 407.2 322.2z"/>
    <path class="st6" d="M392.3 328.8c-0.7 0.1-1.3 0.2-2 0.3l-2.2 32.7c0.7 0 1.3 0 2-0.1L392.3 328.8z"/>
    <path class="st6" d="M403.2 359.6c0.7-0.2 1.3-0.4 1.9-0.6l-4-33.2c-0.6 0.3-1.3 0.6-1.9 0.8L403.2 359.6z"/>
    <path class="st6" d="M451.5 285.7c-0.4-0.8-0.9-1.5-1.4-2.2l-22.3-3.1c-0.7 0.5-1.3 1.1-1.9 1.7L451.5 285.7z"/>
    <path class="st11" d="M324.9 453.6c-14.7 37.2-60.6 59-100.3 43.3 -39.7-15.7-58.1-63.1-43.3-100.3l6.7-21.6 146 60.6L324.9 453.6z"/>
    <path class="st2" d="M251.8 503.6c-9.6 0-18.9-1.8-27.7-5.3 -19.3-7.6-34.5-22.9-42.9-42.9 -8.1-19.3-8.6-40.9-1.3-59.3l7.1-23.1 1.5 0.6L336 434.9l-9.7 19.3C314.7 483.3 284.1 503.6 251.8 503.6zM188.9 377.1l-6.2 20.1c-7 17.6-6.5 38.4 1.3 57 8.1 19.3 22.7 33.9 41.2 41.3 8.5 3.4 17.4 5.1 26.6 5.1 31.1 0 60.6-19.5 71.7-47.5l0.1-0.1 8.3-16.5L188.9 377.1z"/>
    <path class="st11" d="M341 433.8c-5.1 12.8-19.7 19.1-32.5 14l-111.4-44.2c-12.8-5.1-19.1-19.7-14-32.5l13-32.8c5.1-12.8 16.5-31.8 25.3-42.3l25.3-29.9c8.9-10.5 26.6-15 39.4-9.9l58.7 23.3c12.8 5.1 22.6 20.4 21.7 34.2l-2.5 41c-0.8 13.7-5.7 35.4-10.7 48.2L341 433.8z"/>
    <path class="st8" d="M341 433.8c-5.1 12.8-19.7 19.1-32.5 14l-111.4-44.2c-12.8-5.1-19.1-19.7-14-32.5l13-32.8c5.1-12.8 16.5-31.8 25.3-42.3l25.3-29.9c8.9-10.5 26.6-15 39.4-9.9l58.7 23.3c12.8 5.1 22.6 20.4 21.7 34.2l-2.5 41c-0.8 13.7-5.7 35.4-10.7 48.2L341 433.8z"/>
    <circle class="st11" cx="329.4" cy="232.6" r="84"/>
    <path class="st11" d="M417 267.4c-2.5 6.3-2.9 12-9.2 9.5 -6.3-2.5-2.6-7-0.1-13.3 2.5-6.3 2.9-12 9.2-9.5C423.2 256.7 419.5 261.1 417 267.4z"/>
    <path class="st2" d="M421.5 256.3c-0.6-1.5-1.9-2.6-4.1-3.5 -1.2-0.5-2.2-0.7-3.2-0.7 -0.6 0-1.1 0.1-1.6 0.2 9.6-40.6-11.8-83.4-51.7-99.2 -10.1-4-20.7-6-31.5-6 -31.1 0-59 16.5-74.1 42.8 -0.7-1.2-1.9-2.2-3.8-2.9 -1.2-0.5-2.2-0.7-3.2-0.7 -4.1 0-5.4 3.8-6.8 7.9 -0.4 1-0.7 2.1-1.2 3.2 -0.4 1.1-0.9 2.1-1.4 3.2 -1.5 3.2-2.7 6-1.7 8.5 0.6 1.5 1.9 2.6 4.1 3.5 1.2 0.5 2.2 0.7 3.2 0.7 0.6 0 1.1-0.1 1.6-0.2 -9.5 40.6 11.9 83.2 51.7 99 10.1 4 20.7 6 31.5 6 31 0 58.9-16.4 74-42.7 0.7 1.2 1.9 2.2 3.8 3 1.2 0.5 2.2 0.7 3.2 0.7 4.1 0 5.4-3.8 6.8-7.9 0.4-1 0.7-2.1 1.2-3.2s0.9-2.1 1.4-3.2C421.3 261.6 422.5 258.8 421.5 256.3zM244.6 210.3c-0.6 0-1.3-0.2-2.1-0.5 -1.3-0.5-2.1-1.1-2.4-1.8 -0.5-1.3 0.5-3.6 1.7-6.2 0.5-1 1-2.1 1.4-3.3 0.5-1.2 0.8-2.3 1.2-3.4 1.4-4.1 2.2-5.8 3.9-5.8 0.6 0 1.3 0.2 2.1 0.5 1.3 0.5 2.1 1.1 2.4 1.8 0.5 1.3-0.5 3.6-1.7 6.2 -0.5 1-1 2.1-1.4 3.3s-0.8 2.3-1.2 3.4C247.1 208.6 246.4 210.3 244.6 210.3zM329.4 315.1c-10.4 0-20.6-2-30.4-5.8 -42.3-16.8-63-64.8-46.3-107.1 12.6-31.7 42.7-52.1 76.7-52.1 10.4 0 20.6 2 30.4 5.8 42.3 16.8 63 64.8 46.3 107.1C393.6 294.7 363.5 315.1 329.4 315.1zM417.1 263.6c-0.5 1-1 2.1-1.4 3.3 -0.5 1.2-0.8 2.3-1.2 3.4 -1.4 4.1-2.2 5.8-3.9 5.8 -0.6 0-1.3-0.2-2.1-0.5 -1.3-0.5-2.1-1.1-2.4-1.8 -0.5-1.3 0.5-3.6 1.7-6.2 0.5-1 1-2.1 1.4-3.3 0.5-1.2 0.8-2.3 1.2-3.4 1.4-4.1 2.2-5.8 3.9-5.8 0.6 0 1.3 0.2 2.1 0.5 1.3 0.5 2.1 1.1 2.4 1.8C419.3 258.7 418.2 261 417.1 263.6z"/>
    <ellipse transform="matrix(0.9296 0.3686 -0.3686 0.9296 108.9358 -105.0595)" class="st13" cx="329.4" cy="232.6" rx="79" ry="64.6"/>
    <path class="st16" d="M147.1 565.9c-10.2-4-15.2-15.5-11.3-25.7 18.8-49.3 47.7-89.3 48.9-90.9 6.5-8.9 19-10.9 27.9-4.4 8.9 6.5 10.9 19 4.4 27.9 -0.4 0.6-27.1 37.6-43.9 81.6 -3.9 10.3-15.5 15.5-25.8 11.6C147.2 566 147.2 565.9 147.1 565.9z"/>
    <path class="st6" d="M182.9 451.8c-0.3 0.5-0.7 1-1.1 1.6l34.6 20.3c0.4-0.5 0.6-0.9 0.6-0.9 0.2-0.2 0.3-0.5 0.5-0.7L182.9 451.8z"/>
    <path class="st6" d="M174.8 464l34.6 20.2c0.4-0.6 0.7-1.1 1.1-1.7l-34.6-20.2C175.5 462.9 175.1 463.4 174.8 464z"/>
    <path class="st6" d="M168.1 474.7l34.5 20.2c0.4-0.6 0.7-1.1 1-1.7L169.1 473C168.8 473.6 168.4 474.2 168.1 474.7z"/>
    <path class="st6" d="M161.7 485.7l34.5 20.2c0.3-0.6 0.7-1.2 1-1.7l-34.5-20.2C162.4 484.5 162.1 485.1 161.7 485.7z"/>
    <path class="st6" d="M155.6 496.8l34.6 20.2c0.3-0.6 0.6-1.2 0.9-1.8L156.6 495C156.3 495.6 156 496.2 155.6 496.8z"/>
    <path class="st6" d="M149.9 508l34.6 20.3c0.3-0.6 0.6-1.2 0.9-1.8l-34.6-20.3C150.5 506.8 150.2 507.4 149.9 508z"/>
    <path class="st6" d="M179.2 539.8c0.3-0.6 0.5-1.2 0.8-1.8l-34.7-20.3c-0.3 0.6-0.6 1.2-0.8 1.8L179.2 539.8z"/>
    <path class="st6" d="M174.2 551.6c0.2-0.6 0.5-1.3 0.7-1.9l-34.9-20.4c-0.3 0.6-0.5 1.2-0.8 1.9L174.2 551.6z"/>
    <path class="st6" d="M190.5 443.9l30.3 17.8c0-0.8 0-1.6-0.1-2.4l-28.2-16.5C191.9 443.2 191.2 443.5 190.5 443.9z"/>
    <path class="st12" d="M147.1 565.9c-10.2-4-15.2-15.5-11.3-25.7 18.8-49.3 47.7-89.3 48.9-90.9 6.5-8.9 19-10.9 27.9-4.4 8.9 6.5 10.9 19 4.4 27.9 -0.4 0.6-27.1 37.6-43.9 81.6 -3.9 10.3-15.5 15.5-25.8 11.6C147.2 566 147.2 565.9 147.1 565.9z"/>
    <path class="st11" d="M136.9 537.3c0 0 19.2 1.5 36.9 14.6 0 0-0.2 24-5.9 27.5l-44.6-17.7C123.3 561.7 123.3 552.3 136.9 537.3z"/>
    <path class="st11" d="M332.4 360.2c-2.8 7.2-11 10.7-18.2 7.9l-66.5-26.4c-7.2-2.8-10.7-11-7.9-18.2l2.8-7c2.8-7.2 11-10.7 18.2-7.9l66.5 26.4c7.2 2.8 10.7 11 7.9 18.2L332.4 360.2z"/>
    <path class="st8" d="M332.4 360.2c-2.8 7.2-11 10.7-18.2 7.9l-66.5-26.4c-7.2-2.8-10.7-11-7.9-18.2l2.8-7c2.8-7.2 11-10.7 18.2-7.9l66.5 26.4c7.2 2.8 10.7 11 7.9 18.2L332.4 360.2z"/>
    <circle class="st14" cx="258.7" cy="326.9" r="8.5"/>
    <circle class="st14" cx="287.5" cy="338.3" r="8.5"/>
    <circle class="st14" cx="316.3" cy="349.8" r="8.5"/>
    <rect x="259.4" y="352.2" transform="matrix(0.9296 0.3686 -0.3686 0.9296 162.6704 -70.8975)" class="st15" width="15" height="76.2"/>
    <line class="st15" x1="273" y1="358.8" x2="284.1" y2="363.2"/>
    <line class="st15" x1="270.7" y1="364.5" x2="281.9" y2="368.9"/>
    <line class="st15" x1="268.4" y1="370.2" x2="279.6" y2="374.6"/>
    <line class="st15" x1="266.1" y1="376" x2="277.3" y2="380.4"/>
    <line class="st15" x1="263.9" y1="381.7" x2="275" y2="386.1"/>
    <line class="st15" x1="261.6" y1="387.4" x2="272.8" y2="391.8"/>
    <line class="st15" x1="259.3" y1="393.2" x2="270.5" y2="397.6"/>
    <line class="st15" x1="257.1" y1="398.9" x2="268.2" y2="403.3"/>
    <line class="st15" x1="254.8" y1="404.6" x2="265.9" y2="409"/>
    <line class="st15" x1="252.5" y1="410.4" x2="263.7" y2="414.8"/>
    <line class="st15" x1="250.2" y1="416.1" x2="261.4" y2="420.5"/>
    <path class="st15" d="M213.6 361.8l-6.5 16.4c-2.7 6.8 0.6 14.5 7.4 17.2 6.8 2.7 14.5-0.6 17.2-7.4l6.5-16.4L213.6 361.8z"/>
    <path class="st15" d="M300.4 396.2l-6.5 16.4c-2.7 6.8 0.6 14.5 7.4 17.2 6.8 2.7 14.5-0.6 17.2-7.4l6.5-16.4L300.4 396.2z"/>
    <path class="st4" d="M373.7 248.2c10-25.1-2.3-53.6-27.4-63.5 -25.1-10-53.6 2.4-63.5 27.5l-20.3 45.4c9.2 14.8 24.2 27.6 43.2 35.1 18.2 7.2 36.9 8.4 53.3 4.5L373.7 248.2z"/>
    <defs>
      <path id="SVGID_1_" d="M373.7 248.2c10-25.1-2.3-53.6-27.4-63.5 -25.1-10-53.6 2.4-63.5 27.5l-32.4 72.5 100.4 39.8L373.7 248.2z"/>
    </defs>
    <clipPath id="SVGID_2_">
      <use xlink:href="#SVGID_1_" overflow="visible"/>
    </clipPath>
    <circle class="st17" cx="367.3" cy="269.3" r="10.1"/>
    <circle class="st7" cx="307.1" cy="245.4" r="10.1"/>
    <path class="st0" d="M354.4 243.4l10.3 8.7C364.7 252.1 356 254.6 354.4 243.4z"/>
    <path class="st0" d="M322.8 235.2l13.4 1.2C336.3 236.4 330.6 243.6 322.8 235.2z"/>
    <path d="M337.5 235.1c-0.9 2.2-3.4 3.3-5.7 2.5 -2.2-0.9-3.3-3.4-2.4-5.7 0.9-2.2 3.4-3.3 5.7-2.4C337.3 230.3 338.4 232.9 337.5 235.1z"/>
    <path class="st11" d="M336.4 235.3c-0.3 0.9-1.3 1.3-2.2 1 -0.9-0.3-1.3-1.3-1-2.2 0.3-0.9 1.3-1.3 2.2-1C336.3 233.4 336.8 234.4 336.4 235.3z"/>
    <circle cx="358.4" cy="243.4" r="4.4"/>
    <path class="st11" d="M361.3 245.1c-0.3 0.9-1.3 1.3-2.2 1 -0.9-0.3-1.3-1.3-1-2.2 0.3-0.9 1.3-1.3 2.2-1C361.3 243.3 361.7 244.3 361.3 245.1z"/>
    <path d="M339.9 254.9c-0.1 0.3-0.4 0.4-0.7 0.3 -0.3-0.1-0.4-0.4-0.3-0.7 0.1-0.3 0.4-0.4 0.7-0.3C339.9 254.3 340 254.6 339.9 254.9z"/>
    <path d="M345.2 257.1c-0.1 0.3-0.4 0.4-0.7 0.3 -0.3-0.1-0.4-0.4-0.3-0.7 0.1-0.3 0.4-0.4 0.7-0.3C345.2 256.4 345.4 256.8 345.2 257.1z"/>
    <path class="st5" d="M311.4 201.2l-15-14 -7.7 11.8 -26.2 58.6c9.2 14.8 24.2 27.6 43.1 35.1 17.9 7.1 36.4 8.4 52.7 4.7C243.5 277.6 311.4 201.2 311.4 201.2z"/>
    <circle cx="336.7" cy="270.9" r="7.7"/>
    <path d="M405.7 231.3c-1.2-6.6-3.5-13.1-6.9-19.4 -7.7-0.3-13.9-1.7-15.7-2.2 1.6-7.3 0.4-14.8-3.1-21.1 -7.6-6.5-16.6-12-26.7-16 -19.5-7.7-39.6-8.5-56.8-3.6 0.1 1.5-0.1 3.1-0.7 4.6 -2.1 5.3-8 7.8-13.3 5.7 -0.7-0.3-1.3-0.6-1.8-0.9 1 5.1 3.4 8.7 3.4 8.7 -10.3 22.4-4 35.3-4 35.3 7.1-18 20.8-25.1 20.8-25.1C363.2 247.6 392.3 243.4 405.7 231.3z"/>
    <circle class="st1" cx="313.4" cy="229.2" r="45"/>
    <g class="st9">
      <ellipse transform="matrix(0.9296 0.3686 -0.3686 0.9296 108.9358 -105.0595)" class="st6" cx="329.4" cy="232.6" rx="79" ry="64.6"/>
    </g>
    <path class="st16" d="M238.9 602.8c10.1 4.1 21.7-0.8 25.9-10.9 20.2-48.7 26.7-97.6 27-99.7 1.4-11-6.3-21-17.3-22.4 -11-1.4-21 6.3-22.4 17.3 -0.1 0.7-6.2 46-24.3 89.5 -4.2 10.2 0.6 21.9 10.8 26.1C238.8 602.7 238.8 602.7 238.9 602.8z"/>
    <path class="st6" d="M291.4 495.3c-0.1 0.6-0.2 1.3-0.3 2l-39.1-9.1c0.1-0.7 0.1-1.1 0.2-1.1 0-0.3 0.1-0.6 0.2-0.9L291.4 495.3z"/>
    <path class="st6" d="M288.9 509.7l-39-9.1c0.1-0.7 0.2-1.3 0.4-2l39 9.1C289.1 508.4 289 509 288.9 509.7z"/>
    <path class="st6" d="M286.3 522.1l-39-9.1c0.1-0.7 0.3-1.3 0.4-2l39 9.1C286.6 520.8 286.5 521.4 286.3 522.1z"/>
    <path class="st6" d="M283.5 534.4l-39-9.1c0.2-0.7 0.3-1.3 0.5-1.9l39 9.1C283.8 533.1 283.6 533.8 283.5 534.4z"/>
    <path class="st6" d="M280.3 546.6l-39-9.1c0.2-0.6 0.4-1.3 0.5-1.9l39 9.1C280.6 545.4 280.4 546 280.3 546.6z"/>
    <path class="st6" d="M276.7 558.8l-39.1-9.1c0.2-0.6 0.4-1.3 0.6-1.9l39.1 9.1C277.1 557.5 276.9 558.1 276.7 558.8z"/>
    <path class="st6" d="M233.6 561.7c0.2-0.6 0.5-1.3 0.7-1.9l39.2 9.1c-0.2 0.6-0.4 1.3-0.7 1.9L233.6 561.7z"/>
    <path class="st6" d="M229 573.7c0.3-0.6 0.5-1.3 0.8-1.9l39.3 9.1c-0.2 0.6-0.5 1.3-0.7 1.9L229 573.7z"/>
    <path class="st6" d="M291.3 484.3l-34.2-8c0.5-0.6 1.1-1.1 1.7-1.7l31.8 7.4C290.8 482.8 291.1 483.5 291.3 484.3z"/>
    <path class="st12" d="M238.9 602.8c10.1 4.1 21.7-0.8 25.9-10.9 20.2-48.7 26.7-97.6 27-99.7 1.4-11-6.3-21-17.3-22.4 -11-1.4-21 6.3-22.4 17.3 -0.1 0.7-6.2 46-24.3 89.5 -4.2 10.2 0.6 21.9 10.8 26.1C238.8 602.7 238.8 602.7 238.9 602.8z"/>
    <path class="st11" d="M266 589c0 0-14.9-12.1-36.9-14.7 0 0-16.4 17.6-14.6 24l44.6 17.8C259.1 616 265.5 609.2 266 589z"/>
    <circle class="st1" cx="379.7" cy="260" r="13"/>
  </g>
  <g class="planet">
    <circle class="st10" cx="130.3" cy="48.5" r="31.7"/>
    <path class="st3" d="M167.4 41.4c-9.7 3.1-22 6.3-36.6 9.1 -13.2 2.5-26.2 4.3-37.4 5.1 9.7-3.1 22-6.3 36.6-9.1C143.1 44 156.1 42.3 167.4 41.4M180.4 28.9c-13.7 0-32.4 1.9-52.7 5.8 -40.3 7.7-71.8 20.1-70.3 27.7 0.7 3.8 9.4 5.7 22.9 5.7 13.7 0 32.4-1.9 52.7-5.8 40.3-7.7 71.8-20.1 70.3-27.7C202.6 30.8 193.9 28.9 180.4 28.9L180.4 28.9z"/>
    <path class="st10" d="M99.1 54.5c-3.3-17.2 8-33.8 25.2-37.1s33.9 8 37.1 25.2"/>
  </g>
</svg>