<svg xmlns="http://www.w3.org/2000/svg" xmlns:xlink="http://www.w3.org/1999/xlink" version="1.1" class="space__svg" x="0" y="0" width="552" height="654" viewBox="0 0 552 654" xml:space="preserve" enable-background="new 0 0 552 654">
  <style type="text/css">

	.space__svg .st0{opacity:0.4;clip-path:url(#SVGID_12_);}
	.space__svg .st1{opacity:0.2;clip-path:url(#SVGID_8_);}
	.space__svg .st2{clip-path:url(#SVGID_20_);fill:#B69B8A;}
	.space__svg .st3{clip-path:url(#SVGID_28_);fill:#CCCCCC;}
	.space__svg .st4{clip-path:url(#SVGID_2_);fill:#0F2D38;}
	.space__svg .st5{clip-path:url(#SVGID_4_);fill:none;stroke:#277695;stroke-width:2;stroke-miterlimit:10;}
	.space__svg .st6{clip-path:url(#SVGID_2_);fill:none;stroke:#277695;stroke-width:2;stroke-miterlimit:10;}
	.space__svg .st7{clip-path:url(#SVGID_4_);fill:#0F2D38;}
	.space__svg .st8{fill:#BF412C;}
	.space__svg .st9{fill:none;stroke:#FFFFFF;stroke-width:3;stroke-linecap:round;stroke-miterlimit:10;}
	.space__svg .st10{clip-path:url(#SVGID_22_);fill:#277695;}
	.space__svg .st11{clip-path:url(#SVGID_30_);fill:#CCCCCC;}
	.space__svg .st12{clip-path:url(#SVGID_10_);fill:#FFA3A3;}
	.space__svg .st13{opacity:0.5;clip-path:url(#SVGID_12_);}
	.space__svg .st14{fill:none;stroke:#1D5970;stroke-width:3;stroke-miterlimit:10;}
	.space__svg .st15{clip-path:url(#SVGID_26_);fill:none;stroke:#277695;stroke-width:2;stroke-miterlimit:10;}
	.space__svg .st16{opacity:0.3;}
	.space__svg .st17{fill:#FF573B;}
	.space__svg .st18{fill:#FFFFFF;}
	.space__svg .st19{clip-path:url(#SVGID_16_);fill:#B69B8A;}
	.space__svg .st20{clip-path:url(#SVGID_12_);fill:#FFFFFF;}
	.space__svg .st21{clip-path:url(#SVGID_24_);fill:none;stroke:#277695;stroke-width:2;stroke-miterlimit:10;}
	.space__svg .st22{fill:#333333;}
	.space__svg .st23{clip-path:url(#SVGID_18_);fill:#B69B8A;}
	.space__svg .st24{clip-path:url(#SVGID_14_);fill:#FFA3A3;}
	.space__svg .st25{clip-path:url(#SVGID_6_);fill:#F2CFB8;}
	.space__svg .st26{clip-path:url(#SVGID_12_);}
	.space__svg .st27{fill:#0F2D38;}
	.space__svg .st28{opacity:0.2;clip-path:url(#SVGID_12_);}

  </style>
  <g class="stars">
    <path class="st17" d="M368.3 77c0 1.2-1 2.2-2.2 2.2 -1.2 0-2.2-1-2.2-2.2 0-1.2 1-2.2 2.2-2.2C367.3 74.8 368.3 75.8 368.3 77"/>
    <path class="st17" d="M128.6 117.5c0 1.2-1 2.2-2.2 2.2 -1.2 0-2.2-1-2.2-2.2 0-1.2 1-2.2 2.2-2.2C127.6 115.3 128.6 116.3 128.6 117.5"/>
    <path class="st17" d="M5.8 503.5c0 1.2-1 2.2-2.2 2.2 -1.2 0-2.2-1-2.2-2.2 0-1.2 1-2.2 2.2-2.2C4.8 501.3 5.8 502.3 5.8 503.5"/>
    <path class="st17" d="M516.3 182.8c0 1.2-1 2.2-2.2 2.2 -1.2 0-2.2-1-2.2-2.2 0-1.2 1-2.2 2.2-2.2C515.3 180.6 516.3 181.6 516.3 182.8"/>
    <path class="st17" d="M103.9 499.4c0 1.2-1 2.2-2.2 2.2 -1.2 0-2.2-1-2.2-2.2 0-1.2 1-2.2 2.2-2.2C102.9 497.3 103.9 498.3 103.9 499.4"/>
    <path class="st17" d="M501.1 516.8c0 1.2-1 2.2-2.2 2.2 -1.2 0-2.2-1-2.2-2.2 0-1.2 1-2.2 2.2-2.2C500.2 514.6 501.1 515.6 501.1 516.8"/>
    <path class="st17" d="M544.4 61.8c0 1.2-1 2.2-2.2 2.2 -1.2 0-2.2-1-2.2-2.2 0-1.2 1-2.2 2.2-2.2C543.4 59.7 544.4 60.6 544.4 61.8"/>
    <path class="st17" d="M453.6 347.3c0 1.2-1 2.2-2.2 2.2 -1.2 0-2.2-1-2.2-2.2 0-1.2 1-2.2 2.2-2.2C452.6 345.2 453.6 346.1 453.6 347.3"/>
    <path class="st17" d="M5.8 142.8c0 1.2-1 2.2-2.2 2.2 -1.2 0-2.2-1-2.2-2.2 0-1.2 1-2.2 2.2-2.2C4.8 140.6 5.8 141.6 5.8 142.8"/>
    <path class="st17" d="M546.6 396.1c0 1.2-1 2.2-2.2 2.2 -1.2 0-2.2-1-2.2-2.2 0-1.2 1-2.2 2.2-2.2C545.6 394 546.6 394.9 546.6 396.1"/>
    <path class="st17" d="M375.1 596.1c0 1.2-1 2.2-2.2 2.2 -1.2 0-2.2-1-2.2-2.2 0-1.2 1-2.2 2.2-2.2C374.1 593.9 375.1 594.9 375.1 596.1"/>
    <path class="st17" d="M372.9 63.2c0 0.8-0.6 1.4-1.4 1.4 -0.8 0-1.4-0.6-1.4-1.4 0-0.8 0.6-1.4 1.4-1.4C372.3 61.8 372.9 62.5 372.9 63.2"/>
    <path class="st17" d="M481.7 31.7c0 0.8-0.6 1.4-1.4 1.4 -0.8 0-1.4-0.6-1.4-1.4 0-0.8 0.6-1.4 1.4-1.4C481 30.3 481.7 31 481.7 31.7"/>
    <path class="st17" d="M409.5 525.3c0 0.8-0.6 1.4-1.4 1.4 -0.8 0-1.4-0.6-1.4-1.4 0-0.8 0.6-1.4 1.4-1.4C408.9 523.9 409.5 524.5 409.5 525.3"/>
    <path class="st17" d="M206.2 2.8c0 0.8-0.6 1.4-1.4 1.4 -0.8 0-1.4-0.6-1.4-1.4 0-0.8 0.6-1.4 1.4-1.4C205.5 1.4 206.2 2 206.2 2.8"/>
    <path id="star9" class="st17" d="M550.6 326.2c0 2.2-1.8 4-4 4s-4-1.8-4-4c0-2.2 1.8-4 4-4S550.6 324 550.6 326.2"/>
    <path id="star8" class="st17" d="M224.7 154.2c0 1.2-1 2.2-2.2 2.2 -1.2 0-2.2-1-2.2-2.2 0-1.2 1-2.2 2.2-2.2C223.8 152 224.7 153 224.7 154.2"/>
    <path id="star7" class="st17" d="M141.8 648.6c0 2.2-1.8 4-4 4s-4-1.8-4-4c0-2.2 1.8-4 4-4S141.8 646.4 141.8 648.6"/>
    <path id="star6" class="st17" d="M29.9 383.4c0 2.2-1.8 4-4 4s-4-1.8-4-4c0-2.2 1.8-4 4-4S29.9 381.2 29.9 383.4"/>
    <path id="star5" class="st17" d="M442.9 100.1c0 2.2-1.8 4-4 4s-4-1.8-4-4c0-2.2 1.8-4 4-4S442.9 97.9 442.9 100.1"/>
    <path id="star4" class="st17" d="M267.1 59.7c0 1.2-1 2.2-2.2 2.2 -1.2 0-2.2-1-2.2-2.2 0-1.2 1-2.2 2.2-2.2C266.1 57.5 267.1 58.5 267.1 59.7"/>
    <path id="star3" class="st17" d="M63.1 345.2c0 1.2-1 2.2-2.2 2.2 -1.2 0-2.2-1-2.2-2.2 0-1.2 1-2.2 2.2-2.2C62.1 343 63.1 344 63.1 345.2"/>
    <path id="star2" class="st17" d="M421.4 440.7c0 1.2-1 2.2-2.2 2.2 -1.2 0-2.2-1-2.2-2.2 0-1.2 1-2.2 2.2-2.2C420.4 438.6 421.4 439.5 421.4 440.7"/>
    <path id="star1" class="st17" d="M84.4 205.4c0 2.2-1.8 4-4 4s-4-1.8-4-4c0-2.2 1.8-4 4-4S84.4 203.2 84.4 205.4"/>
  </g>
  <g class="spaceman">
    <line class="st9" x1="250.4" y1="194.9" x2="270.6" y2="144"/>
    <path class="st18" d="M326.3 455c-14.7 37.2-60.6 59-100.3 43.3 -39.7-15.7-58.1-63.1-43.3-100.3l6.7-21.6 146 60.6L326.3 455z"/>
    <path class="st14" d="M326.3 455c-14.7 37.2-60.6 59-100.3 43.3 -39.7-15.7-58.1-63.1-43.3-100.3l6.7-21.6 146 60.6L326.3 455z"/>
    <defs>
      <path id="SVGID_1_" d="M424.7 287.4c-1 2.3-1.5 4.6-1.5 7l-0.3 0c0.1 7.7-2.1 15-6.6 21.3 -11.4 15.9-33.6 19.6-49.5 8.2L348 350.3c30.5 21.8 73 14.8 94.8-15.7 5.1-7.1 8.7-14.9 10.7-23.1 1.4-5.7 2.1-11.7 2-17.7l-0.3 0c-0.1-5.9-3.5-11.5-9.2-14.1 -2.2-1-4.4-1.5-6.7-1.5C433.2 278.2 427.4 281.6 424.7 287.4"/>
    </defs>
    <clipPath id="SVGID_2_">
      <use xlink:href="#SVGID_1_" overflow="visible"/>
    </clipPath>
    <path class="st4" d="M445.9 279.6c-8-3.7-17.4-0.2-21.1 7.8 -1 2.3-1.5 4.6-1.5 7l-0.3 0c0.1 7.7-2.1 15-6.6 21.3 -11.4 15.9-33.6 19.6-49.5 8.2L348 350.3c30.5 21.8 73 14.8 94.8-15.7 5.1-7.1 8.7-14.9 10.7-23.1 1.4-5.7 2.1-11.7 2-17.7l-0.3 0C455 287.9 451.6 282.3 445.9 279.6"/>
    <line class="st6" x1="384" y1="299.1" x2="334.2" y2="367.5"/>
    <line class="st6" x1="387.6" y1="300.4" x2="351.4" y2="376.9"/>
    <line class="st6" x1="391.3" y1="301" x2="370" y2="382.9"/>
    <line class="st6" x1="395.1" y1="301" x2="389.4" y2="385.4"/>
    <line class="st6" x1="398.8" y1="300.2" x2="408.9" y2="384.2"/>
    <line class="st6" x1="402.3" y1="298.7" x2="427.8" y2="379.4"/>
    <line class="st6" x1="405.4" y1="296.7" x2="445.6" y2="371.1"/>
    <line class="st6" x1="408.2" y1="294" x2="461.5" y2="359.7"/>
    <line class="st6" x1="410.3" y1="290.9" x2="475" y2="345.6"/>
    <line class="st6" x1="411.9" y1="287.5" x2="485.6" y2="329.1"/>
    <line class="st6" x1="412.8" y1="283.8" x2="492.9" y2="311"/>
    <line class="st6" x1="413" y1="280" x2="496.8" y2="291.9"/>
    <line class="st6" x1="412.5" y1="276.3" x2="497" y2="272.3"/>
    <defs>
      <path id="SVGID_3_" d="M150.5 284.5c-5.1 7.1-8.7 14.9-10.7 23.1 -1.4 5.7-2.1 11.7-2 17.7l0.3 0c0.1 5.9 3.5 11.5 9.2 14.1 8 3.7 17.4 0.2 21.1-7.8 1-2.3 1.5-4.6 1.5-7l0.3 0c-0.1-7.7 2.1-15 6.6-21.3 11.4-15.9 33.6-19.6 49.5-8.2l18.9-26.4c-12-8.6-25.8-12.7-39.5-12.7C184.7 256.1 163.8 266 150.5 284.5"/>
    </defs>
    <clipPath id="SVGID_4_">
      <use xlink:href="#SVGID_3_" overflow="visible"/>
    </clipPath>
    <path class="st7" d="M147.4 339.4c8 3.7 17.4 0.2 21.1-7.8 1-2.3 1.5-4.6 1.5-7l0.3 0c-0.1-7.7 2.1-15 6.6-21.3 11.4-15.9 33.6-19.6 49.5-8.2l18.9-26.4c-30.5-21.8-73-14.8-94.8 15.7 -5.1 7.1-8.7 14.9-10.7 23.1 -1.4 5.7-2.1 11.7-2 17.7l0.3 0C138.3 331.2 141.7 336.8 147.4 339.4"/>
    <line class="st5" x1="209.3" y1="320" x2="259.1" y2="251.6"/>
    <line class="st5" x1="205.7" y1="318.7" x2="241.9" y2="242.2"/>
    <line class="st5" x1="202" y1="318.1" x2="223.3" y2="236.2"/>
    <line class="st5" x1="198.2" y1="318.1" x2="203.9" y2="233.7"/>
    <line class="st5" x1="194.5" y1="318.9" x2="184.4" y2="234.9"/>
    <line class="st5" x1="191" y1="320.4" x2="165.4" y2="239.7"/>
    <line class="st5" x1="187.9" y1="322.4" x2="147.7" y2="247.9"/>
    <line class="st5" x1="185.1" y1="325.1" x2="131.8" y2="259.3"/>
    <line class="st5" x1="183" y1="328.1" x2="118.3" y2="273.5"/>
    <line class="st5" x1="181.4" y1="331.6" x2="107.7" y2="289.9"/>
    <line class="st5" x1="180.5" y1="335.3" x2="100.4" y2="308.1"/>
    <line class="st5" x1="180.3" y1="339" x2="96.5" y2="327.2"/>
    <line class="st5" x1="180.8" y1="342.8" x2="96.3" y2="346.8"/>
    <path class="st18" d="M342.5 435.2c-5.1 12.8-19.7 19.1-32.5 14l-111.4-44.2c-12.8-5.1-19.1-19.7-14-32.5l13-32.8c5.1-12.8 16.5-31.8 25.3-42.3l25.3-29.9c8.9-10.5 26.6-15 39.4-9.9l58.7 23.3c12.8 5.1 22.6 20.4 21.7 34.2l-2.5 41c-0.8 13.7-5.7 35.4-10.7 48.2L342.5 435.2z"/>
    <path class="st14" d="M342.5 435.2c-5.1 12.8-19.7 19.1-32.5 14l-111.4-44.2c-12.8-5.1-19.1-19.7-14-32.5l13-32.8c5.1-12.8 16.5-31.8 25.3-42.3l25.3-29.9c8.9-10.5 26.6-15 39.4-9.9l58.7 23.3c12.8 5.1 22.6 20.4 21.7 34.2l-2.5 41c-0.8 13.7-5.7 35.4-10.7 48.2L342.5 435.2z"/>
    <path class="st18" d="M409 265c-17.1 43.1-65.9 64.2-109 47.1 -43.1-17.1-64.2-65.9-47.1-109 17.1-43.1 65.9-64.2 109-47.1C405 173 426.1 221.8 409 265"/>
    <circle class="st14" cx="330.9" cy="234" r="84"/>
    <path class="st18" d="M252.6 203.1c-2.5 6.3-2.9 12-9.2 9.6 -6.3-2.5-2.6-7-0.1-13.3 2.5-6.3 2.9-12 9.2-9.6C258.7 192.3 255.1 196.8 252.6 203.1"/>
    <path class="st14" d="M252.6 203.1c-2.5 6.3-2.9 12-9.2 9.6 -6.3-2.5-2.6-7-0.1-13.3 2.5-6.3 2.9-12 9.2-9.6C258.7 192.3 255.1 196.8 252.6 203.1z"/>
    <path class="st18" d="M418.4 268.8c-2.5 6.3-2.9 12-9.2 9.6 -6.3-2.5-2.6-7-0.1-13.3 2.5-6.3 2.9-12 9.2-9.6C424.6 258.1 420.9 262.5 418.4 268.8"/>
    <path class="st14" d="M418.4 268.8c-2.5 6.3-2.9 12-9.2 9.6 -6.3-2.5-2.6-7-0.1-13.3 2.5-6.3 2.9-12 9.2-9.6C424.6 258.1 420.9 262.5 418.4 268.8z"/>
    <path class="st22" d="M404.3 263.1c-13.1 33.2-56.7 47-97.2 30.9 -40.6-16.1-62.8-56-49.6-89.2 13.1-33.2 56.7-47 97.2-30.9C395.2 190.1 417.5 230 404.3 263.1"/>
    <defs>
      <path id="SVGID_5_" d="M257.4 204.9c-13.1 33.2 9.1 73.1 49.6 89.2 40.6 16.1 84.1 2.2 97.2-30.9 13.1-33.2-9.1-73.1-49.6-89.2 -11.5-4.6-23.2-6.7-34.4-6.7C291.9 167.3 266.9 181.1 257.4 204.9"/>
    </defs>
    <clipPath id="SVGID_6_">
      <use xlink:href="#SVGID_5_" overflow="visible"/>
    </clipPath>
    <path class="st25" d="M375.1 249.6c10-25.1-2.3-53.6-27.4-63.5 -25.1-10-53.6 2.4-63.5 27.5l-32.4 72.5 100.4 39.8L375.1 249.6z"/>
    <defs>
      <path id="SVGID_7_" d="M284.2 213.6l-20.3 45.4c9.2 14.8 24.2 27.6 43.2 35.1 18.2 7.2 36.9 8.4 53.3 4.6l14.8-49c10-25.1-2.3-53.6-27.4-63.5 -5.9-2.3-12-3.4-18-3.5C310.2 182.6 291.8 194.3 284.2 213.6"/>
    </defs>
    <clipPath id="SVGID_8_">
      <use xlink:href="#SVGID_7_" overflow="visible"/>
    </clipPath>
    <g class="st1">
      <defs>
        <rect id="SVGID_9_" x="358.6" y="260.6" width="20.2" height="20.2"/>
      </defs>
      <clipPath id="SVGID_10_">
        <use xlink:href="#SVGID_9_" overflow="visible"/>
      </clipPath>
      <path class="st12" d="M378.1 274.4c-2.1 5.2-7.9 7.7-13.1 5.7 -5.2-2.1-7.7-7.9-5.7-13.1 2.1-5.2 7.9-7.7 13.1-5.7C377.6 263.3 380.1 269.2 378.1 274.4"/>
    </g>
    <defs>
      <path id="SVGID_11_" d="M257.4 204.9c-13.1 33.2 9.1 73.1 49.6 89.2 40.6 16.1 84.1 2.2 97.2-30.9 13.1-33.2-9.1-73.1-49.6-89.2 -11.5-4.6-23.2-6.7-34.4-6.7C291.9 167.3 266.9 181.1 257.4 204.9"/>
    </defs>
    <clipPath id="SVGID_12_">
      <use xlink:href="#SVGID_11_" overflow="visible"/>
    </clipPath>
    <g class="st28">
      <defs>
        <rect id="SVGID_13_" x="298.4" y="236.7" width="20.2" height="20.2"/>
      </defs>
      <clipPath id="SVGID_14_">
        <use xlink:href="#SVGID_13_" overflow="visible"/>
      </clipPath>
      <path class="st24" d="M317.9 250.5c-2.1 5.2-7.9 7.7-13.1 5.7 -5.2-2.1-7.7-7.9-5.7-13.1 2.1-5.2 7.9-7.7 13.1-5.7C317.5 239.5 320 245.4 317.9 250.5"/>
    </g>
    <g class="st13">
      <defs>
        <rect id="SVGID_15_" x="355.9" y="244.8" width="10.3" height="9"/>
      </defs>
      <clipPath id="SVGID_16_">
        <use xlink:href="#SVGID_15_" overflow="visible"/>
      </clipPath>
      <path class="st19" d="M355.9 244.8l10.3 8.7C366.2 253.5 357.4 256 355.9 244.8"/>
    </g>
    <g class="st13">
      <defs>
        <rect id="SVGID_17_" x="324.2" y="236.7" width="13.4" height="4"/>
      </defs>
      <clipPath id="SVGID_18_">
        <use xlink:href="#SVGID_17_" overflow="visible"/>
      </clipPath>
      <path class="st23" d="M324.2 236.7l13.4 1.2C337.7 237.9 332 245 324.2 236.7"/>
    </g>
    <path class="st26" d="M338.9 236.5c-0.9 2.2-3.4 3.3-5.7 2.5 -2.2-0.9-3.3-3.4-2.4-5.7 0.9-2.2 3.4-3.3 5.7-2.4C338.7 231.7 339.8 234.3 338.9 236.5"/>
    <path class="st20" d="M337.8 236.7c-0.3 0.9-1.3 1.3-2.2 1 -0.9-0.3-1.3-1.3-1-2.2 0.3-0.9 1.3-1.3 2.2-1C337.7 234.8 338.2 235.8 337.8 236.7"/>
    <path class="st26" d="M363.8 246.4c-0.9 2.2-3.4 3.3-5.7 2.5 -2.2-0.9-3.3-3.4-2.4-5.7 0.9-2.2 3.4-3.3 5.7-2.4C363.6 241.6 364.7 244.2 363.8 246.4"/>
    <path class="st20" d="M362.8 246.6c-0.3 0.9-1.3 1.3-2.2 1 -0.9-0.3-1.3-1.3-1-2.2 0.3-0.9 1.3-1.3 2.2-1C362.7 244.7 363.1 245.7 362.8 246.6"/>
    <path class="st26" d="M341.3 256.3c-0.1 0.3-0.4 0.4-0.7 0.3 -0.3-0.1-0.4-0.4-0.3-0.7 0.1-0.3 0.4-0.4 0.7-0.3C341.3 255.7 341.4 256 341.3 256.3"/>
    <path class="st26" d="M346.7 258.5c-0.1 0.3-0.4 0.4-0.7 0.3 -0.3-0.1-0.4-0.4-0.3-0.7 0.1-0.3 0.4-0.4 0.7-0.3C346.6 257.8 346.8 258.2 346.7 258.5"/>
    <g class="st0">
      <defs>
        <rect id="SVGID_19_" x="251.8" y="188.6" width="108.5" height="137.3"/>
      </defs>
      <clipPath id="SVGID_20_">
        <use xlink:href="#SVGID_19_" overflow="visible"/>
      </clipPath>
      <path class="st2" d="M312.8 202.6c0 0-68.1 76.7 47.5 96.2l-8.2 27.1 -100.4-39.8 38.4-85.8 7.7-11.8L312.8 202.6z"/>
    </g>
    <path class="st26" d="M418.3 211.6c-15 3.9-30.5 0.4-33.8-0.5 3.1-14.1-4.4-28.9-18.3-34.4 -0.3-0.1-0.7-0.2-1-0.3 -18.2-8.2-42.5-10-42.5-10 -11.3-0.6-13.3-11.6-13.3-11.6 -2.3 5.7-2.2 11.3-2.2 11.3 -6.9-8.1-17.1-5.1-17.1-5.1 0.1 0.1 0.2 0.2 0.4 0.3 0.3 0.1 0.7 0.2 1 0.3 5.3 2.1 7.8 8 5.7 13.3 -2.1 5.3-8 7.8-13.3 5.7 -0.7-0.3-1.3-0.6-1.8-0.9 1 5.1 3.4 8.7 3.4 8.7 -10.3 22.4-4 35.3-4 35.3 7.1-18 20.8-25.1 20.8-25.1C408.6 284.7 418.3 211.6 418.3 211.6"/>
    <path class="st26" d="M345.9 272.3c0 4.3-3.5 7.7-7.7 7.7 -4.3 0-7.7-3.5-7.7-7.7 0-4.3 3.5-7.7 7.7-7.7C342.4 264.6 345.9 268.1 345.9 272.3"/>
    <g class="st28">
      <defs>
        <rect id="SVGID_21_" x="148.4" y="64.1" width="305.9" height="294.7"/>
      </defs>
      <clipPath id="SVGID_22_">
        <use xlink:href="#SVGID_21_" overflow="visible"/>
      </clipPath>
      <rect x="180.7" y="100.8" transform="matrix(-0.9296 -0.3686 0.3686 -0.9296 503.5692 519.1309)" class="st10" width="241.3" height="221.3"/>
    </g>
    <path class="st27" d="M148.5 567.3c-10.2-4-15.2-15.5-11.3-25.7 18.8-49.3 47.7-89.3 48.9-90.9 6.5-8.9 19-10.9 27.9-4.4 8.9 6.5 10.9 19 4.4 27.9 -0.4 0.6-27.1 37.6-43.9 81.6 -3.9 10.3-15.5 15.5-25.8 11.6C148.7 567.4 148.6 567.4 148.5 567.3"/>
    <defs>
      <path id="SVGID_23_" d="M186.1 450.7c-1.2 1.7-30.1 41.6-48.9 90.9 -3.9 10.2 1.2 21.7 11.3 25.7 0.1 0 0.2 0.1 0.3 0.1 10.3 3.9 21.9-1.2 25.8-11.6 16.8-44 43.5-81.1 43.9-81.6 6.5-8.9 4.5-21.4-4.4-27.9 -3.6-2.6-7.7-3.8-11.8-3.8C196.1 442.4 190 445.3 186.1 450.7"/>
    </defs>
    <clipPath id="SVGID_24_">
      <use xlink:href="#SVGID_23_" overflow="visible"/>
    </clipPath>
    <line class="st21" x1="159.3" y1="425" x2="259.8" y2="483.9"/>
    <line class="st21" x1="154.6" y1="437" x2="255.2" y2="495.9"/>
    <line class="st21" x1="150" y1="448.9" x2="250.6" y2="507.8"/>
    <line class="st21" x1="145.4" y1="460.9" x2="246" y2="519.8"/>
    <line class="st21" x1="140.8" y1="472.8" x2="241.4" y2="531.7"/>
    <line class="st21" x1="136.2" y1="484.8" x2="236.7" y2="543.7"/>
    <line class="st21" x1="131.5" y1="496.7" x2="232.1" y2="555.6"/>
    <line class="st21" x1="126.9" y1="508.6" x2="227.5" y2="567.5"/>
    <line class="st21" x1="122.3" y1="520.6" x2="222.9" y2="579.5"/>
    <path class="st27" d="M240.6 603.8c10.2 4 21.7-0.8 25.9-11 20.1-48.8 26.4-97.7 26.7-99.7 1.4-11-6.4-21-17.3-22.3 -11-1.4-21 6.4-22.3 17.3 -0.1 0.7-6 46-24 89.5 -4.2 10.2 0.7 21.9 10.9 26.1C240.4 603.8 240.5 603.8 240.6 603.8"/>
    <defs>
      <path id="SVGID_25_" d="M253.4 488.1c-0.1 0.7-6 46-24 89.5 -4.2 10.2 0.7 21.9 10.9 26.1 0.1 0 0.2 0.1 0.2 0.1 10.2 4 21.7-0.8 25.9-11 20.1-48.8 26.4-97.7 26.7-99.7 1.4-11-6.4-21-17.3-22.3 -0.9-0.1-1.7-0.2-2.5-0.2C263.3 470.6 254.7 478 253.4 488.1"/>
    </defs>
    <clipPath id="SVGID_26_">
      <use xlink:href="#SVGID_25_" overflow="visible"/>
    </clipPath>
    <line class="st15" x1="330.2" y1="492.8" x2="216.6" y2="466.8"/>
    <line class="st15" x1="325.4" y1="504.7" x2="211.8" y2="478.7"/>
    <line class="st15" x1="320.6" y1="516.6" x2="207" y2="490.5"/>
    <line class="st15" x1="315.8" y1="528.4" x2="202.2" y2="502.4"/>
    <line class="st15" x1="311" y1="540.3" x2="197.3" y2="514.3"/>
    <line class="st15" x1="306.1" y1="552.2" x2="192.5" y2="526.1"/>
    <line class="st15" x1="301.3" y1="564" x2="187.7" y2="538"/>
    <line class="st15" x1="296.5" y1="575.9" x2="182.9" y2="549.9"/>
    <line class="st15" x1="291.7" y1="587.7" x2="178.1" y2="561.7"/>
    <path class="st18" d="M138.3 538.7c0 0 19.2 1.5 36.9 14.6 0 0-0.2 24-5.9 27.5l-44.6-17.7C124.7 563.1 124.8 553.7 138.3 538.7"/>
    <path class="st18" d="M229.9 575c0 0 19.2 1.5 36.9 14.6 0 0-0.2 24-5.9 27.5l-44.6-17.7C216.3 599.4 216.3 590 229.9 575"/>
    <path class="st18" d="M333.8 361.7c-2.8 7.2-11 10.7-18.2 7.9l-66.5-26.4c-7.2-2.8-10.7-11-7.9-18.2l2.8-7c2.8-7.2 11-10.7 18.2-7.9l66.5 26.4c7.2 2.8 10.7 11 7.9 18.2L333.8 361.7z"/>
    <path class="st14" d="M333.8 361.7c-2.8 7.2-11 10.7-18.2 7.9l-66.5-26.4c-7.2-2.8-10.7-11-7.9-18.2l2.8-7c2.8-7.2 11-10.7 18.2-7.9l66.5 26.4c7.2 2.8 10.7 11 7.9 18.2L333.8 361.7z"/>
    <path class="st17" d="M268 331.5c-1.7 4.4-6.7 6.5-11 4.8 -4.4-1.7-6.5-6.7-4.8-11 1.7-4.4 6.7-6.5 11-4.8C267.6 322.2 269.8 327.1 268 331.5"/>
    <circle class="st14" cx="260.1" cy="328.3" r="8.5"/>
    <path class="st17" d="M296.8 342.9c-1.7 4.4-6.7 6.5-11 4.8 -4.4-1.7-6.5-6.7-4.8-11 1.7-4.4 6.7-6.5 11-4.8C296.4 333.6 298.6 338.5 296.8 342.9"/>
    <circle class="st14" cx="288.9" cy="339.8" r="8.5"/>
    <path class="st17" d="M325.7 354.3c-1.7 4.4-6.7 6.5-11 4.8 -4.4-1.7-6.5-6.7-4.8-11 1.7-4.4 6.7-6.5 11-4.8C325.3 345 327.4 349.9 325.7 354.3"/>
    <circle class="st14" cx="317.8" cy="351.2" r="8.5"/>
    <rect x="260.8" y="353.6" transform="matrix(0.9296 0.3686 -0.3686 0.9296 163.2767 -71.3191)" class="st18" width="15" height="76.2"/>
    <rect x="260.8" y="353.6" transform="matrix(0.9296 0.3686 -0.3686 0.9296 163.2767 -71.3191)" class="st14" width="15" height="76.2"/>
    <line class="st18" x1="274.4" y1="360.2" x2="285.5" y2="364.6"/>
    <line class="st14" x1="274.4" y1="360.2" x2="285.5" y2="364.6"/>
    <line class="st18" x1="272.1" y1="365.9" x2="283.3" y2="370.3"/>
    <line class="st14" x1="272.1" y1="365.9" x2="283.3" y2="370.3"/>
    <line class="st18" x1="269.8" y1="371.6" x2="281" y2="376.1"/>
    <line class="st14" x1="269.8" y1="371.6" x2="281" y2="376.1"/>
    <line class="st18" x1="267.6" y1="377.4" x2="278.7" y2="381.8"/>
    <line class="st14" x1="267.6" y1="377.4" x2="278.7" y2="381.8"/>
    <line class="st18" x1="265.3" y1="383.1" x2="276.5" y2="387.5"/>
    <line class="st14" x1="265.3" y1="383.1" x2="276.5" y2="387.5"/>
    <line class="st18" x1="263" y1="388.8" x2="274.2" y2="393.3"/>
    <line class="st14" x1="263" y1="388.8" x2="274.2" y2="393.3"/>
    <line class="st18" x1="260.8" y1="394.6" x2="271.9" y2="399"/>
    <line class="st14" x1="260.8" y1="394.6" x2="271.9" y2="399"/>
    <line class="st18" x1="258.5" y1="400.3" x2="269.6" y2="404.7"/>
    <line class="st14" x1="258.5" y1="400.3" x2="269.6" y2="404.7"/>
    <line class="st18" x1="256.2" y1="406" x2="267.4" y2="410.5"/>
    <line class="st14" x1="256.2" y1="406" x2="267.4" y2="410.5"/>
    <line class="st18" x1="253.9" y1="411.8" x2="265.1" y2="416.2"/>
    <line class="st14" x1="253.9" y1="411.8" x2="265.1" y2="416.2"/>
    <line class="st18" x1="251.7" y1="417.5" x2="262.8" y2="421.9"/>
    <line class="st14" x1="251.7" y1="417.5" x2="262.8" y2="421.9"/>
    <path class="st18" d="M215.1 363.2l-6.5 16.4c-2.7 6.8 0.6 14.5 7.4 17.2 6.8 2.7 14.5-0.6 17.2-7.4l6.5-16.4L215.1 363.2z"/>
    <path class="st14" d="M215.1 363.2l-6.5 16.4c-2.7 6.8 0.6 14.5 7.4 17.2 6.8 2.7 14.5-0.6 17.2-7.4l6.5-16.4L215.1 363.2z"/>
    <path class="st18" d="M301.9 397.6l-6.5 16.4c-2.7 6.8 0.6 14.5 7.4 17.2 6.8 2.7 14.5-0.6 17.2-7.4l6.5-16.4L301.9 397.6z"/>
    <path class="st14" d="M301.9 397.6l-6.5 16.4c-2.7 6.8 0.6 14.5 7.4 17.2 6.8 2.7 14.5-0.6 17.2-7.4l6.5-16.4L301.9 397.6z"/>
    <g class="st16">
      <defs>
        <rect id="SVGID_27_" x="260.5" y="178.6" width="90" height="90"/>
      </defs>
      <clipPath id="SVGID_28_">
        <use xlink:href="#SVGID_27_" overflow="visible"/>
      </clipPath>
      <path class="st3" d="M350.5 223.6c0 24.9-20.1 45-45 45 -24.9 0-45-20.1-45-45 0-24.9 20.1-45 45-45C330.3 178.6 350.5 198.8 350.5 223.6"/>
    </g>
    <g class="st16">
      <defs>
        <rect id="SVGID_29_" x="368.1" y="248.4" width="26" height="26"/>
      </defs>
      <clipPath id="SVGID_30_">
        <use xlink:href="#SVGID_29_" overflow="visible"/>
      </clipPath>
      <path class="st11" d="M394.1 261.4c0 7.2-5.8 13-13 13s-13-5.8-13-13c0-7.2 5.8-13 13-13S394.1 254.2 394.1 261.4"/>
    </g>
  </g>
  <g class="planet">
    <path class="st17" d="M162.9 44c3.3 17.2-8 33.8-25.2 37.1 -17.2 3.3-33.8-8-37.1-25.2 -3.3-17.2 8-33.8 25.2-37.1C143 15.5 159.6 26.7 162.9 44"/>
    <path class="st8" d="M168.8 42.9c-9.7 3.1-22 6.3-36.6 9.1 -13.2 2.5-26.2 4.3-37.4 5.1 9.7-3.1 22-6.3 36.6-9.1C144.5 45.4 157.5 43.7 168.8 42.9M181.8 30.3c-13.7 0-32.4 1.9-52.7 5.8 -40.3 7.7-71.8 20.1-70.3 27.7 0.7 3.8 9.4 5.7 22.9 5.7 13.7 0 32.4-1.9 52.7-5.8 40.3-7.7 71.8-20.1 70.3-27.7C204 32.2 195.3 30.3 181.8 30.3"/>
    <path class="st17" d="M100.6 55.9c-3.3-17.2 8-33.8 25.2-37.1 17.2-3.3 33.8 8 37.1 25.2"/>
  </g>
</svg>