<svg xmlns="http://www.w3.org/2000/svg" xmlns:xlink="http://www.w3.org/1999/xlink" version="1.1" class="titanic__svg" x="0" y="0" width="604" height="230" viewBox="0 0 604 230" xml:space="preserve" enable-background="new 0 0 604 230">
  <style type="text/css">

	.titanic__svg .st0{clip-path:url(#SVGID_6_);fill:#FFA3A3;}
	.titanic__svg .st1{opacity:0.2;clip-path:url(#SVGID_4_);}
	.titanic__svg .st2{clip-path:url(#SVGID_18_);fill:#FFA3A3;}
	.titanic__svg .st3{fill:#E2B79F;}
	.titanic__svg .st4{fill:none;stroke:#F2CFB8;stroke-width:2;stroke-linecap:round;stroke-miterlimit:10;}
	.titanic__svg .st5{clip-path:url(#SVGID_10_);fill:#B69B8A;}
	.titanic__svg .st6{clip-path:url(#SVGID_22_);fill:#B69B8A;}
	.titanic__svg .st7{fill:#1D5970;}
	.titanic__svg .st8{clip-path:url(#SVGID_12_);fill:#B69B8A;}
	.titanic__svg .st9{clip-path:url(#SVGID_24_);fill:#B69B8A;}
	.titanic__svg .st10{fill:#BFA14C;}
	.titanic__svg .st11{fill:#F2CFB8;}
	.titanic__svg .st12{fill:#277695;}
	.titanic__svg .st13{clip-path:url(#SVGID_20_);fill:#FFA3A3;}
	.titanic__svg .st14{clip-path:url(#SVGID_14_);fill:#1D5970;}
	.titanic__svg .st15{opacity:0.2;}
	.titanic__svg .st16{opacity:0.4;}
	.titanic__svg .st17{opacity:0.5;}
	.titanic__svg .st18{opacity:0.6;}
	.titanic__svg .st19{fill:#FF573B;}
	.titanic__svg .st20{fill:none;stroke:#FFFFFF;stroke-width:0.2;stroke-miterlimit:10;}
	.titanic__svg .st21{fill:#FFFFFF;}
	.titanic__svg .st22{clip-path:url(#SVGID_28_);fill:#B69B8A;}
	.titanic__svg .st23{clip-path:url(#SVGID_2_);fill:#FFFFFF;}
	.titanic__svg .st24{clip-path:url(#SVGID_14_);fill:#FFFFFF;}
	.titanic__svg .st25{clip-path:url(#SVGID_26_);fill:#FFFFFF;}
	.titanic__svg .st26{fill:#0A1D25;}
	.titanic__svg .st27{fill:#0F2D38;}
	.titanic__svg .st28{fill:none;stroke:#1D5970;stroke-width:0.2;stroke-miterlimit:10;}
	.titanic__svg .st29{clip-path:url(#SVGID_8_);fill:#F48E8E;}
	.titanic__svg .st30{opacity:0.2;clip-path:url(#SVGID_16_);}

  </style>
  <path class="st10" d="M586 72.3c0 0 1-3.1-2.2-2.5 -3.2 0.6 0.3 1.6 0.3 1.6L586 72.3z"/>
  <rect x="579.7" y="95.2" class="st11" width="2" height="4"/>
  <rect x="579.7" y="92.2" class="st26" width="3" height="7"/>
  <rect x="583.7" y="95.2" class="st11" width="2" height="4"/>
  <rect x="583.7" y="92.2" class="st26" width="3" height="7"/>
  <defs>
    <path id="SVGID_1_" d="M579.5 80.2l-1.1 8.9c-0.1 0.4-0.1 0.7-0.1 1.1 0 2.8 2.3 5 5.1 5 2.8 0 5.1-2.2 5.1-5 0-0.4-0.1-0.7-0.1-1.1l-1.1-8.9H579.5z"/>
  </defs>
  <clipPath id="SVGID_2_">
    <use xlink:href="#SVGID_1_" overflow="visible"/>
  </clipPath>
  <path class="st23" d="M588.4 90.1c0-0.4 0-0.6-0.1-1l-1.1-8.9h-7.7l-1.1 8.9c-0.1 0.4-0.1 0.7-0.1 1.1"/>
  <rect x="583.7" y="82.2" class="st23" width="4" height="4"/>
  <path class="st26" d="M588.4 90.2c0 3-2.2 4.7-5 4.7 -2.8 0-5-1.7-5-4.7H588.4z"/>
  <path class="st3" d="M586.7 74.4c0-1.9-1.6-3.5-3.5-3.5s-3.5 1.7-3.5 3.6l-0.2 5.7h7.7L586.7 74.4z"/>
  <defs>
    <path id="SVGID_3_" d="M579.7 74.4l-0.2 5.7h7.7l-0.5-5.8c0-1.9-1.6-3.5-3.5-3.5C581.3 70.8 579.7 72.5 579.7 74.4"/>
  </defs>
  <clipPath id="SVGID_4_">
    <use xlink:href="#SVGID_3_" overflow="visible"/>
  </clipPath>
  <g class="st1">
    <defs>
      <rect id="SVGID_5_" x="586.1" y="75.1" width="1.4" height="1.4"/>
    </defs>
    <clipPath id="SVGID_6_">
      <use xlink:href="#SVGID_5_" overflow="visible"/>
    </clipPath>
    <path class="st0" d="M587.5 75.8c0 0.4-0.3 0.7-0.7 0.7s-0.7-0.3-0.7-0.7 0.3-0.7 0.7-0.7S587.5 75.4 587.5 75.8"/>
  </g>
  <g class="st18">
    <defs>
      <rect id="SVGID_7_" x="581.5" y="75.1" width="1.4" height="1.4"/>
    </defs>
    <clipPath id="SVGID_8_">
      <use xlink:href="#SVGID_7_" overflow="visible"/>
    </clipPath>
    <path class="st29" d="M582.9 75.8c0 0.4-0.3 0.7-0.7 0.7s-0.7-0.3-0.7-0.7 0.3-0.7 0.7-0.7S582.9 75.4 582.9 75.8"/>
  </g>
  <g class="st17">
    <defs>
      <rect id="SVGID_9_" x="585.3" y="74.4" width="0.9" height="0.4"/>
    </defs>
    <clipPath id="SVGID_10_">
      <use xlink:href="#SVGID_9_" overflow="visible"/>
    </clipPath>
    <path class="st5" d="M585.3 74.4l0.9 0.3C586.2 74.7 585.7 75.1 585.3 74.4"/>
  </g>
  <g class="st17">
    <defs>
      <rect id="SVGID_11_" x="583" y="74.5" width="0.9" height="0.4"/>
    </defs>
    <clipPath id="SVGID_12_">
      <use xlink:href="#SVGID_11_" overflow="visible"/>
    </clipPath>
    <path class="st8" d="M583 74.7l0.9-0.3C583.9 74.5 583.7 75.1 583 74.7"/>
  </g>
  <path d="M584 74.3c0 0.2-0.1 0.3-0.3 0.3 -0.2 0-0.3-0.1-0.3-0.3 0-0.2 0.1-0.3 0.3-0.3C583.8 74 584 74.2 584 74.3"/>
  <path class="st21" d="M583.9 74.4c0 0.1-0.1 0.1-0.1 0.1 -0.1 0-0.1-0.1-0.1-0.1 0-0.1 0.1-0.1 0.1-0.1C583.8 74.2 583.9 74.3 583.9 74.4"/>
  <path d="M585.9 74.3c0 0.2-0.1 0.3-0.3 0.3s-0.3-0.1-0.3-0.3c0-0.2 0.1-0.3 0.3-0.3S585.9 74.2 585.9 74.3"/>
  <path class="st21" d="M585.8 74.4c0 0.1-0.1 0.1-0.1 0.1s-0.1-0.1-0.1-0.1c0-0.1 0.1-0.1 0.1-0.1S585.8 74.3 585.8 74.4"/>
  <path d="M584.6 75.6C584.6 75.6 584.6 75.6 584.6 75.6 584.6 75.6 584.5 75.6 584.6 75.6 584.5 75.6 584.6 75.5 584.6 75.6 584.6 75.5 584.6 75.6 584.6 75.6"/>
  <path d="M585 75.6C585 75.6 585 75.6 585 75.6 585 75.6 585 75.6 585 75.6 585 75.6 585 75.5 585 75.6 585 75.5 585 75.6 585 75.6"/>
  <path d="M585.2 76.2c0 0.2-0.2 0.4-0.4 0.4 -0.2 0-0.4-0.2-0.4-0.4 0-0.2 0.2-0.4 0.4-0.4C585 75.8 585.2 76 585.2 76.2"/>
  <path class="st26" d="M584.6 100.2c0-0.7 0.6-1.3 1.3-1.3 0.7 0 1.3 0.6 1.3 1.3H584.6z"/>
  <polygon class="st26" points="584.2 100.2 584.2 98.9 585.9 98.9 585 99.9 585.1 100.2 "/>
  <path class="st26" d="M580.6 100.2c0-0.7 0.6-1.3 1.3-1.3 0.7 0 1.3 0.6 1.3 1.3H580.6z"/>
  <polygon class="st26" points="580.2 100.2 580.2 98.9 581.9 98.9 581 99.9 581.1 100.2 "/>
  <path class="st4" d="M594.6 81.5c1-0.3 1.9-0.7 2.7-1.2 0.8-0.5 1.6-1.5 2.1-2"/>
  <path class="st27" d="M0.8 111.2c0 0 11.2 14.1 5.6 43.3l0 0c-3.6 7-5.6 14.9-5.6 23.2 0 28.1 22.8 50.9 50.9 50.9h420.2c28.1 0 109-22.8 109-50.9 0 0 2.3-66.5 22.3-66.5H0.8z"/>
  <path class="st19" d="M0.8 177.7c0 28.1 22.8 50.9 50.9 50.9h423.9c28.1 0 105.2-22.8 105.2-50.9H0.8z"/>
  <rect x="0.8" y="100.2" class="st21" width="602.3" height="10.5"/>
  <polygon class="st21" points="323.5 100.2 91.7 100.2 91.7 89.7 512.3 89.7 512.3 100.2 "/>
  <rect x="375.6" y="1.4" class="st19" width="26" height="83"/>
  <rect x="318.8" y="1.4" class="st19" width="26" height="83"/>
  <rect x="262" y="1.4" class="st19" width="26" height="83"/>
  <rect x="205.3" y="1.4" class="st19" width="26" height="83"/>
  <rect x="375.6" y="1.4" class="st27" width="26" height="16.1"/>
  <rect x="318.8" y="1.4" class="st27" width="26" height="16.1"/>
  <rect x="262" y="1.4" class="st27" width="26" height="16.1"/>
  <rect x="205.3" y="1.4" class="st27" width="26" height="16.1"/>
  <rect x="143.8" y="79.2" class="st21" width="316.4" height="10.5"/>
  <path class="st12" d="M36.7 133.1c0 2.1-1.7 3.8-3.8 3.8 -2.1 0-3.8-1.7-3.8-3.8 0-2.1 1.7-3.8 3.8-3.8C35 129.3 36.7 131 36.7 133.1"/>
  <path class="st12" d="M55.9 133.1c0 2.1-1.7 3.8-3.8 3.8 -2.1 0-3.8-1.7-3.8-3.8 0-2.1 1.7-3.8 3.8-3.8C54.2 129.3 55.9 131 55.9 133.1"/>
  <path class="st12" d="M75.2 133.1c0 2.1-1.7 3.8-3.8 3.8 -2.1 0-3.8-1.7-3.8-3.8 0-2.1 1.7-3.8 3.8-3.8C73.5 129.3 75.2 131 75.2 133.1"/>
  <path class="st12" d="M94.4 133.1c0 2.1-1.7 3.8-3.8 3.8 -2.1 0-3.8-1.7-3.8-3.8 0-2.1 1.7-3.8 3.8-3.8C92.7 129.3 94.4 131 94.4 133.1"/>
  <path class="st12" d="M113.7 133.1c0 2.1-1.7 3.8-3.8 3.8 -2.1 0-3.8-1.7-3.8-3.8 0-2.1 1.7-3.8 3.8-3.8C112 129.3 113.7 131 113.7 133.1"/>
  <path class="st12" d="M132.9 133.1c0 2.1-1.7 3.8-3.8 3.8 -2.1 0-3.8-1.7-3.8-3.8 0-2.1 1.7-3.8 3.8-3.8C131.2 129.3 132.9 131 132.9 133.1"/>
  <path class="st12" d="M152.2 133.1c0 2.1-1.7 3.8-3.8 3.8 -2.1 0-3.8-1.7-3.8-3.8 0-2.1 1.7-3.8 3.8-3.8C150.5 129.3 152.2 131 152.2 133.1"/>
  <path class="st7" d="M112.3 94.9c0 1.3-1.1 2.4-2.4 2.4s-2.4-1.1-2.4-2.4c0-1.3 1.1-2.4 2.4-2.4S112.3 93.6 112.3 94.9"/>
  <path class="st7" d="M131.6 94.9c0 1.3-1.1 2.4-2.4 2.4s-2.4-1.1-2.4-2.4c0-1.3 1.1-2.4 2.4-2.4S131.6 93.6 131.6 94.9"/>
  <path class="st7" d="M150.8 94.9c0 1.3-1.1 2.4-2.4 2.4s-2.4-1.1-2.4-2.4c0-1.3 1.1-2.4 2.4-2.4S150.8 93.6 150.8 94.9"/>
  <path class="st7" d="M170.1 94.9c0 1.3-1.1 2.4-2.4 2.4s-2.4-1.1-2.4-2.4c0-1.3 1.1-2.4 2.4-2.4S170.1 93.6 170.1 94.9"/>
  <path class="st7" d="M189.3 94.9c0 1.3-1.1 2.4-2.4 2.4s-2.4-1.1-2.4-2.4c0-1.3 1.1-2.4 2.4-2.4S189.3 93.6 189.3 94.9"/>
  <path class="st7" d="M208.6 94.9c0 1.3-1.1 2.4-2.4 2.4s-2.4-1.1-2.4-2.4c0-1.3 1.1-2.4 2.4-2.4S208.6 93.6 208.6 94.9"/>
  <path class="st7" d="M227.8 94.9c0 1.3-1.1 2.4-2.4 2.4s-2.4-1.1-2.4-2.4c0-1.3 1.1-2.4 2.4-2.4S227.8 93.6 227.8 94.9"/>
  <path class="st7" d="M247.1 94.9c0 1.3-1.1 2.4-2.4 2.4s-2.4-1.1-2.4-2.4c0-1.3 1.1-2.4 2.4-2.4S247.1 93.6 247.1 94.9"/>
  <path class="st7" d="M266.3 94.9c0 1.3-1.1 2.4-2.4 2.4s-2.4-1.1-2.4-2.4c0-1.3 1.1-2.4 2.4-2.4S266.3 93.6 266.3 94.9"/>
  <path class="st7" d="M285.6 94.9c0 1.3-1.1 2.4-2.4 2.4s-2.4-1.1-2.4-2.4c0-1.3 1.1-2.4 2.4-2.4S285.6 93.6 285.6 94.9"/>
  <path class="st7" d="M304.8 94.9c0 1.3-1.1 2.4-2.4 2.4s-2.4-1.1-2.4-2.4c0-1.3 1.1-2.4 2.4-2.4S304.8 93.6 304.8 94.9"/>
  <path class="st7" d="M324.1 94.9c0 1.3-1.1 2.4-2.4 2.4s-2.4-1.1-2.4-2.4c0-1.3 1.1-2.4 2.4-2.4S324.1 93.6 324.1 94.9"/>
  <path class="st7" d="M343.3 94.9c0 1.3-1.1 2.4-2.4 2.4s-2.4-1.1-2.4-2.4c0-1.3 1.1-2.4 2.4-2.4S343.3 93.6 343.3 94.9"/>
  <path class="st7" d="M362.6 94.9c0 1.3-1.1 2.4-2.4 2.4s-2.4-1.1-2.4-2.4c0-1.3 1.1-2.4 2.4-2.4S362.6 93.6 362.6 94.9"/>
  <path class="st7" d="M381.8 94.9c0 1.3-1.1 2.4-2.4 2.4s-2.4-1.1-2.4-2.4c0-1.3 1.1-2.4 2.4-2.4S381.8 93.6 381.8 94.9"/>
  <path class="st7" d="M401.1 94.9c0 1.3-1.1 2.4-2.4 2.4s-2.4-1.1-2.4-2.4c0-1.3 1.1-2.4 2.4-2.4S401.1 93.6 401.1 94.9"/>
  <path class="st7" d="M420.3 94.9c0 1.3-1.1 2.4-2.4 2.4s-2.4-1.1-2.4-2.4c0-1.3 1.1-2.4 2.4-2.4S420.3 93.6 420.3 94.9"/>
  <path class="st7" d="M439.6 94.9c0 1.3-1.1 2.4-2.4 2.4s-2.4-1.1-2.4-2.4c0-1.3 1.1-2.4 2.4-2.4S439.6 93.6 439.6 94.9"/>
  <path class="st7" d="M458.8 94.9c0 1.3-1.1 2.4-2.4 2.4s-2.4-1.1-2.4-2.4c0-1.3 1.1-2.4 2.4-2.4S458.8 93.6 458.8 94.9"/>
  <path class="st7" d="M478.1 94.9c0 1.3-1.1 2.4-2.4 2.4s-2.4-1.1-2.4-2.4c0-1.3 1.1-2.4 2.4-2.4S478.1 93.6 478.1 94.9"/>
  <path class="st7" d="M497.3 94.9c0 1.3-1.1 2.4-2.4 2.4s-2.4-1.1-2.4-2.4c0-1.3 1.1-2.4 2.4-2.4S497.3 93.6 497.3 94.9"/>
  <path class="st12" d="M171.4 133.1c0 2.1-1.7 3.8-3.8 3.8 -2.1 0-3.8-1.7-3.8-3.8 0-2.1 1.7-3.8 3.8-3.8C169.7 129.3 171.4 131 171.4 133.1"/>
  <path class="st12" d="M190.7 133.1c0 2.1-1.7 3.8-3.8 3.8 -2.1 0-3.8-1.7-3.8-3.8 0-2.1 1.7-3.8 3.8-3.8C189 129.3 190.7 131 190.7 133.1"/>
  <path class="st12" d="M209.9 133.1c0 2.1-1.7 3.8-3.8 3.8 -2.1 0-3.8-1.7-3.8-3.8 0-2.1 1.7-3.8 3.8-3.8C208.2 129.3 209.9 131 209.9 133.1"/>
  <path class="st12" d="M229.2 133.1c0 2.1-1.7 3.8-3.8 3.8 -2.1 0-3.8-1.7-3.8-3.8 0-2.1 1.7-3.8 3.8-3.8C227.5 129.3 229.2 131 229.2 133.1"/>
  <path class="st12" d="M248.4 133.1c0 2.1-1.7 3.8-3.8 3.8 -2.1 0-3.8-1.7-3.8-3.8 0-2.1 1.7-3.8 3.8-3.8C246.7 129.3 248.4 131 248.4 133.1"/>
  <path class="st12" d="M267.7 133.1c0 2.1-1.7 3.8-3.8 3.8 -2.1 0-3.8-1.7-3.8-3.8 0-2.1 1.7-3.8 3.8-3.8C266 129.3 267.7 131 267.7 133.1"/>
  <path class="st12" d="M286.9 133.1c0 2.1-1.7 3.8-3.8 3.8 -2.1 0-3.8-1.7-3.8-3.8 0-2.1 1.7-3.8 3.8-3.8C285.2 129.3 286.9 131 286.9 133.1"/>
  <path class="st12" d="M306.2 133.1c0 2.1-1.7 3.8-3.8 3.8 -2.1 0-3.8-1.7-3.8-3.8 0-2.1 1.7-3.8 3.8-3.8C304.5 129.3 306.2 131 306.2 133.1"/>
  <path class="st12" d="M325.4 133.1c0 2.1-1.7 3.8-3.8 3.8 -2.1 0-3.8-1.7-3.8-3.8 0-2.1 1.7-3.8 3.8-3.8C323.7 129.3 325.4 131 325.4 133.1"/>
  <path class="st12" d="M344.7 133.1c0 2.1-1.7 3.8-3.8 3.8 -2.1 0-3.8-1.7-3.8-3.8 0-2.1 1.7-3.8 3.8-3.8C343 129.3 344.7 131 344.7 133.1"/>
  <path class="st12" d="M363.9 133.1c0 2.1-1.7 3.8-3.8 3.8 -2.1 0-3.8-1.7-3.8-3.8 0-2.1 1.7-3.8 3.8-3.8C362.2 129.3 363.9 131 363.9 133.1"/>
  <path class="st12" d="M383.2 133.1c0 2.1-1.7 3.8-3.8 3.8 -2.1 0-3.8-1.7-3.8-3.8 0-2.1 1.7-3.8 3.8-3.8C381.5 129.3 383.2 131 383.2 133.1"/>
  <path class="st12" d="M402.4 133.1c0 2.1-1.7 3.8-3.8 3.8 -2.1 0-3.8-1.7-3.8-3.8 0-2.1 1.7-3.8 3.8-3.8C400.7 129.3 402.4 131 402.4 133.1"/>
  <path class="st12" d="M421.7 133.1c0 2.1-1.7 3.8-3.8 3.8 -2.1 0-3.8-1.7-3.8-3.8 0-2.1 1.7-3.8 3.8-3.8C420 129.3 421.7 131 421.7 133.1"/>
  <path class="st12" d="M440.9 133.1c0 2.1-1.7 3.8-3.8 3.8 -2.1 0-3.8-1.7-3.8-3.8 0-2.1 1.7-3.8 3.8-3.8C439.2 129.3 440.9 131 440.9 133.1"/>
  <path class="st12" d="M460.2 133.1c0 2.1-1.7 3.8-3.8 3.8 -2.1 0-3.8-1.7-3.8-3.8 0-2.1 1.7-3.8 3.8-3.8C458.5 129.3 460.2 131 460.2 133.1"/>
  <path class="st12" d="M479.4 133.1c0 2.1-1.7 3.8-3.8 3.8 -2.1 0-3.8-1.7-3.8-3.8 0-2.1 1.7-3.8 3.8-3.8C477.7 129.3 479.4 131 479.4 133.1"/>
  <path class="st12" d="M498.7 133.1c0 2.1-1.7 3.8-3.8 3.8 -2.1 0-3.8-1.7-3.8-3.8 0-2.1 1.7-3.8 3.8-3.8C497 129.3 498.7 131 498.7 133.1"/>
  <path class="st12" d="M517.9 133.1c0 2.1-1.7 3.8-3.8 3.8 -2.1 0-3.8-1.7-3.8-3.8 0-2.1 1.7-3.8 3.8-3.8C516.2 129.3 517.9 131 517.9 133.1"/>
  <path class="st12" d="M537.2 133.1c0 2.1-1.7 3.8-3.8 3.8 -2.1 0-3.8-1.7-3.8-3.8 0-2.1 1.7-3.8 3.8-3.8C535.5 129.3 537.2 131 537.2 133.1"/>
  <path class="st12" d="M556.4 133.1c0 2.1-1.7 3.8-3.8 3.8 -2.1 0-3.8-1.7-3.8-3.8 0-2.1 1.7-3.8 3.8-3.8C554.7 129.3 556.4 131 556.4 133.1"/>
  <path class="st12" d="M55.9 151.2c0 2.1-1.7 3.8-3.8 3.8 -2.1 0-3.8-1.7-3.8-3.8 0-2.1 1.7-3.8 3.8-3.8C54.2 147.4 55.9 149.1 55.9 151.2"/>
  <path class="st12" d="M75.2 151.2c0 2.1-1.7 3.8-3.8 3.8 -2.1 0-3.8-1.7-3.8-3.8 0-2.1 1.7-3.8 3.8-3.8C73.5 147.4 75.2 149.1 75.2 151.2"/>
  <path class="st12" d="M94.4 151.2c0 2.1-1.7 3.8-3.8 3.8 -2.1 0-3.8-1.7-3.8-3.8 0-2.1 1.7-3.8 3.8-3.8C92.7 147.4 94.4 149.1 94.4 151.2"/>
  <path class="st12" d="M113.7 151.2c0 2.1-1.7 3.8-3.8 3.8 -2.1 0-3.8-1.7-3.8-3.8 0-2.1 1.7-3.8 3.8-3.8C112 147.4 113.7 149.1 113.7 151.2"/>
  <path class="st12" d="M132.9 151.2c0 2.1-1.7 3.8-3.8 3.8 -2.1 0-3.8-1.7-3.8-3.8 0-2.1 1.7-3.8 3.8-3.8C131.2 147.4 132.9 149.1 132.9 151.2"/>
  <path class="st12" d="M152.2 151.2c0 2.1-1.7 3.8-3.8 3.8 -2.1 0-3.8-1.7-3.8-3.8 0-2.1 1.7-3.8 3.8-3.8C150.5 147.4 152.2 149.1 152.2 151.2"/>
  <path class="st12" d="M171.4 151.2c0 2.1-1.7 3.8-3.8 3.8 -2.1 0-3.8-1.7-3.8-3.8 0-2.1 1.7-3.8 3.8-3.8C169.7 147.4 171.4 149.1 171.4 151.2"/>
  <path class="st12" d="M190.7 151.2c0 2.1-1.7 3.8-3.8 3.8 -2.1 0-3.8-1.7-3.8-3.8 0-2.1 1.7-3.8 3.8-3.8C189 147.4 190.7 149.1 190.7 151.2"/>
  <path class="st12" d="M209.9 151.2c0 2.1-1.7 3.8-3.8 3.8 -2.1 0-3.8-1.7-3.8-3.8 0-2.1 1.7-3.8 3.8-3.8C208.2 147.4 209.9 149.1 209.9 151.2"/>
  <path class="st12" d="M229.2 151.2c0 2.1-1.7 3.8-3.8 3.8 -2.1 0-3.8-1.7-3.8-3.8 0-2.1 1.7-3.8 3.8-3.8C227.5 147.4 229.2 149.1 229.2 151.2"/>
  <path class="st12" d="M248.4 151.2c0 2.1-1.7 3.8-3.8 3.8 -2.1 0-3.8-1.7-3.8-3.8 0-2.1 1.7-3.8 3.8-3.8C246.7 147.4 248.4 149.1 248.4 151.2"/>
  <path class="st12" d="M267.7 151.2c0 2.1-1.7 3.8-3.8 3.8 -2.1 0-3.8-1.7-3.8-3.8 0-2.1 1.7-3.8 3.8-3.8C266 147.4 267.7 149.1 267.7 151.2"/>
  <path class="st12" d="M286.9 151.2c0 2.1-1.7 3.8-3.8 3.8 -2.1 0-3.8-1.7-3.8-3.8 0-2.1 1.7-3.8 3.8-3.8C285.2 147.4 286.9 149.1 286.9 151.2"/>
  <path class="st12" d="M306.2 151.2c0 2.1-1.7 3.8-3.8 3.8 -2.1 0-3.8-1.7-3.8-3.8 0-2.1 1.7-3.8 3.8-3.8C304.5 147.4 306.2 149.1 306.2 151.2"/>
  <path class="st12" d="M325.4 151.2c0 2.1-1.7 3.8-3.8 3.8 -2.1 0-3.8-1.7-3.8-3.8 0-2.1 1.7-3.8 3.8-3.8C323.7 147.4 325.4 149.1 325.4 151.2"/>
  <path class="st12" d="M344.7 151.2c0 2.1-1.7 3.8-3.8 3.8 -2.1 0-3.8-1.7-3.8-3.8 0-2.1 1.7-3.8 3.8-3.8C343 147.4 344.7 149.1 344.7 151.2"/>
  <path class="st12" d="M363.9 151.2c0 2.1-1.7 3.8-3.8 3.8 -2.1 0-3.8-1.7-3.8-3.8 0-2.1 1.7-3.8 3.8-3.8C362.2 147.4 363.9 149.1 363.9 151.2"/>
  <path class="st12" d="M383.2 151.2c0 2.1-1.7 3.8-3.8 3.8 -2.1 0-3.8-1.7-3.8-3.8 0-2.1 1.7-3.8 3.8-3.8C381.5 147.4 383.2 149.1 383.2 151.2"/>
  <path class="st12" d="M402.4 151.2c0 2.1-1.7 3.8-3.8 3.8 -2.1 0-3.8-1.7-3.8-3.8 0-2.1 1.7-3.8 3.8-3.8C400.7 147.4 402.4 149.1 402.4 151.2"/>
  <path class="st12" d="M421.7 151.2c0 2.1-1.7 3.8-3.8 3.8 -2.1 0-3.8-1.7-3.8-3.8 0-2.1 1.7-3.8 3.8-3.8C420 147.4 421.7 149.1 421.7 151.2"/>
  <path class="st12" d="M440.9 151.2c0 2.1-1.7 3.8-3.8 3.8 -2.1 0-3.8-1.7-3.8-3.8 0-2.1 1.7-3.8 3.8-3.8C439.2 147.4 440.9 149.1 440.9 151.2"/>
  <path class="st12" d="M460.2 151.2c0 2.1-1.7 3.8-3.8 3.8 -2.1 0-3.8-1.7-3.8-3.8 0-2.1 1.7-3.8 3.8-3.8C458.5 147.4 460.2 149.1 460.2 151.2"/>
  <path class="st12" d="M479.4 151.2c0 2.1-1.7 3.8-3.8 3.8 -2.1 0-3.8-1.7-3.8-3.8 0-2.1 1.7-3.8 3.8-3.8C477.7 147.4 479.4 149.1 479.4 151.2"/>
  <path class="st12" d="M498.7 151.2c0 2.1-1.7 3.8-3.8 3.8 -2.1 0-3.8-1.7-3.8-3.8 0-2.1 1.7-3.8 3.8-3.8C497 147.4 498.7 149.1 498.7 151.2"/>
  <rect x="587.7" y="95.2" class="st11" width="2" height="4"/>
  <rect x="586.7" y="92.2" class="st26" width="4" height="3"/>
  <rect x="591.7" y="95.2" class="st11" width="2" height="4"/>
  <rect x="591.7" y="92.2" class="st26" width="3" height="3"/>
  <path class="st11" d="M587.8 83c-0.2 0-0.4-0.1-0.6-0.2l-0.3-0.2c-0.7-0.4-1.6-1-2.2-1.7 -0.7-0.8-1.3-1.7-1.8-2.8 -0.2-0.5 0-1.1 0.5-1.3 0.5-0.2 1.1 0 1.3 0.5 0.4 0.9 0.9 1.6 1.4 2.2 0.5 0.5 1.3 1 1.8 1.4l0.3 0.2c0.5 0.3 0.6 0.9 0.3 1.4C588.5 82.9 588.1 83 587.8 83"/>
  <path class="st28" d="M587.8 83c-0.2 0-0.4-0.1-0.6-0.2l-0.3-0.2c-0.7-0.4-1.6-1-2.2-1.7 -0.7-0.8-1.3-1.7-1.8-2.8 -0.2-0.5 0-1.1 0.5-1.3 0.5-0.2 1.1 0 1.3 0.5 0.4 0.9 0.9 1.6 1.4 2.2 0.5 0.5 1.3 1 1.8 1.4l0.3 0.2c0.5 0.3 0.6 0.9 0.3 1.4C588.5 82.9 588.1 83 587.8 83z"/>
  <polygon class="st7" points="587.2 80.3 586 82 587.2 82.8 587.7 83.6 589.5 82.7 589.5 81.7 589 80.9 587.7 80.6 "/>
  <path class="st19" d="M592.6 100.2c0-0.7 0.6-1.3 1.3-1.3 0.7 0 1.3 0.6 1.3 1.3H592.6z"/>
  <polygon class="st19" points="592.2 100.2 592.2 98.9 593.9 98.9 593 99.9 593.1 100.2 "/>
  <path class="st19" d="M588.6 100.2c0-0.7 0.6-1.3 1.3-1.3 0.7 0 1.3 0.6 1.3 1.3H588.6z"/>
  <polygon class="st19" points="588.2 100.2 588.2 98.9 589.9 98.9 589 99.9 589.1 100.2 "/>
  <defs>
    <path id="SVGID_13_" d="M587.5 80.2l-1.1 8.9c-0.1 0.4-0.1 0.7-0.1 1.1 0 2.8 2.3 5 5.1 5 2.8 0 5.1-2.2 5.1-5 0-0.4 0-0.7-0.1-1.1l-1.1-8.9H587.5z"/>
  </defs>
  <clipPath id="SVGID_14_">
    <use xlink:href="#SVGID_13_" overflow="visible"/>
  </clipPath>
  <path class="st14" d="M596.4 90.1c0-0.4 0-0.6-0.1-1l-1.1-8.9h-7.7l-1.1 8.9c-0.1 0.4-0.1 0.7-0.1 1.1"/>
  <rect x="591.7" y="82.2" class="st24" width="4" height="4"/>
  <path class="st26" d="M596.4 90.2c0 3-2.2 4.7-5 4.7 -2.8 0-5-1.7-5-4.7H596.4z"/>
  <path class="st11" d="M594.7 74.4c0-1.9-1.6-3.5-3.5-3.5s-3.5 1.7-3.5 3.6l-0.2 5.7h7.7L594.7 74.4z"/>
  <defs>
    <path id="SVGID_15_" d="M587.7 74.4l-0.2 5.7h7.7l-0.5-5.8c0-1.9-1.6-3.5-3.5-3.5C589.3 70.8 587.7 72.5 587.7 74.4"/>
  </defs>
  <clipPath id="SVGID_16_">
    <use xlink:href="#SVGID_15_" overflow="visible"/>
  </clipPath>
  <g class="st30">
    <defs>
      <rect id="SVGID_17_" x="594.1" y="75.1" width="1.4" height="1.4"/>
    </defs>
    <clipPath id="SVGID_18_">
      <use xlink:href="#SVGID_17_" overflow="visible"/>
    </clipPath>
    <path class="st2" d="M595.5 75.8c0 0.4-0.3 0.7-0.7 0.7s-0.7-0.3-0.7-0.7 0.3-0.7 0.7-0.7S595.5 75.4 595.5 75.8"/>
  </g>
  <g class="st15">
    <defs>
      <rect id="SVGID_19_" x="589.5" y="75.1" width="1.4" height="1.4"/>
    </defs>
    <clipPath id="SVGID_20_">
      <use xlink:href="#SVGID_19_" overflow="visible"/>
    </clipPath>
    <path class="st13" d="M590.9 75.8c0 0.4-0.3 0.7-0.7 0.7s-0.7-0.3-0.7-0.7 0.3-0.7 0.7-0.7S590.9 75.4 590.9 75.8"/>
  </g>
  <g class="st17">
    <defs>
      <rect id="SVGID_21_" x="593.3" y="74.4" width="0.9" height="0.4"/>
    </defs>
    <clipPath id="SVGID_22_">
      <use xlink:href="#SVGID_21_" overflow="visible"/>
    </clipPath>
    <path class="st6" d="M593.3 74.4l0.9 0.3C594.2 74.7 593.7 75.1 593.3 74.4"/>
  </g>
  <g class="st17">
    <defs>
      <rect id="SVGID_23_" x="591" y="74.5" width="0.9" height="0.4"/>
    </defs>
    <clipPath id="SVGID_24_">
      <use xlink:href="#SVGID_23_" overflow="visible"/>
    </clipPath>
    <path class="st9" d="M591 74.7l0.9-0.3C591.9 74.5 591.7 75.1 591 74.7"/>
  </g>
  <path d="M592.2 76C592.2 76 592.2 75.9 592.2 76c-0.4 0-0.7 0.3-0.7 0.7 0 0.4 0.3 0.7 0.7 0.7h0.7l0.3-1.4H592.2z"/>
  <defs>
    <path id="SVGID_25_" d="M592.1 76c-0.4 0-0.6 0.4-0.6 0.7 0 0.4 0.3 0.7 0.7 0.7h0.7l0.3-1.4L592.1 76C592.2 76 592.2 76 592.1 76 592.1 76 592.1 76 592.1 76"/>
  </defs>
  <clipPath id="SVGID_26_">
    <use xlink:href="#SVGID_25_" overflow="visible"/>
  </clipPath>
  <rect x="591.5" y="75.9" class="st25" width="2.3" height="0.2"/>
  <rect x="591.4" y="77.2" class="st25" width="1.6" height="0.7"/>
  <path d="M592 74.3c0 0.2-0.1 0.3-0.3 0.3 -0.2 0-0.3-0.1-0.3-0.3 0-0.2 0.1-0.3 0.3-0.3C591.8 74 592 74.2 592 74.3"/>
  <path class="st21" d="M591.9 74.4c0 0.1-0.1 0.1-0.1 0.1 -0.1 0-0.1-0.1-0.1-0.1 0-0.1 0.1-0.1 0.1-0.1C591.8 74.2 591.9 74.3 591.9 74.4"/>
  <path d="M593.9 74.3c0 0.2-0.1 0.3-0.3 0.3s-0.3-0.1-0.3-0.3c0-0.2 0.1-0.3 0.3-0.3S593.9 74.2 593.9 74.3"/>
  <path class="st21" d="M593.8 74.4c0 0.1-0.1 0.1-0.1 0.1s-0.1-0.1-0.1-0.1c0-0.1 0.1-0.1 0.1-0.1S593.8 74.3 593.8 74.4"/>
  <path d="M592.6 75.6C592.6 75.6 592.6 75.6 592.6 75.6 592.6 75.6 592.5 75.6 592.6 75.6 592.5 75.6 592.6 75.5 592.6 75.6 592.6 75.5 592.6 75.6 592.6 75.6"/>
  <path d="M593 75.6C593 75.6 593 75.6 593 75.6 593 75.6 593 75.6 593 75.6 593 75.6 593 75.5 593 75.6 593 75.5 593 75.6 593 75.6"/>
  <g class="st16">
    <defs>
      <rect id="SVGID_27_" x="587.5" y="72.3" width="7.7" height="7.8"/>
    </defs>
    <clipPath id="SVGID_28_">
      <use xlink:href="#SVGID_27_" overflow="visible"/>
    </clipPath>
    <path class="st22" d="M589.3 72.8c0 0-2.5 7 5.7 5.2l0.2 2.1h-7.7l0.3-6.8 0.2-1L589.3 72.8z"/>
  </g>
  <path d="M596.5 70.6c-0.9 0.7-2 0.8-2.2 0.9 -0.2-1-1-1.8-2.1-1.8 0 0 0 0-0.1 0 -1.4-0.1-3.1 0.5-3.1 0.5 -0.8 0.3-1.2-0.4-1.2-0.4 0 0.4 0.1 0.8 0.1 0.8 -0.7-0.4-1.3 0.1-1.3 0.1 0 0 0 0 0 0 0 0 0.1 0 0.1 0 0.4 0 0.7 0.3 0.7 0.7s-0.3 0.7-0.7 0.7c-0.1 0-0.1 0-0.1 0 0.2 0.3 0.4 0.5 0.4 0.5 -0.1 1.7 0.7 2.4 0.7 2.4 0-1.4 0.7-2.2 0.7-2.2C597.8 75.7 596.5 70.6 596.5 70.6"/>
  <path class="st11" d="M587.5 88.3c-0.2 0-0.4-0.1-0.6-0.2l-0.3-0.2c-0.7-0.4-1.6-1-2.2-1.7 -0.7-0.8-1.3-1.7-1.8-2.8 -0.2-0.5 0-1.1 0.5-1.3 0.5-0.2 1.1 0 1.3 0.5 0.4 0.9 0.9 1.6 1.4 2.2 0.5 0.5 1.3 1 1.8 1.4l0.3 0.2c0.5 0.3 0.6 0.9 0.3 1.4C588.2 88.2 587.9 88.3 587.5 88.3"/>
  <path class="st20" d="M587.5 88.3c-0.2 0-0.4-0.1-0.6-0.2l-0.3-0.2c-0.7-0.4-1.6-1-2.2-1.7 -0.7-0.8-1.3-1.7-1.8-2.8 -0.2-0.5 0-1.1 0.5-1.3 0.5-0.2 1.1 0 1.3 0.5 0.4 0.9 0.9 1.6 1.4 2.2 0.5 0.5 1.3 1 1.8 1.4l0.3 0.2c0.5 0.3 0.6 0.9 0.3 1.4C588.2 88.2 587.9 88.3 587.5 88.3z"/>
  <polygon class="st21" points="582.2 80.2 580.9 82 582.2 82.9 581.4 85.2 585.5 82.7 584.8 81.7 584.2 80.8 582.8 80.5 "/>
  <path class="st10" d="M583.4 72c0.2 0.1 0.5 0.1 0.7 0.2 0.2 0.1 0.9 0.4 0.9 0.6 0 0 0.3-3.8-2.1-3.1 -2.5 0.7-3.5 1.6-3.8 2.2s-0.2 2-0.9 1.9c0 0 0.7 0.7 0.1 0.7 0 0 0.5 0.4 0 0.6 0 0 1.3 1.5 2 0 0 0-0.1-1.4 0.8-0.4 0 0 0.8-0.1 0.8-0.1 0 0-0.1-0.9-0.1-1 0-0.4 0-1 0.3-1.3C582.5 71.9 583 71.9 583.4 72"/>
  <path class="st10" d="M585 72.8c0 0 0.2-1.6 0.8-0.8l-1-1.3 -1.4 0.1L585 72.8z"/>
</svg>