<svg xmlns="http://www.w3.org/2000/svg" xmlns:xlink="http://www.w3.org/1999/xlink" version="1.1" class="titanic__svg" x="0" y="0" width="604" height="230" viewBox="0 0 604 230" xml:space="preserve" enable-background="new 0 0 604 230">
  <style type="text/css">

	.titanic__svg .st0{clip-path:url(#SVGID_6_);fill:#FFFFFF;}
	.titanic__svg .st1{opacity:0.5;fill:#B69B8A;}
	.titanic__svg .st2{fill:#E2B79F;}
	.titanic__svg .st3{fill:none;stroke:#F2CFB8;stroke-width:2;stroke-linecap:round;stroke-miterlimit:10;}
	.titanic__svg .st4{opacity:0.2;clip-path:url(#SVGID_4_);fill:#FFA3A3;}
	.titanic__svg .st5{clip-path:url(#SVGID_8_);fill:#FFFFFF;}
	.titanic__svg .st6{fill:#1D5970;}
	.titanic__svg .st7{fill:#BFA14C;}
	.titanic__svg .st8{fill:#F2CFB8;}
	.titanic__svg .st9{opacity:0.4;fill:#B69B8A;}
	.titanic__svg .st10{fill:#277695;}
	.titanic__svg .st11{fill:#F2CFB8;stroke:#1D5970;stroke-width:0.2;stroke-miterlimit:10;}
	.titanic__svg .st12{opacity:0.2;fill:#FFA3A3;}
	.titanic__svg .st13{fill:#FF573B;}
	.titanic__svg .st14{fill:#FFFFFF;}
	.titanic__svg .st15{opacity:0.6;fill:#F48E8E;}
	.titanic__svg .st16{fill:#0A1D25;}
	.titanic__svg .st17{fill:#0F2D38;}
	.titanic__svg .st18{opacity:0.2;clip-path:url(#SVGID_2_);fill:#FFA3A3;}

  </style>
  <path class="st17" d="M0.8 111.2c0 0 11.2 14.1 5.6 43.3l0 0c-3.6 7-5.6 14.9-5.6 23.2 0 28.1 22.8 50.9 50.9 50.9h420.2c28.1 0 109-22.8 109-50.9 0 0 2.3-66.5 22.3-66.5H0.8z"/>
  <path class="st13" d="M0.8 177.7c0 28.1 22.8 50.9 50.9 50.9h423.9c28.1 0 105.2-22.8 105.2-50.9H0.8z"/>
  <rect x="375.6" y="10.4" class="st13" width="26" height="74"/>
  <rect x="318.8" y="10.4" class="st13" width="26" height="74"/>
  <rect x="262" y="10.4" class="st13" width="26" height="74"/>
  <rect x="205.3" y="10.4" class="st13" width="26" height="74"/>
  <rect x="375.6" y="1.4" class="st17" width="26" height="16.1"/>
  <rect x="318.8" y="1.4" class="st17" width="26" height="16.1"/>
  <rect x="262" y="1.4" class="st17" width="26" height="16.1"/>
  <rect x="205.3" y="1.4" class="st17" width="26" height="16.1"/>
  <polygon class="st14" points="512.3 100.2 512.3 89.7 460.2 89.7 460.2 79.2 143.8 79.2 143.8 89.7 91.7 89.7 91.7 100.2 0.8 100.2 0.8 110.7 603.2 110.7 603.2 100.2 "/>
  <circle class="st10" cx="32.9" cy="133.1" r="3.8"/>
  <circle class="st10" cx="52.2" cy="133.1" r="3.8"/>
  <circle class="st10" cx="71.4" cy="133.1" r="3.8"/>
  <circle class="st10" cx="90.7" cy="133.1" r="3.8"/>
  <circle class="st10" cx="109.9" cy="133.1" r="3.8"/>
  <circle class="st10" cx="129.2" cy="133.1" r="3.8"/>
  <circle class="st10" cx="148.4" cy="133.1" r="3.8"/>
  <circle class="st6" cx="109.9" cy="95.7" r="2.4"/>
  <circle class="st6" cx="129.2" cy="95.7" r="2.4"/>
  <circle class="st6" cx="148.4" cy="95.7" r="2.4"/>
  <circle class="st6" cx="167.7" cy="95.7" r="2.4"/>
  <circle class="st6" cx="186.9" cy="95.7" r="2.4"/>
  <circle class="st6" cx="206.2" cy="95.7" r="2.4"/>
  <circle class="st6" cx="225.4" cy="95.7" r="2.4"/>
  <circle class="st6" cx="244.7" cy="95.7" r="2.4"/>
  <circle class="st6" cx="263.9" cy="95.7" r="2.4"/>
  <circle class="st6" cx="283.2" cy="95.7" r="2.4"/>
  <circle class="st6" cx="302.4" cy="95.7" r="2.4"/>
  <circle class="st6" cx="321.7" cy="95.7" r="2.4"/>
  <circle class="st6" cx="340.9" cy="95.7" r="2.4"/>
  <circle class="st6" cx="360.2" cy="95.7" r="2.4"/>
  <circle class="st6" cx="379.4" cy="95.7" r="2.4"/>
  <circle class="st6" cx="398.7" cy="95.7" r="2.4"/>
  <circle class="st6" cx="417.9" cy="95.7" r="2.4"/>
  <circle class="st6" cx="437.2" cy="95.7" r="2.4"/>
  <circle class="st6" cx="456.4" cy="95.7" r="2.4"/>
  <circle class="st6" cx="475.7" cy="95.7" r="2.4"/>
  <circle class="st6" cx="494.9" cy="95.7" r="2.4"/>
  <circle class="st10" cx="167.7" cy="133.1" r="3.8"/>
  <circle class="st10" cx="186.9" cy="133.1" r="3.8"/>
  <circle class="st10" cx="206.2" cy="133.1" r="3.8"/>
  <circle class="st10" cx="225.4" cy="133.1" r="3.8"/>
  <circle class="st10" cx="244.7" cy="133.1" r="3.8"/>
  <circle class="st10" cx="263.9" cy="133.1" r="3.8"/>
  <circle class="st10" cx="283.2" cy="133.1" r="3.8"/>
  <circle class="st10" cx="302.4" cy="133.1" r="3.8"/>
  <circle class="st10" cx="321.7" cy="133.1" r="3.8"/>
  <circle class="st10" cx="340.9" cy="133.1" r="3.8"/>
  <circle class="st10" cx="360.2" cy="133.1" r="3.8"/>
  <circle class="st10" cx="379.4" cy="133.1" r="3.8"/>
  <circle class="st10" cx="398.7" cy="133.1" r="3.8"/>
  <circle class="st10" cx="417.9" cy="133.1" r="3.8"/>
  <circle class="st10" cx="437.2" cy="133.1" r="3.8"/>
  <circle class="st10" cx="456.4" cy="133.1" r="3.8"/>
  <circle class="st10" cx="475.7" cy="133.1" r="3.8"/>
  <circle class="st10" cx="494.9" cy="133.1" r="3.8"/>
  <circle class="st10" cx="514.2" cy="133.1" r="3.8"/>
  <circle class="st10" cx="533.4" cy="133.1" r="3.8"/>
  <circle class="st10" cx="552.7" cy="133.1" r="3.8"/>
  <circle class="st10" cx="52.2" cy="151.2" r="3.8"/>
  <circle class="st10" cx="71.4" cy="151.2" r="3.8"/>
  <circle class="st10" cx="90.7" cy="151.2" r="3.8"/>
  <circle class="st10" cx="109.9" cy="151.2" r="3.8"/>
  <circle class="st10" cx="129.2" cy="151.2" r="3.8"/>
  <circle class="st10" cx="148.4" cy="151.2" r="3.8"/>
  <circle class="st10" cx="167.7" cy="151.2" r="3.8"/>
  <circle class="st10" cx="186.9" cy="151.2" r="3.8"/>
  <circle class="st10" cx="206.2" cy="151.2" r="3.8"/>
  <circle class="st10" cx="225.4" cy="151.2" r="3.8"/>
  <circle class="st10" cx="244.7" cy="151.2" r="3.8"/>
  <circle class="st10" cx="263.9" cy="151.2" r="3.8"/>
  <circle class="st10" cx="283.2" cy="151.2" r="3.8"/>
  <circle class="st10" cx="302.4" cy="151.2" r="3.8"/>
  <circle class="st10" cx="321.7" cy="151.2" r="3.8"/>
  <circle class="st10" cx="340.9" cy="151.2" r="3.8"/>
  <circle class="st10" cx="360.2" cy="151.2" r="3.8"/>
  <circle class="st10" cx="379.4" cy="151.2" r="3.8"/>
  <circle class="st10" cx="398.7" cy="151.2" r="3.8"/>
  <circle class="st10" cx="417.9" cy="151.2" r="3.8"/>
  <circle class="st10" cx="437.2" cy="151.2" r="3.8"/>
  <circle class="st10" cx="456.4" cy="151.2" r="3.8"/>
  <circle class="st10" cx="475.7" cy="151.2" r="3.8"/>
  <circle class="st10" cx="494.9" cy="151.2" r="3.8"/>
  <rect x="579.7" y="95.2" class="st8" width="2" height="4"/>
  <rect x="583.7" y="95.2" class="st8" width="2" height="4"/>
  <path class="st2" d="M586.7 74.4c0-1.9-1.6-3.5-3.5-3.5s-3.5 1.7-3.5 3.6l-0.2 5.7h7.7L586.7 74.4z"/>
  <defs>
    <path id="SVGID_1_" d="M586.7 74.4c0-1.9-1.6-3.5-3.5-3.5s-3.5 1.7-3.5 3.6l-0.2 5.7h7.7L586.7 74.4z"/>
  </defs>
  <clipPath id="SVGID_2_">
    <use xlink:href="#SVGID_1_" overflow="visible"/>
  </clipPath>
  <circle class="st18" cx="586.8" cy="75.8" r="0.7"/>
  <circle class="st15" cx="582.2" cy="75.8" r="0.7"/>
  <path class="st1" d="M585.3 74.4l0.9 0.3C586.2 74.7 585.7 75.1 585.3 74.4z"/>
  <path class="st1" d="M583 74.7l0.9-0.3C583.9 74.5 583.7 75.1 583 74.7z"/>
  <circle cx="583.6" cy="74.3" r="0.3"/>
  <circle class="st14" cx="583.8" cy="74.4" r="0.1"/>
  <circle cx="585.5" cy="74.3" r="0.3"/>
  <circle class="st14" cx="585.7" cy="74.4" r="0.1"/>
  <circle cx="584.6" cy="75.6" r="0"/>
  <circle cx="585" cy="75.6" r="0"/>
  <circle cx="584.8" cy="76.2" r="0.4"/>
  <path class="st3" d="M594.6 81.5c1-0.3 1.9-0.7 2.7-1.2 0.8-0.5 1.6-1.5 2.1-2"/>
  <rect x="587.7" y="95.2" class="st8" width="2" height="4"/>
  <rect x="591.7" y="95.2" class="st8" width="2" height="4"/>
  <polygon class="st6" points="587.2 80.3 586 82 587.2 82.8 587.7 83.6 589.5 82.7 589.5 81.7 589 80.9 587.7 80.6 "/>
  <path class="st14" d="M582.7 80.2h-3.2l-1.1 8.9c-0.1 0.4-0.1 0.7-0.1 1.1l10.1-0.1c0-0.4 0-0.6-0.1-1l-1.1-8.9H582.7"/>
  <path class="st6" d="M586.3 90.2l10.1-0.1c0-0.4 0-0.6-0.1-1l-1.1-8.9h-7.7l0 0.3 -0.3-0.2L586 82l1.2 0.8 -0.8 6.2C586.3 89.5 586.3 89.8 586.3 90.2z"/>
  <path class="st13" d="M592.6 100.2c0-0.7 0.6-1.3 1.3-1.3s1.3 0.6 1.3 1.3H592.6z"/>
  <polygon class="st13" points="592.2 100.2 592.2 98.9 593.9 98.9 593 99.9 593.1 100.2 "/>
  <path class="st13" d="M588.6 100.2c0-0.7 0.6-1.3 1.3-1.3s1.3 0.6 1.3 1.3H588.6z"/>
  <polygon class="st13" points="588.2 100.2 588.2 98.9 589.9 98.9 589 99.9 589.1 100.2 "/>
  <polygon class="st14" points="595.7 84.9 595.4 82.2 591.7 82.2 591.7 86.2 595.7 86.2 "/>
  <path class="st16" d="M588.4 90.2h-2 -8c0 1.5 0.5 2.6 1.4 3.4v5.6h0.4v1l0.5 0v0h2.6c0-0.4-0.2-0.8-0.5-1v-4.4c0.2 0 0.4 0 0.6 0 0.1 0 0.3 0 0.4 0v4.4h0.4v1l0.5 0v0h2.6c0-0.4-0.2-0.8-0.5-1v-4h4v-0.4c0.2 0 0.4 0 0.6 0 0.1 0 0.3 0 0.4 0v0.4h3v-1.4c1-0.8 1.6-2 1.6-3.6H588.4z"/>
  <path class="st8" d="M594.7 74.4c0-1.9-1.6-3.5-3.5-3.5s-3.5 1.7-3.5 3.6l-0.2 5.7h7.7L594.7 74.4z"/>
  <defs>
    <path id="SVGID_3_" d="M594.7 74.4c0-1.9-1.6-3.5-3.5-3.5s-3.5 1.7-3.5 3.6l-0.2 5.7h7.7L594.7 74.4z"/>
  </defs>
  <clipPath id="SVGID_4_">
    <use xlink:href="#SVGID_3_" overflow="visible"/>
  </clipPath>
  <circle class="st4" cx="594.8" cy="75.8" r="0.7"/>
  <circle class="st12" cx="590.2" cy="75.8" r="0.7"/>
  <path class="st1" d="M593.3 74.4l0.9 0.3C594.2 74.7 593.7 75.1 593.3 74.4z"/>
  <path class="st1" d="M591 74.7l0.9-0.3C591.9 74.5 591.7 75.1 591 74.7z"/>
  <path d="M592.2 76C592.2 76 592.2 75.9 592.2 76c-0.4 0-0.7 0.3-0.7 0.7 0 0.4 0.3 0.7 0.7 0.7h0.7l0.3-1.4H592.2z"/>
  <defs>
    <path id="SVGID_5_" d="M592.2 76C592.2 76 592.2 75.9 592.2 76c-0.4 0-0.7 0.3-0.7 0.7 0 0.4 0.3 0.7 0.7 0.7h0.7l0.3-1.4H592.2z"/>
  </defs>
  <clipPath id="SVGID_6_">
    <use xlink:href="#SVGID_5_" overflow="visible"/>
  </clipPath>
  <rect x="591.5" y="75.9" class="st0" width="2.3" height="0.2"/>
  <defs>
    <path id="SVGID_7_" d="M592.2 76C592.2 76 592.2 75.9 592.2 76c-0.4 0-0.7 0.3-0.7 0.7 0 0.4 0.3 0.7 0.7 0.7h0.7l0.3-1.4H592.2z"/>
  </defs>
  <clipPath id="SVGID_8_">
    <use xlink:href="#SVGID_7_" overflow="visible"/>
  </clipPath>
  <rect x="591.4" y="77.2" class="st5" width="1.6" height="0.7"/>
  <circle cx="591.6" cy="74.3" r="0.3"/>
  <circle class="st14" cx="591.8" cy="74.4" r="0.1"/>
  <circle cx="593.5" cy="74.3" r="0.3"/>
  <circle class="st14" cx="593.7" cy="74.4" r="0.1"/>
  <circle cx="592.6" cy="75.6" r="0"/>
  <circle cx="593" cy="75.6" r="0"/>
  <path class="st9" d="M589.3 72.8c0 0-2.5 7 5.7 5.2l0.2 2.1h-7.7l0.3-6.8 0.2-1L589.3 72.8z"/>
  <path d="M596.5 70.6c-0.9 0.7-2 0.8-2.2 0.9 -0.2-1-1-1.8-2.1-1.8 0 0 0 0-0.1 0 -1.4-0.1-3.1 0.5-3.1 0.5 -0.8 0.3-1.2-0.4-1.2-0.4 0 0.4 0.2 0.8 0.2 0.8 -0.7-0.4-1.3 0.1-1.3 0.1 0 0 0 0 0 0 0 0 0.1 0 0.1 0 0.4 0 0.7 0.3 0.7 0.7s-0.3 0.7-0.7 0.7c0 0-0.1 0-0.1 0 0.2 0.3 0.4 0.5 0.4 0.5 -0.1 1.7 0.7 2.4 0.7 2.4 0-1.4 0.7-2.2 0.7-2.2C597.8 75.7 596.5 70.6 596.5 70.6z"/>
  <path class="st8" d="M587.5 88.3c-0.2 0-0.4-0.1-0.6-0.2l-0.3-0.2c-0.7-0.4-1.6-1-2.2-1.7 -0.7-0.8-1.3-1.7-1.8-2.8 -0.2-0.5 0-1.1 0.5-1.3 0.5-0.2 1.1 0 1.3 0.5 0.4 0.9 0.9 1.6 1.4 2.2 0.5 0.5 1.3 1 1.8 1.4l0.3 0.2c0.5 0.3 0.6 0.9 0.3 1.4C588.2 88.2 587.9 88.3 587.5 88.3z"/>
  <path class="st14" d="M587.5 88.4c-0.2 0-0.4-0.1-0.6-0.2l-0.3-0.2c-0.7-0.4-1.6-1-2.2-1.7 -0.7-0.8-1.3-1.8-1.8-2.8 -0.2-0.6 0-1.2 0.6-1.4 0.1-0.1 0.3-0.1 0.4-0.1 0.4 0 0.8 0.3 1 0.7 0.4 0.9 0.9 1.6 1.4 2.2 0.5 0.5 1.2 1 1.8 1.4l0.3 0.2c0.5 0.3 0.6 1 0.3 1.5C588.2 88.2 587.9 88.4 587.5 88.4zM583.6 82.1c-0.1 0-0.2 0-0.4 0.1 -0.5 0.2-0.7 0.7-0.5 1.2 0.5 1.1 1.1 2 1.8 2.8 0.6 0.7 1.5 1.3 2.2 1.7l0.3 0.2c0.1 0.1 0.3 0.2 0.5 0.2 0.3 0 0.6-0.2 0.8-0.4 0.3-0.4 0.2-1-0.3-1.2l-0.3-0.2c-0.6-0.4-1.4-0.9-1.9-1.4 -0.6-0.6-1.1-1.4-1.4-2.3C584.2 82.4 583.9 82.1 583.6 82.1z"/>
  <path class="st7" d="M584 69.8c-0.3-0.2-0.7-0.2-1.2-0.1 -2.5 0.7-3.5 1.6-3.8 2.2s-0.2 2-0.9 1.9c0 0 0.7 0.7 0.1 0.7 0 0 0.5 0.4 0 0.6 0 0 1.3 1.5 2 0 0 0-0.1-1.4 0.8-0.4 0 0 0.8-0.1 0.8-0.1 0 0-0.1-0.9-0.1-1 0-0.4 0-1 0.3-1.3 0.4-0.3 0.8-0.4 1.3-0.3 0.2 0.1 0.5 0.1 0.7 0.2 0.1 0.1 0.5 0.3 0.8 0.4l0.1 0.2c0 0 0.1-0.6 0.3-0.8l0.7 0.3C586 72.3 586.9 69.4 584 69.8z"/>
  <path class="st11" d="M587.8 83c-0.2 0-0.4-0.1-0.6-0.2l-0.3-0.2c-0.7-0.4-1.6-1-2.2-1.7 -0.7-0.8-1.3-1.7-1.8-2.8 -0.2-0.5 0-1.1 0.5-1.3 0.5-0.2 1.1 0 1.3 0.5 0.4 0.9 0.9 1.6 1.4 2.2 0.5 0.5 1.3 1 1.8 1.4l0.3 0.2c0.5 0.3 0.6 0.9 0.3 1.4C588.5 82.9 588.1 83 587.8 83z"/>
</svg>